ISO-10303-21;
HEADER;
FILE_DESCRIPTION(('FreeCAD Model'),'2;1');
FILE_NAME('Open CASCADE Shape Model','2026-04-18T13:07:04',('Author'),(
    ''),'Open CASCADE STEP processor 7.8','FreeCAD','Unknown');
FILE_SCHEMA(('AUTOMOTIVE_DESIGN { 1 0 10303 214 1 1 1 1 }'));
ENDSEC;
DATA;
#1 = APPLICATION_PROTOCOL_DEFINITION('international standard',
  'automotive_design',2000,#2);
#2 = APPLICATION_CONTEXT(
  'core data for automotive mechanical design processes');
#3 = SHAPE_DEFINITION_REPRESENTATION(#4,#10);
#4 = PRODUCT_DEFINITION_SHAPE('','',#5);
#5 = PRODUCT_DEFINITION('design','',#6,#9);
#6 = PRODUCT_DEFINITION_FORMATION('','',#7);
#7 = PRODUCT('Fusion','Fusion','',(#8));
#8 = PRODUCT_CONTEXT('',#2,'mechanical');
#9 = PRODUCT_DEFINITION_CONTEXT('part definition',#2,'design');
#10 = ADVANCED_BREP_SHAPE_REPRESENTATION('',(#11,#15),#1581);
#11 = AXIS2_PLACEMENT_3D('',#12,#13,#14);
#12 = CARTESIAN_POINT('',(0.,0.,0.));
#13 = DIRECTION('',(0.,0.,1.));
#14 = DIRECTION('',(1.,0.,-0.));
#15 = MANIFOLD_SOLID_BREP('',#16);
#16 = CLOSED_SHELL('',(#17,#249,#280,#312,#351,#390,#414,#438,#462,#486,
    #518,#556,#595,#619,#643,#667,#691,#723,#753,#792,#816,#840,#864,
    #888,#920,#963,#1002,#1026,#1050,#1067,#1123,#1140,#1175,#1191,#1208
    ,#1243,#1294,#1334,#1346,#1357,#1374,#1409,#1433,#1457,#1481,#1505,
    #1524,#1550,#1569));
#17 = ADVANCED_FACE('',(#18),#244,.T.);
#18 = FACE_BOUND('',#19,.T.);
#19 = EDGE_LOOP('',(#20,#30,#38,#46,#54,#62,#70,#78,#86,#94,#102,#110,
    #118,#126,#134,#142,#150,#158,#166,#174,#182,#190,#198,#206,#214,
    #222,#230,#238));
#20 = ORIENTED_EDGE('',*,*,#21,.T.);
#21 = EDGE_CURVE('',#22,#24,#26,.T.);
#22 = VERTEX_POINT('',#23);
#23 = CARTESIAN_POINT('',(4.999999888241E-03,-2.30676010251E-02,
    -9.999999776483E-03));
#24 = VERTEX_POINT('',#25);
#25 = CARTESIAN_POINT('',(5.99999986589E-02,-9.5274746418E-02,
    -9.999999776483E-03));
#26 = LINE('',#27,#28);
#27 = CARTESIAN_POINT('',(4.999999888241E-03,-2.30676010251E-02,
    -9.999999776483E-03));
#28 = VECTOR('',#29,1.);
#29 = DIRECTION('',(0.60593886568,-0.79551121366,0.));
#30 = ORIENTED_EDGE('',*,*,#31,.T.);
#31 = EDGE_CURVE('',#24,#32,#34,.T.);
#32 = VERTEX_POINT('',#33);
#33 = CARTESIAN_POINT('',(5.99999986589E-02,-0.272000014782,
    -9.999999776483E-03));
#34 = LINE('',#35,#36);
#35 = CARTESIAN_POINT('',(5.99999986589E-02,-9.5274746418E-02,
    -9.999999776483E-03));
#36 = VECTOR('',#37,1.);
#37 = DIRECTION('',(0.,-1.,0.));
#38 = ORIENTED_EDGE('',*,*,#39,.T.);
#39 = EDGE_CURVE('',#32,#40,#42,.T.);
#40 = VERTEX_POINT('',#41);
#41 = CARTESIAN_POINT('',(-5.99999986589E-02,-0.272000014782,
    -9.999999776483E-03));
#42 = LINE('',#43,#44);
#43 = CARTESIAN_POINT('',(0.272000014782,-0.272000014782,
    -9.999999776483E-03));
#44 = VECTOR('',#45,1.);
#45 = DIRECTION('',(-1.,0.,0.));
#46 = ORIENTED_EDGE('',*,*,#47,.F.);
#47 = EDGE_CURVE('',#48,#40,#50,.T.);
#48 = VERTEX_POINT('',#49);
#49 = CARTESIAN_POINT('',(-5.99999986589E-02,-9.5274746418E-02,
    -9.999999776483E-03));
#50 = LINE('',#51,#52);
#51 = CARTESIAN_POINT('',(-5.99999986589E-02,-0.272000014782,
    -9.999999776483E-03));
#52 = VECTOR('',#53,1.);
#53 = DIRECTION('',(0.,-1.,0.));
#54 = ORIENTED_EDGE('',*,*,#55,.T.);
#55 = EDGE_CURVE('',#48,#56,#58,.T.);
#56 = VERTEX_POINT('',#57);
#57 = CARTESIAN_POINT('',(-4.999999888241E-03,-2.30676010251E-02,
    -9.999999776483E-03));
#58 = LINE('',#59,#60);
#59 = CARTESIAN_POINT('',(-5.99999986589E-02,-9.5274746418E-02,
    -9.999999776483E-03));
#60 = VECTOR('',#61,1.);
#61 = DIRECTION('',(0.60593886568,0.79551121366,0.));
#62 = ORIENTED_EDGE('',*,*,#63,.F.);
#63 = EDGE_CURVE('',#64,#56,#66,.T.);
#64 = VERTEX_POINT('',#65);
#65 = CARTESIAN_POINT('',(-4.999999888241E-03,-4.999999888241E-03,
    -9.999999776483E-03));
#66 = LINE('',#67,#68);
#67 = CARTESIAN_POINT('',(-4.999999888241E-03,-4.999999888241E-03,
    -9.999999776483E-03));
#68 = VECTOR('',#69,1.);
#69 = DIRECTION('',(0.,-1.,0.));
#70 = ORIENTED_EDGE('',*,*,#71,.T.);
#71 = EDGE_CURVE('',#64,#72,#74,.T.);
#72 = VERTEX_POINT('',#73);
#73 = CARTESIAN_POINT('',(-2.30676010251E-02,-4.999999888241E-03,
    -9.999999776483E-03));
#74 = LINE('',#75,#76);
#75 = CARTESIAN_POINT('',(-4.999999888241E-03,-4.999999888241E-03,
    -9.999999776483E-03));
#76 = VECTOR('',#77,1.);
#77 = DIRECTION('',(-1.,0.,0.));
#78 = ORIENTED_EDGE('',*,*,#79,.T.);
#79 = EDGE_CURVE('',#72,#80,#82,.T.);
#80 = VERTEX_POINT('',#81);
#81 = CARTESIAN_POINT('',(-9.5274746418E-02,-5.99999986589E-02,
    -9.999999776483E-03));
#82 = LINE('',#83,#84);
#83 = CARTESIAN_POINT('',(-2.30676010251E-02,-4.999999888241E-03,
    -9.999999776483E-03));
#84 = VECTOR('',#85,1.);
#85 = DIRECTION('',(-0.79551121366,-0.60593886568,0.));
#86 = ORIENTED_EDGE('',*,*,#87,.T.);
#87 = EDGE_CURVE('',#80,#88,#90,.T.);
#88 = VERTEX_POINT('',#89);
#89 = CARTESIAN_POINT('',(-0.272000014782,-5.99999986589E-02,
    -9.999999776483E-03));
#90 = LINE('',#91,#92);
#91 = CARTESIAN_POINT('',(-9.5274746418E-02,-5.99999986589E-02,
    -9.999999776483E-03));
#92 = VECTOR('',#93,1.);
#93 = DIRECTION('',(-1.,0.,0.));
#94 = ORIENTED_EDGE('',*,*,#95,.T.);
#95 = EDGE_CURVE('',#88,#96,#98,.T.);
#96 = VERTEX_POINT('',#97);
#97 = CARTESIAN_POINT('',(-0.272000014782,5.99999986589E-02,
    -9.999999776483E-03));
#98 = LINE('',#99,#100);
#99 = CARTESIAN_POINT('',(-0.272000014782,-0.272000014782,
    -9.999999776483E-03));
#100 = VECTOR('',#101,1.);
#101 = DIRECTION('',(0.,1.,0.));
#102 = ORIENTED_EDGE('',*,*,#103,.F.);
#103 = EDGE_CURVE('',#104,#96,#106,.T.);
#104 = VERTEX_POINT('',#105);
#105 = CARTESIAN_POINT('',(-9.5274746418E-02,5.99999986589E-02,
    -9.999999776483E-03));
#106 = LINE('',#107,#108);
#107 = CARTESIAN_POINT('',(-0.272000014782,5.99999986589E-02,
    -9.999999776483E-03));
#108 = VECTOR('',#109,1.);
#109 = DIRECTION('',(-1.,0.,0.));
#110 = ORIENTED_EDGE('',*,*,#111,.F.);
#111 = EDGE_CURVE('',#112,#104,#114,.T.);
#112 = VERTEX_POINT('',#113);
#113 = CARTESIAN_POINT('',(-2.30676010251E-02,4.999999888241E-03,
    -9.999999776483E-03));
#114 = LINE('',#115,#116);
#115 = CARTESIAN_POINT('',(-2.30676010251E-02,4.999999888241E-03,
    -9.999999776483E-03));
#116 = VECTOR('',#117,1.);
#117 = DIRECTION('',(-0.79551121366,0.60593886568,0.));
#118 = ORIENTED_EDGE('',*,*,#119,.T.);
#119 = EDGE_CURVE('',#112,#120,#122,.T.);
#120 = VERTEX_POINT('',#121);
#121 = CARTESIAN_POINT('',(-4.999999888241E-03,4.999999888241E-03,
    -9.999999776483E-03));
#122 = LINE('',#123,#124);
#123 = CARTESIAN_POINT('',(-2.30676010251E-02,4.999999888241E-03,
    -9.999999776483E-03));
#124 = VECTOR('',#125,1.);
#125 = DIRECTION('',(1.,0.,0.));
#126 = ORIENTED_EDGE('',*,*,#127,.T.);
#127 = EDGE_CURVE('',#120,#128,#130,.T.);
#128 = VERTEX_POINT('',#129);
#129 = CARTESIAN_POINT('',(-4.999999888241E-03,2.30676010251E-02,
    -9.999999776483E-03));
#130 = LINE('',#131,#132);
#131 = CARTESIAN_POINT('',(-4.999999888241E-03,4.999999888241E-03,
    -9.999999776483E-03));
#132 = VECTOR('',#133,1.);
#133 = DIRECTION('',(0.,1.,0.));
#134 = ORIENTED_EDGE('',*,*,#135,.F.);
#135 = EDGE_CURVE('',#136,#128,#138,.T.);
#136 = VERTEX_POINT('',#137);
#137 = CARTESIAN_POINT('',(-5.99999986589E-02,9.5274746418E-02,
    -9.999999776483E-03));
#138 = LINE('',#139,#140);
#139 = CARTESIAN_POINT('',(-5.99999986589E-02,9.5274746418E-02,
    -9.999999776483E-03));
#140 = VECTOR('',#141,1.);
#141 = DIRECTION('',(0.60593886568,-0.79551121366,0.));
#142 = ORIENTED_EDGE('',*,*,#143,.F.);
#143 = EDGE_CURVE('',#144,#136,#146,.T.);
#144 = VERTEX_POINT('',#145);
#145 = CARTESIAN_POINT('',(-5.99999986589E-02,0.272000014782,
    -9.999999776483E-03));
#146 = LINE('',#147,#148);
#147 = CARTESIAN_POINT('',(-5.99999986589E-02,0.272000014782,
    -9.999999776483E-03));
#148 = VECTOR('',#149,1.);
#149 = DIRECTION('',(0.,-1.,0.));
#150 = ORIENTED_EDGE('',*,*,#151,.T.);
#151 = EDGE_CURVE('',#144,#152,#154,.T.);
#152 = VERTEX_POINT('',#153);
#153 = CARTESIAN_POINT('',(5.99999986589E-02,0.272000014782,
    -9.999999776483E-03));
#154 = LINE('',#155,#156);
#155 = CARTESIAN_POINT('',(-0.272000014782,0.272000014782,
    -9.999999776483E-03));
#156 = VECTOR('',#157,1.);
#157 = DIRECTION('',(1.,0.,0.));
#158 = ORIENTED_EDGE('',*,*,#159,.F.);
#159 = EDGE_CURVE('',#160,#152,#162,.T.);
#160 = VERTEX_POINT('',#161);
#161 = CARTESIAN_POINT('',(5.99999986589E-02,9.5274746418E-02,
    -9.999999776483E-03));
#162 = LINE('',#163,#164);
#163 = CARTESIAN_POINT('',(5.99999986589E-02,0.272000014782,
    -9.999999776483E-03));
#164 = VECTOR('',#165,1.);
#165 = DIRECTION('',(0.,1.,0.));
#166 = ORIENTED_EDGE('',*,*,#167,.F.);
#167 = EDGE_CURVE('',#168,#160,#170,.T.);
#168 = VERTEX_POINT('',#169);
#169 = CARTESIAN_POINT('',(4.999999888241E-03,2.30676010251E-02,
    -9.999999776483E-03));
#170 = LINE('',#171,#172);
#171 = CARTESIAN_POINT('',(4.999999888241E-03,2.30676010251E-02,
    -9.999999776483E-03));
#172 = VECTOR('',#173,1.);
#173 = DIRECTION('',(0.60593886568,0.79551121366,0.));
#174 = ORIENTED_EDGE('',*,*,#175,.T.);
#175 = EDGE_CURVE('',#168,#176,#178,.T.);
#176 = VERTEX_POINT('',#177);
#177 = CARTESIAN_POINT('',(4.999999888241E-03,4.999999888241E-03,
    -9.999999776483E-03));
#178 = LINE('',#179,#180);
#179 = CARTESIAN_POINT('',(4.999999888241E-03,2.30676010251E-02,
    -9.999999776483E-03));
#180 = VECTOR('',#181,1.);
#181 = DIRECTION('',(0.,-1.,0.));
#182 = ORIENTED_EDGE('',*,*,#183,.F.);
#183 = EDGE_CURVE('',#184,#176,#186,.T.);
#184 = VERTEX_POINT('',#185);
#185 = CARTESIAN_POINT('',(2.30676010251E-02,4.999999888241E-03,
    -9.999999776483E-03));
#186 = LINE('',#187,#188);
#187 = CARTESIAN_POINT('',(2.30676010251E-02,4.999999888241E-03,
    -9.999999776483E-03));
#188 = VECTOR('',#189,1.);
#189 = DIRECTION('',(-1.,0.,0.));
#190 = ORIENTED_EDGE('',*,*,#191,.F.);
#191 = EDGE_CURVE('',#192,#184,#194,.T.);
#192 = VERTEX_POINT('',#193);
#193 = CARTESIAN_POINT('',(9.5274746418E-02,5.99999986589E-02,
    -9.999999776483E-03));
#194 = LINE('',#195,#196);
#195 = CARTESIAN_POINT('',(9.5274746418E-02,5.99999986589E-02,
    -9.999999776483E-03));
#196 = VECTOR('',#197,1.);
#197 = DIRECTION('',(-0.79551121366,-0.60593886568,0.));
#198 = ORIENTED_EDGE('',*,*,#199,.T.);
#199 = EDGE_CURVE('',#192,#200,#202,.T.);
#200 = VERTEX_POINT('',#201);
#201 = CARTESIAN_POINT('',(0.272000014782,5.99999986589E-02,
    -9.999999776483E-03));
#202 = LINE('',#203,#204);
#203 = CARTESIAN_POINT('',(9.5274746418E-02,5.99999986589E-02,
    -9.999999776483E-03));
#204 = VECTOR('',#205,1.);
#205 = DIRECTION('',(1.,0.,0.));
#206 = ORIENTED_EDGE('',*,*,#207,.T.);
#207 = EDGE_CURVE('',#200,#208,#210,.T.);
#208 = VERTEX_POINT('',#209);
#209 = CARTESIAN_POINT('',(0.272000014782,-5.99999986589E-02,
    -9.999999776483E-03));
#210 = LINE('',#211,#212);
#211 = CARTESIAN_POINT('',(0.272000014782,0.272000014782,
    -9.999999776483E-03));
#212 = VECTOR('',#213,1.);
#213 = DIRECTION('',(0.,-1.,0.));
#214 = ORIENTED_EDGE('',*,*,#215,.T.);
#215 = EDGE_CURVE('',#208,#216,#218,.T.);
#216 = VERTEX_POINT('',#217);
#217 = CARTESIAN_POINT('',(9.5274746418E-02,-5.99999986589E-02,
    -9.999999776483E-03));
#218 = LINE('',#219,#220);
#219 = CARTESIAN_POINT('',(0.300000011921,-5.99999986589E-02,
    -9.999999776483E-03));
#220 = VECTOR('',#221,1.);
#221 = DIRECTION('',(-1.,0.,0.));
#222 = ORIENTED_EDGE('',*,*,#223,.F.);
#223 = EDGE_CURVE('',#224,#216,#226,.T.);
#224 = VERTEX_POINT('',#225);
#225 = CARTESIAN_POINT('',(2.30676010251E-02,-4.999999888241E-03,
    -9.999999776483E-03));
#226 = LINE('',#227,#228);
#227 = CARTESIAN_POINT('',(2.30676010251E-02,-4.999999888241E-03,
    -9.999999776483E-03));
#228 = VECTOR('',#229,1.);
#229 = DIRECTION('',(0.79551121366,-0.60593886568,0.));
#230 = ORIENTED_EDGE('',*,*,#231,.F.);
#231 = EDGE_CURVE('',#232,#224,#234,.T.);
#232 = VERTEX_POINT('',#233);
#233 = CARTESIAN_POINT('',(4.999999888241E-03,-4.999999888241E-03,
    -9.999999776483E-03));
#234 = LINE('',#235,#236);
#235 = CARTESIAN_POINT('',(4.999999888241E-03,-4.999999888241E-03,
    -9.999999776483E-03));
#236 = VECTOR('',#237,1.);
#237 = DIRECTION('',(1.,0.,0.));
#238 = ORIENTED_EDGE('',*,*,#239,.T.);
#239 = EDGE_CURVE('',#232,#22,#240,.T.);
#240 = LINE('',#241,#242);
#241 = CARTESIAN_POINT('',(4.999999888241E-03,-4.999999888241E-03,
    -9.999999776483E-03));
#242 = VECTOR('',#243,1.);
#243 = DIRECTION('',(0.,-1.,0.));
#244 = PLANE('',#245);
#245 = AXIS2_PLACEMENT_3D('',#246,#247,#248);
#246 = CARTESIAN_POINT('',(1.030331518245E-17,-4.643747687863E-18,
    -9.999999776483E-03));
#247 = DIRECTION('',(-0.,-0.,-1.));
#248 = DIRECTION('',(-1.,0.,0.));
#249 = ADVANCED_FACE('',(#250),#275,.T.);
#250 = FACE_BOUND('',#251,.T.);
#251 = EDGE_LOOP('',(#252,#260,#261,#269));
#252 = ORIENTED_EDGE('',*,*,#253,.F.);
#253 = EDGE_CURVE('',#24,#254,#256,.T.);
#254 = VERTEX_POINT('',#255);
#255 = CARTESIAN_POINT('',(5.99999986589E-02,-9.5274746418E-02,0.));
#256 = LINE('',#257,#258);
#257 = CARTESIAN_POINT('',(5.99999986589E-02,-9.5274746418E-02,
    -9.999999776483E-03));
#258 = VECTOR('',#259,1.);
#259 = DIRECTION('',(0.,0.,1.));
#260 = ORIENTED_EDGE('',*,*,#21,.F.);
#261 = ORIENTED_EDGE('',*,*,#262,.F.);
#262 = EDGE_CURVE('',#263,#22,#265,.T.);
#263 = VERTEX_POINT('',#264);
#264 = CARTESIAN_POINT('',(4.999999888241E-03,-2.30676010251E-02,0.));
#265 = LINE('',#266,#267);
#266 = CARTESIAN_POINT('',(4.999999888241E-03,-2.30676010251E-02,0.));
#267 = VECTOR('',#268,1.);
#268 = DIRECTION('',(0.,0.,-1.));
#269 = ORIENTED_EDGE('',*,*,#270,.F.);
#270 = EDGE_CURVE('',#254,#263,#271,.T.);
#271 = LINE('',#272,#273);
#272 = CARTESIAN_POINT('',(5.99999986589E-02,-9.5274746418E-02,0.));
#273 = VECTOR('',#274,1.);
#274 = DIRECTION('',(-0.60593886568,0.79551121366,0.));
#275 = PLANE('',#276);
#276 = AXIS2_PLACEMENT_3D('',#277,#278,#279);
#277 = CARTESIAN_POINT('',(3.249999927357E-02,-5.917117372155E-02,
    -4.999999888241E-03));
#278 = DIRECTION('',(0.79551121366,0.60593886568,1.479412720595E-16));
#279 = DIRECTION('',(-0.60593886568,0.79551121366,1.796228128073E-32));
#280 = ADVANCED_FACE('',(#281),#307,.T.);
#281 = FACE_BOUND('',#282,.T.);
#282 = EDGE_LOOP('',(#283,#284,#285,#293,#301));
#283 = ORIENTED_EDGE('',*,*,#31,.F.);
#284 = ORIENTED_EDGE('',*,*,#253,.T.);
#285 = ORIENTED_EDGE('',*,*,#286,.T.);
#286 = EDGE_CURVE('',#254,#287,#289,.T.);
#287 = VERTEX_POINT('',#288);
#288 = CARTESIAN_POINT('',(5.99999986589E-02,-0.300000011921,0.));
#289 = LINE('',#290,#291);
#290 = CARTESIAN_POINT('',(5.99999986589E-02,-9.5274746418E-02,0.));
#291 = VECTOR('',#292,1.);
#292 = DIRECTION('',(0.,-1.,0.));
#293 = ORIENTED_EDGE('',*,*,#294,.T.);
#294 = EDGE_CURVE('',#287,#295,#297,.T.);
#295 = VERTEX_POINT('',#296);
#296 = CARTESIAN_POINT('',(5.99999986589E-02,-0.300000011921,
    -9.999999776483E-03));
#297 = LINE('',#298,#299);
#298 = CARTESIAN_POINT('',(5.99999986589E-02,-0.300000011921,0.));
#299 = VECTOR('',#300,1.);
#300 = DIRECTION('',(0.,0.,-1.));
#301 = ORIENTED_EDGE('',*,*,#302,.F.);
#302 = EDGE_CURVE('',#32,#295,#303,.T.);
#303 = LINE('',#304,#305);
#304 = CARTESIAN_POINT('',(5.99999986589E-02,-9.5274746418E-02,
    -9.999999776483E-03));
#305 = VECTOR('',#306,1.);
#306 = DIRECTION('',(0.,-1.,0.));
#307 = PLANE('',#308);
#308 = AXIS2_PLACEMENT_3D('',#309,#310,#311);
#309 = CARTESIAN_POINT('',(5.99999986589E-02,-0.197637379169,
    -4.999999888241E-03));
#310 = DIRECTION('',(1.,0.,0.));
#311 = DIRECTION('',(0.,0.,1.));
#312 = ADVANCED_FACE('',(#313),#346,.T.);
#313 = FACE_BOUND('',#314,.T.);
#314 = EDGE_LOOP('',(#315,#325,#333,#339,#340));
#315 = ORIENTED_EDGE('',*,*,#316,.T.);
#316 = EDGE_CURVE('',#317,#319,#321,.T.);
#317 = VERTEX_POINT('',#318);
#318 = CARTESIAN_POINT('',(0.272000014782,-0.272000014782,
    -9.999999776483E-03));
#319 = VERTEX_POINT('',#320);
#320 = CARTESIAN_POINT('',(-0.271999955177,-0.272000163794,
    -1.999999955297E-02));
#321 = LINE('',#322,#323);
#322 = CARTESIAN_POINT('',(0.272000014782,-0.272000014782,
    -9.999999776483E-03));
#323 = VECTOR('',#324,1.);
#324 = DIRECTION('',(-0.999831087346,-2.738721511377E-07,
    -1.837924853328E-02));
#325 = ORIENTED_EDGE('',*,*,#326,.F.);
#326 = EDGE_CURVE('',#327,#319,#329,.T.);
#327 = VERTEX_POINT('',#328);
#328 = CARTESIAN_POINT('',(-0.272000014782,-0.272000014782,
    -9.999999776483E-03));
#329 = LINE('',#330,#331);
#330 = CARTESIAN_POINT('',(-0.272000014782,-0.272000014782,
    -9.999999776483E-03));
#331 = VECTOR('',#332,1.);
#332 = DIRECTION('',(5.96046461E-06,-1.4901161525E-05,-0.999999999871));
#333 = ORIENTED_EDGE('',*,*,#334,.F.);
#334 = EDGE_CURVE('',#40,#327,#335,.T.);
#335 = LINE('',#336,#337);
#336 = CARTESIAN_POINT('',(0.272000014782,-0.272000014782,
    -9.999999776483E-03));
#337 = VECTOR('',#338,1.);
#338 = DIRECTION('',(-1.,0.,0.));
#339 = ORIENTED_EDGE('',*,*,#39,.F.);
#340 = ORIENTED_EDGE('',*,*,#341,.F.);
#341 = EDGE_CURVE('',#317,#32,#342,.T.);
#342 = LINE('',#343,#344);
#343 = CARTESIAN_POINT('',(0.272000014782,-0.272000014782,
    -9.999999776483E-03));
#344 = VECTOR('',#345,1.);
#345 = DIRECTION('',(-1.,0.,0.));
#346 = PLANE('',#347);
#347 = AXIS2_PLACEMENT_3D('',#348,#349,#350);
#348 = CARTESIAN_POINT('',(-2.477009042655E-03,-0.272000052377,
    -1.252297558428E-02));
#349 = DIRECTION('',(0.,0.999999999889,-1.490116152526E-05));
#350 = DIRECTION('',(0.,1.490116152526E-05,0.999999999889));
#351 = ADVANCED_FACE('',(#352),#385,.T.);
#352 = FACE_BOUND('',#353,.T.);
#353 = EDGE_LOOP('',(#354,#355,#363,#371,#379));
#354 = ORIENTED_EDGE('',*,*,#47,.T.);
#355 = ORIENTED_EDGE('',*,*,#356,.T.);
#356 = EDGE_CURVE('',#40,#357,#359,.T.);
#357 = VERTEX_POINT('',#358);
#358 = CARTESIAN_POINT('',(-5.99999986589E-02,-0.300000011921,
    -9.999999776483E-03));
#359 = LINE('',#360,#361);
#360 = CARTESIAN_POINT('',(-5.99999986589E-02,-0.272000014782,
    -9.999999776483E-03));
#361 = VECTOR('',#362,1.);
#362 = DIRECTION('',(0.,-1.,0.));
#363 = ORIENTED_EDGE('',*,*,#364,.T.);
#364 = EDGE_CURVE('',#357,#365,#367,.T.);
#365 = VERTEX_POINT('',#366);
#366 = CARTESIAN_POINT('',(-5.99999986589E-02,-0.300000011921,0.));
#367 = LINE('',#368,#369);
#368 = CARTESIAN_POINT('',(-5.99999986589E-02,-0.300000011921,
    -9.999999776483E-03));
#369 = VECTOR('',#370,1.);
#370 = DIRECTION('',(0.,0.,1.));
#371 = ORIENTED_EDGE('',*,*,#372,.T.);
#372 = EDGE_CURVE('',#365,#373,#375,.T.);
#373 = VERTEX_POINT('',#374);
#374 = CARTESIAN_POINT('',(-5.99999986589E-02,-9.5274746418E-02,0.));
#375 = LINE('',#376,#377);
#376 = CARTESIAN_POINT('',(-5.99999986589E-02,-0.300000011921,0.));
#377 = VECTOR('',#378,1.);
#378 = DIRECTION('',(0.,1.,0.));
#379 = ORIENTED_EDGE('',*,*,#380,.T.);
#380 = EDGE_CURVE('',#373,#48,#381,.T.);
#381 = LINE('',#382,#383);
#382 = CARTESIAN_POINT('',(-5.99999986589E-02,-9.5274746418E-02,0.));
#383 = VECTOR('',#384,1.);
#384 = DIRECTION('',(0.,0.,-1.));
#385 = PLANE('',#386);
#386 = AXIS2_PLACEMENT_3D('',#387,#388,#389);
#387 = CARTESIAN_POINT('',(-5.99999986589E-02,-0.197637379169,
    -4.999999888241E-03));
#388 = DIRECTION('',(-1.,-0.,-0.));
#389 = DIRECTION('',(0.,0.,-1.));
#390 = ADVANCED_FACE('',(#391),#409,.T.);
#391 = FACE_BOUND('',#392,.T.);
#392 = EDGE_LOOP('',(#393,#401,#402,#403));
#393 = ORIENTED_EDGE('',*,*,#394,.F.);
#394 = EDGE_CURVE('',#56,#395,#397,.T.);
#395 = VERTEX_POINT('',#396);
#396 = CARTESIAN_POINT('',(-4.999999888241E-03,-2.30676010251E-02,0.));
#397 = LINE('',#398,#399);
#398 = CARTESIAN_POINT('',(-4.999999888241E-03,-2.30676010251E-02,
    -9.999999776483E-03));
#399 = VECTOR('',#400,1.);
#400 = DIRECTION('',(0.,0.,1.));
#401 = ORIENTED_EDGE('',*,*,#55,.F.);
#402 = ORIENTED_EDGE('',*,*,#380,.F.);
#403 = ORIENTED_EDGE('',*,*,#404,.F.);
#404 = EDGE_CURVE('',#395,#373,#405,.T.);
#405 = LINE('',#406,#407);
#406 = CARTESIAN_POINT('',(-4.999999888241E-03,-2.30676010251E-02,0.));
#407 = VECTOR('',#408,1.);
#408 = DIRECTION('',(-0.60593886568,-0.79551121366,0.));
#409 = PLANE('',#410);
#410 = AXIS2_PLACEMENT_3D('',#411,#412,#413);
#411 = CARTESIAN_POINT('',(-3.249999927357E-02,-5.917117372155E-02,
    -4.999999888241E-03));
#412 = DIRECTION('',(-0.79551121366,0.60593886568,-1.893648240035E-16));
#413 = DIRECTION('',(-0.60593886568,-0.79551121366,6.057249869355E-33));
#414 = ADVANCED_FACE('',(#415),#433,.T.);
#415 = FACE_BOUND('',#416,.T.);
#416 = EDGE_LOOP('',(#417,#425,#426,#427));
#417 = ORIENTED_EDGE('',*,*,#418,.T.);
#418 = EDGE_CURVE('',#419,#64,#421,.T.);
#419 = VERTEX_POINT('',#420);
#420 = CARTESIAN_POINT('',(-4.999999888241E-03,-4.999999888241E-03,0.));
#421 = LINE('',#422,#423);
#422 = CARTESIAN_POINT('',(-4.999999888241E-03,-4.999999888241E-03,0.));
#423 = VECTOR('',#424,1.);
#424 = DIRECTION('',(0.,0.,-1.));
#425 = ORIENTED_EDGE('',*,*,#63,.T.);
#426 = ORIENTED_EDGE('',*,*,#394,.T.);
#427 = ORIENTED_EDGE('',*,*,#428,.T.);
#428 = EDGE_CURVE('',#395,#419,#429,.T.);
#429 = LINE('',#430,#431);
#430 = CARTESIAN_POINT('',(-4.999999888241E-03,-2.30676010251E-02,0.));
#431 = VECTOR('',#432,1.);
#432 = DIRECTION('',(0.,1.,0.));
#433 = PLANE('',#434);
#434 = AXIS2_PLACEMENT_3D('',#435,#436,#437);
#435 = CARTESIAN_POINT('',(-4.999999888241E-03,-1.403380045667E-02,
    -4.999999888241E-03));
#436 = DIRECTION('',(-1.,-0.,-0.));
#437 = DIRECTION('',(0.,0.,-1.));
#438 = ADVANCED_FACE('',(#439),#457,.T.);
#439 = FACE_BOUND('',#440,.T.);
#440 = EDGE_LOOP('',(#441,#449,#450,#451));
#441 = ORIENTED_EDGE('',*,*,#442,.T.);
#442 = EDGE_CURVE('',#443,#72,#445,.T.);
#443 = VERTEX_POINT('',#444);
#444 = CARTESIAN_POINT('',(-2.30676010251E-02,-4.999999888241E-03,0.));
#445 = LINE('',#446,#447);
#446 = CARTESIAN_POINT('',(-2.30676010251E-02,-4.999999888241E-03,0.));
#447 = VECTOR('',#448,1.);
#448 = DIRECTION('',(0.,0.,-1.));
#449 = ORIENTED_EDGE('',*,*,#71,.F.);
#450 = ORIENTED_EDGE('',*,*,#418,.F.);
#451 = ORIENTED_EDGE('',*,*,#452,.F.);
#452 = EDGE_CURVE('',#443,#419,#453,.T.);
#453 = LINE('',#454,#455);
#454 = CARTESIAN_POINT('',(-2.30676010251E-02,-4.999999888241E-03,0.));
#455 = VECTOR('',#456,1.);
#456 = DIRECTION('',(1.,0.,0.));
#457 = PLANE('',#458);
#458 = AXIS2_PLACEMENT_3D('',#459,#460,#461);
#459 = CARTESIAN_POINT('',(-1.403380045667E-02,-4.999999888241E-03,
    -4.999999888241E-03));
#460 = DIRECTION('',(-0.,-1.,-0.));
#461 = DIRECTION('',(0.,0.,-1.));
#462 = ADVANCED_FACE('',(#463),#481,.T.);
#463 = FACE_BOUND('',#464,.T.);
#464 = EDGE_LOOP('',(#465,#473,#474,#475));
#465 = ORIENTED_EDGE('',*,*,#466,.F.);
#466 = EDGE_CURVE('',#80,#467,#469,.T.);
#467 = VERTEX_POINT('',#468);
#468 = CARTESIAN_POINT('',(-9.5274746418E-02,-5.99999986589E-02,0.));
#469 = LINE('',#470,#471);
#470 = CARTESIAN_POINT('',(-9.5274746418E-02,-5.99999986589E-02,
    -9.999999776483E-03));
#471 = VECTOR('',#472,1.);
#472 = DIRECTION('',(0.,0.,1.));
#473 = ORIENTED_EDGE('',*,*,#79,.F.);
#474 = ORIENTED_EDGE('',*,*,#442,.F.);
#475 = ORIENTED_EDGE('',*,*,#476,.F.);
#476 = EDGE_CURVE('',#467,#443,#477,.T.);
#477 = LINE('',#478,#479);
#478 = CARTESIAN_POINT('',(-9.5274746418E-02,-5.99999986589E-02,0.));
#479 = VECTOR('',#480,1.);
#480 = DIRECTION('',(0.79551121366,0.60593886568,0.));
#481 = PLANE('',#482);
#482 = AXIS2_PLACEMENT_3D('',#483,#484,#485);
#483 = CARTESIAN_POINT('',(-5.917117372155E-02,-3.249999927357E-02,
    -4.999999888241E-03));
#484 = DIRECTION('',(0.60593886568,-0.79551121366,1.479412720595E-16));
#485 = DIRECTION('',(-0.79551121366,-0.60593886568,-8.978392668226E-33)
  );
#486 = ADVANCED_FACE('',(#487),#513,.T.);
#487 = FACE_BOUND('',#488,.T.);
#488 = EDGE_LOOP('',(#489,#490,#491,#499,#507));
#489 = ORIENTED_EDGE('',*,*,#87,.F.);
#490 = ORIENTED_EDGE('',*,*,#466,.T.);
#491 = ORIENTED_EDGE('',*,*,#492,.F.);
#492 = EDGE_CURVE('',#493,#467,#495,.T.);
#493 = VERTEX_POINT('',#494);
#494 = CARTESIAN_POINT('',(-0.300000011921,-5.99999986589E-02,0.));
#495 = LINE('',#496,#497);
#496 = CARTESIAN_POINT('',(-0.300000011921,-5.99999986589E-02,0.));
#497 = VECTOR('',#498,1.);
#498 = DIRECTION('',(1.,0.,0.));
#499 = ORIENTED_EDGE('',*,*,#500,.T.);
#500 = EDGE_CURVE('',#493,#501,#503,.T.);
#501 = VERTEX_POINT('',#502);
#502 = CARTESIAN_POINT('',(-0.300000011921,-5.99999986589E-02,
    -9.999999776483E-03));
#503 = LINE('',#504,#505);
#504 = CARTESIAN_POINT('',(-0.300000011921,-5.99999986589E-02,0.));
#505 = VECTOR('',#506,1.);
#506 = DIRECTION('',(0.,0.,-1.));
#507 = ORIENTED_EDGE('',*,*,#508,.F.);
#508 = EDGE_CURVE('',#88,#501,#509,.T.);
#509 = LINE('',#510,#511);
#510 = CARTESIAN_POINT('',(-9.5274746418E-02,-5.99999986589E-02,
    -9.999999776483E-03));
#511 = VECTOR('',#512,1.);
#512 = DIRECTION('',(-1.,0.,0.));
#513 = PLANE('',#514);
#514 = AXIS2_PLACEMENT_3D('',#515,#516,#517);
#515 = CARTESIAN_POINT('',(-0.197637379169,-5.99999986589E-02,
    -4.999999888241E-03));
#516 = DIRECTION('',(-0.,-1.,-0.));
#517 = DIRECTION('',(0.,0.,-1.));
#518 = ADVANCED_FACE('',(#519),#551,.T.);
#519 = FACE_BOUND('',#520,.T.);
#520 = EDGE_LOOP('',(#521,#527,#528,#536,#544,#550));
#521 = ORIENTED_EDGE('',*,*,#522,.F.);
#522 = EDGE_CURVE('',#327,#88,#523,.T.);
#523 = LINE('',#524,#525);
#524 = CARTESIAN_POINT('',(-0.272000014782,-0.272000014782,
    -9.999999776483E-03));
#525 = VECTOR('',#526,1.);
#526 = DIRECTION('',(0.,1.,0.));
#527 = ORIENTED_EDGE('',*,*,#326,.T.);
#528 = ORIENTED_EDGE('',*,*,#529,.F.);
#529 = EDGE_CURVE('',#530,#319,#532,.T.);
#530 = VERTEX_POINT('',#531);
#531 = CARTESIAN_POINT('',(-0.271999955177,0.272000014782,
    -1.999999955297E-02));
#532 = LINE('',#533,#534);
#533 = CARTESIAN_POINT('',(-0.271999955177,0.272000014782,
    -1.999999955297E-02));
#534 = VECTOR('',#535,1.);
#535 = DIRECTION('',(0.,-1.,0.));
#536 = ORIENTED_EDGE('',*,*,#537,.F.);
#537 = EDGE_CURVE('',#538,#530,#540,.T.);
#538 = VERTEX_POINT('',#539);
#539 = CARTESIAN_POINT('',(-0.272000014782,0.272000014782,
    -9.999999776483E-03));
#540 = LINE('',#541,#542);
#541 = CARTESIAN_POINT('',(-0.272000014782,0.272000014782,
    -9.999999776483E-03));
#542 = VECTOR('',#543,1.);
#543 = DIRECTION('',(5.960464610662E-06,0.,-0.999999999982));
#544 = ORIENTED_EDGE('',*,*,#545,.F.);
#545 = EDGE_CURVE('',#96,#538,#546,.T.);
#546 = LINE('',#547,#548);
#547 = CARTESIAN_POINT('',(-0.272000014782,-0.272000014782,
    -9.999999776483E-03));
#548 = VECTOR('',#549,1.);
#549 = DIRECTION('',(0.,1.,0.));
#550 = ORIENTED_EDGE('',*,*,#95,.F.);
#551 = PLANE('',#552);
#552 = AXIS2_PLACEMENT_3D('',#553,#554,#555);
#553 = CARTESIAN_POINT('',(-0.27199998498,-3.725318054536E-08,
    -1.500000033716E-02));
#554 = DIRECTION('',(0.999999999982,0.,5.960464610662E-06));
#555 = DIRECTION('',(-5.960464610662E-06,0.,0.999999999982));
#556 = ADVANCED_FACE('',(#557),#590,.T.);
#557 = FACE_BOUND('',#558,.T.);
#558 = EDGE_LOOP('',(#559,#560,#568,#576,#584));
#559 = ORIENTED_EDGE('',*,*,#103,.T.);
#560 = ORIENTED_EDGE('',*,*,#561,.T.);
#561 = EDGE_CURVE('',#96,#562,#564,.T.);
#562 = VERTEX_POINT('',#563);
#563 = CARTESIAN_POINT('',(-0.300000011921,5.99999986589E-02,
    -9.999999776483E-03));
#564 = LINE('',#565,#566);
#565 = CARTESIAN_POINT('',(-0.272000014782,5.99999986589E-02,
    -9.999999776483E-03));
#566 = VECTOR('',#567,1.);
#567 = DIRECTION('',(-1.,0.,0.));
#568 = ORIENTED_EDGE('',*,*,#569,.T.);
#569 = EDGE_CURVE('',#562,#570,#572,.T.);
#570 = VERTEX_POINT('',#571);
#571 = CARTESIAN_POINT('',(-0.300000011921,5.99999986589E-02,0.));
#572 = LINE('',#573,#574);
#573 = CARTESIAN_POINT('',(-0.300000011921,5.99999986589E-02,
    -9.999999776483E-03));
#574 = VECTOR('',#575,1.);
#575 = DIRECTION('',(0.,0.,1.));
#576 = ORIENTED_EDGE('',*,*,#577,.F.);
#577 = EDGE_CURVE('',#578,#570,#580,.T.);
#578 = VERTEX_POINT('',#579);
#579 = CARTESIAN_POINT('',(-9.5274746418E-02,5.99999986589E-02,0.));
#580 = LINE('',#581,#582);
#581 = CARTESIAN_POINT('',(-9.5274746418E-02,5.99999986589E-02,0.));
#582 = VECTOR('',#583,1.);
#583 = DIRECTION('',(-1.,0.,0.));
#584 = ORIENTED_EDGE('',*,*,#585,.F.);
#585 = EDGE_CURVE('',#104,#578,#586,.T.);
#586 = LINE('',#587,#588);
#587 = CARTESIAN_POINT('',(-9.5274746418E-02,5.99999986589E-02,
    -9.999999776483E-03));
#588 = VECTOR('',#589,1.);
#589 = DIRECTION('',(0.,0.,1.));
#590 = PLANE('',#591);
#591 = AXIS2_PLACEMENT_3D('',#592,#593,#594);
#592 = CARTESIAN_POINT('',(-0.197637379169,5.99999986589E-02,
    -4.999999888241E-03));
#593 = DIRECTION('',(0.,1.,0.));
#594 = DIRECTION('',(0.,0.,1.));
#595 = ADVANCED_FACE('',(#596),#614,.T.);
#596 = FACE_BOUND('',#597,.T.);
#597 = EDGE_LOOP('',(#598,#606,#607,#608));
#598 = ORIENTED_EDGE('',*,*,#599,.T.);
#599 = EDGE_CURVE('',#600,#112,#602,.T.);
#600 = VERTEX_POINT('',#601);
#601 = CARTESIAN_POINT('',(-2.30676010251E-02,4.999999888241E-03,0.));
#602 = LINE('',#603,#604);
#603 = CARTESIAN_POINT('',(-2.30676010251E-02,4.999999888241E-03,0.));
#604 = VECTOR('',#605,1.);
#605 = DIRECTION('',(0.,0.,-1.));
#606 = ORIENTED_EDGE('',*,*,#111,.T.);
#607 = ORIENTED_EDGE('',*,*,#585,.T.);
#608 = ORIENTED_EDGE('',*,*,#609,.T.);
#609 = EDGE_CURVE('',#578,#600,#610,.T.);
#610 = LINE('',#611,#612);
#611 = CARTESIAN_POINT('',(-9.5274746418E-02,5.99999986589E-02,0.));
#612 = VECTOR('',#613,1.);
#613 = DIRECTION('',(0.79551121366,-0.60593886568,0.));
#614 = PLANE('',#615);
#615 = AXIS2_PLACEMENT_3D('',#616,#617,#618);
#616 = CARTESIAN_POINT('',(-5.917117372155E-02,3.249999927357E-02,
    -4.999999888241E-03));
#617 = DIRECTION('',(0.60593886568,0.79551121366,1.479412720595E-16));
#618 = DIRECTION('',(0.79551121366,-0.60593886568,8.978392668226E-33));
#619 = ADVANCED_FACE('',(#620),#638,.T.);
#620 = FACE_BOUND('',#621,.T.);
#621 = EDGE_LOOP('',(#622,#630,#636,#637));
#622 = ORIENTED_EDGE('',*,*,#623,.F.);
#623 = EDGE_CURVE('',#624,#600,#626,.T.);
#624 = VERTEX_POINT('',#625);
#625 = CARTESIAN_POINT('',(-4.999999888241E-03,4.999999888241E-03,0.));
#626 = LINE('',#627,#628);
#627 = CARTESIAN_POINT('',(-4.999999888241E-03,4.999999888241E-03,0.));
#628 = VECTOR('',#629,1.);
#629 = DIRECTION('',(-1.,0.,0.));
#630 = ORIENTED_EDGE('',*,*,#631,.T.);
#631 = EDGE_CURVE('',#624,#120,#632,.T.);
#632 = LINE('',#633,#634);
#633 = CARTESIAN_POINT('',(-4.999999888241E-03,4.999999888241E-03,0.));
#634 = VECTOR('',#635,1.);
#635 = DIRECTION('',(0.,0.,-1.));
#636 = ORIENTED_EDGE('',*,*,#119,.F.);
#637 = ORIENTED_EDGE('',*,*,#599,.F.);
#638 = PLANE('',#639);
#639 = AXIS2_PLACEMENT_3D('',#640,#641,#642);
#640 = CARTESIAN_POINT('',(-1.403380045667E-02,4.999999888241E-03,
    -4.999999888241E-03));
#641 = DIRECTION('',(0.,1.,0.));
#642 = DIRECTION('',(0.,0.,1.));
#643 = ADVANCED_FACE('',(#644),#662,.T.);
#644 = FACE_BOUND('',#645,.T.);
#645 = EDGE_LOOP('',(#646,#654,#660,#661));
#646 = ORIENTED_EDGE('',*,*,#647,.F.);
#647 = EDGE_CURVE('',#648,#624,#650,.T.);
#648 = VERTEX_POINT('',#649);
#649 = CARTESIAN_POINT('',(-4.999999888241E-03,2.30676010251E-02,0.));
#650 = LINE('',#651,#652);
#651 = CARTESIAN_POINT('',(-4.999999888241E-03,2.30676010251E-02,0.));
#652 = VECTOR('',#653,1.);
#653 = DIRECTION('',(0.,-1.,0.));
#654 = ORIENTED_EDGE('',*,*,#655,.T.);
#655 = EDGE_CURVE('',#648,#128,#656,.T.);
#656 = LINE('',#657,#658);
#657 = CARTESIAN_POINT('',(-4.999999888241E-03,2.30676010251E-02,0.));
#658 = VECTOR('',#659,1.);
#659 = DIRECTION('',(0.,0.,-1.));
#660 = ORIENTED_EDGE('',*,*,#127,.F.);
#661 = ORIENTED_EDGE('',*,*,#631,.F.);
#662 = PLANE('',#663);
#663 = AXIS2_PLACEMENT_3D('',#664,#665,#666);
#664 = CARTESIAN_POINT('',(-4.999999888241E-03,1.403380045667E-02,
    -4.999999888241E-03));
#665 = DIRECTION('',(-1.,-0.,-0.));
#666 = DIRECTION('',(0.,0.,-1.));
#667 = ADVANCED_FACE('',(#668),#686,.T.);
#668 = FACE_BOUND('',#669,.T.);
#669 = EDGE_LOOP('',(#670,#678,#679,#680));
#670 = ORIENTED_EDGE('',*,*,#671,.F.);
#671 = EDGE_CURVE('',#136,#672,#674,.T.);
#672 = VERTEX_POINT('',#673);
#673 = CARTESIAN_POINT('',(-5.99999986589E-02,9.5274746418E-02,0.));
#674 = LINE('',#675,#676);
#675 = CARTESIAN_POINT('',(-5.99999986589E-02,9.5274746418E-02,
    -9.999999776483E-03));
#676 = VECTOR('',#677,1.);
#677 = DIRECTION('',(0.,0.,1.));
#678 = ORIENTED_EDGE('',*,*,#135,.T.);
#679 = ORIENTED_EDGE('',*,*,#655,.F.);
#680 = ORIENTED_EDGE('',*,*,#681,.F.);
#681 = EDGE_CURVE('',#672,#648,#682,.T.);
#682 = LINE('',#683,#684);
#683 = CARTESIAN_POINT('',(-5.99999986589E-02,9.5274746418E-02,0.));
#684 = VECTOR('',#685,1.);
#685 = DIRECTION('',(0.60593886568,-0.79551121366,0.));
#686 = PLANE('',#687);
#687 = AXIS2_PLACEMENT_3D('',#688,#689,#690);
#688 = CARTESIAN_POINT('',(-3.249999927357E-02,5.917117372155E-02,
    -4.999999888241E-03));
#689 = DIRECTION('',(-0.79551121366,-0.60593886568,-0.));
#690 = DIRECTION('',(0.60593886568,-0.79551121366,0.));
#691 = ADVANCED_FACE('',(#692),#718,.T.);
#692 = FACE_BOUND('',#693,.T.);
#693 = EDGE_LOOP('',(#694,#702,#703,#704,#712));
#694 = ORIENTED_EDGE('',*,*,#695,.T.);
#695 = EDGE_CURVE('',#696,#144,#698,.T.);
#696 = VERTEX_POINT('',#697);
#697 = CARTESIAN_POINT('',(-5.99999986589E-02,0.300000011921,
    -9.999999776483E-03));
#698 = LINE('',#699,#700);
#699 = CARTESIAN_POINT('',(-5.99999986589E-02,0.272000014782,
    -9.999999776483E-03));
#700 = VECTOR('',#701,1.);
#701 = DIRECTION('',(0.,-1.,0.));
#702 = ORIENTED_EDGE('',*,*,#143,.T.);
#703 = ORIENTED_EDGE('',*,*,#671,.T.);
#704 = ORIENTED_EDGE('',*,*,#705,.F.);
#705 = EDGE_CURVE('',#706,#672,#708,.T.);
#706 = VERTEX_POINT('',#707);
#707 = CARTESIAN_POINT('',(-5.99999986589E-02,0.300000011921,0.));
#708 = LINE('',#709,#710);
#709 = CARTESIAN_POINT('',(-5.99999986589E-02,0.300000011921,0.));
#710 = VECTOR('',#711,1.);
#711 = DIRECTION('',(0.,-1.,0.));
#712 = ORIENTED_EDGE('',*,*,#713,.T.);
#713 = EDGE_CURVE('',#706,#696,#714,.T.);
#714 = LINE('',#715,#716);
#715 = CARTESIAN_POINT('',(-5.99999986589E-02,0.300000011921,0.));
#716 = VECTOR('',#717,1.);
#717 = DIRECTION('',(0.,0.,-1.));
#718 = PLANE('',#719);
#719 = AXIS2_PLACEMENT_3D('',#720,#721,#722);
#720 = CARTESIAN_POINT('',(-5.99999986589E-02,0.197637379169,
    -4.999999888241E-03));
#721 = DIRECTION('',(-1.,-0.,-0.));
#722 = DIRECTION('',(0.,0.,-1.));
#723 = ADVANCED_FACE('',(#724),#748,.T.);
#724 = FACE_BOUND('',#725,.T.);
#725 = EDGE_LOOP('',(#726,#734,#740,#741,#747));
#726 = ORIENTED_EDGE('',*,*,#727,.T.);
#727 = EDGE_CURVE('',#530,#728,#730,.T.);
#728 = VERTEX_POINT('',#729);
#729 = CARTESIAN_POINT('',(0.272000014782,0.272000014782,
    -9.999999776483E-03));
#730 = LINE('',#731,#732);
#731 = CARTESIAN_POINT('',(-0.271999955177,0.272000014782,
    -1.999999955297E-02));
#732 = VECTOR('',#733,1.);
#733 = DIRECTION('',(0.999831087346,0.,1.837924853328E-02));
#734 = ORIENTED_EDGE('',*,*,#735,.F.);
#735 = EDGE_CURVE('',#152,#728,#736,.T.);
#736 = LINE('',#737,#738);
#737 = CARTESIAN_POINT('',(-0.272000014782,0.272000014782,
    -9.999999776483E-03));
#738 = VECTOR('',#739,1.);
#739 = DIRECTION('',(1.,0.,0.));
#740 = ORIENTED_EDGE('',*,*,#151,.F.);
#741 = ORIENTED_EDGE('',*,*,#742,.F.);
#742 = EDGE_CURVE('',#538,#144,#743,.T.);
#743 = LINE('',#744,#745);
#744 = CARTESIAN_POINT('',(-0.272000014782,0.272000014782,
    -9.999999776483E-03));
#745 = VECTOR('',#746,1.);
#746 = DIRECTION('',(1.,0.,0.));
#747 = ORIENTED_EDGE('',*,*,#537,.T.);
#748 = PLANE('',#749);
#749 = AXIS2_PLACEMENT_3D('',#750,#751,#752);
#750 = CARTESIAN_POINT('',(-2.477009042382E-03,0.272000014782,
    -1.252297558428E-02));
#751 = DIRECTION('',(-0.,-1.,-0.));
#752 = DIRECTION('',(0.,0.,-1.));
#753 = ADVANCED_FACE('',(#754),#787,.T.);
#754 = FACE_BOUND('',#755,.T.);
#755 = EDGE_LOOP('',(#756,#757,#765,#773,#781));
#756 = ORIENTED_EDGE('',*,*,#159,.T.);
#757 = ORIENTED_EDGE('',*,*,#758,.T.);
#758 = EDGE_CURVE('',#152,#759,#761,.T.);
#759 = VERTEX_POINT('',#760);
#760 = CARTESIAN_POINT('',(5.99999986589E-02,0.300000011921,
    -9.999999776483E-03));
#761 = LINE('',#762,#763);
#762 = CARTESIAN_POINT('',(5.99999986589E-02,0.272000014782,
    -9.999999776483E-03));
#763 = VECTOR('',#764,1.);
#764 = DIRECTION('',(0.,1.,0.));
#765 = ORIENTED_EDGE('',*,*,#766,.T.);
#766 = EDGE_CURVE('',#759,#767,#769,.T.);
#767 = VERTEX_POINT('',#768);
#768 = CARTESIAN_POINT('',(5.99999986589E-02,0.300000011921,0.));
#769 = LINE('',#770,#771);
#770 = CARTESIAN_POINT('',(5.99999986589E-02,0.300000011921,
    -9.999999776483E-03));
#771 = VECTOR('',#772,1.);
#772 = DIRECTION('',(0.,0.,1.));
#773 = ORIENTED_EDGE('',*,*,#774,.F.);
#774 = EDGE_CURVE('',#775,#767,#777,.T.);
#775 = VERTEX_POINT('',#776);
#776 = CARTESIAN_POINT('',(5.99999986589E-02,9.5274746418E-02,0.));
#777 = LINE('',#778,#779);
#778 = CARTESIAN_POINT('',(5.99999986589E-02,9.5274746418E-02,0.));
#779 = VECTOR('',#780,1.);
#780 = DIRECTION('',(0.,1.,0.));
#781 = ORIENTED_EDGE('',*,*,#782,.T.);
#782 = EDGE_CURVE('',#775,#160,#783,.T.);
#783 = LINE('',#784,#785);
#784 = CARTESIAN_POINT('',(5.99999986589E-02,9.5274746418E-02,0.));
#785 = VECTOR('',#786,1.);
#786 = DIRECTION('',(0.,0.,-1.));
#787 = PLANE('',#788);
#788 = AXIS2_PLACEMENT_3D('',#789,#790,#791);
#789 = CARTESIAN_POINT('',(5.99999986589E-02,0.197637379169,
    -4.999999888241E-03));
#790 = DIRECTION('',(1.,0.,0.));
#791 = DIRECTION('',(0.,0.,1.));
#792 = ADVANCED_FACE('',(#793),#811,.T.);
#793 = FACE_BOUND('',#794,.T.);
#794 = EDGE_LOOP('',(#795,#803,#809,#810));
#795 = ORIENTED_EDGE('',*,*,#796,.F.);
#796 = EDGE_CURVE('',#797,#775,#799,.T.);
#797 = VERTEX_POINT('',#798);
#798 = CARTESIAN_POINT('',(4.999999888241E-03,2.30676010251E-02,0.));
#799 = LINE('',#800,#801);
#800 = CARTESIAN_POINT('',(4.999999888241E-03,2.30676010251E-02,0.));
#801 = VECTOR('',#802,1.);
#802 = DIRECTION('',(0.60593886568,0.79551121366,0.));
#803 = ORIENTED_EDGE('',*,*,#804,.T.);
#804 = EDGE_CURVE('',#797,#168,#805,.T.);
#805 = LINE('',#806,#807);
#806 = CARTESIAN_POINT('',(4.999999888241E-03,2.30676010251E-02,0.));
#807 = VECTOR('',#808,1.);
#808 = DIRECTION('',(0.,0.,-1.));
#809 = ORIENTED_EDGE('',*,*,#167,.T.);
#810 = ORIENTED_EDGE('',*,*,#782,.F.);
#811 = PLANE('',#812);
#812 = AXIS2_PLACEMENT_3D('',#813,#814,#815);
#813 = CARTESIAN_POINT('',(3.249999927357E-02,5.917117372155E-02,
    -4.999999888241E-03));
#814 = DIRECTION('',(0.79551121366,-0.60593886568,0.));
#815 = DIRECTION('',(0.60593886568,0.79551121366,0.));
#816 = ADVANCED_FACE('',(#817),#835,.T.);
#817 = FACE_BOUND('',#818,.T.);
#818 = EDGE_LOOP('',(#819,#827,#828,#829));
#819 = ORIENTED_EDGE('',*,*,#820,.T.);
#820 = EDGE_CURVE('',#821,#176,#823,.T.);
#821 = VERTEX_POINT('',#822);
#822 = CARTESIAN_POINT('',(4.999999888241E-03,4.999999888241E-03,0.));
#823 = LINE('',#824,#825);
#824 = CARTESIAN_POINT('',(4.999999888241E-03,4.999999888241E-03,0.));
#825 = VECTOR('',#826,1.);
#826 = DIRECTION('',(0.,0.,-1.));
#827 = ORIENTED_EDGE('',*,*,#175,.F.);
#828 = ORIENTED_EDGE('',*,*,#804,.F.);
#829 = ORIENTED_EDGE('',*,*,#830,.F.);
#830 = EDGE_CURVE('',#821,#797,#831,.T.);
#831 = LINE('',#832,#833);
#832 = CARTESIAN_POINT('',(4.999999888241E-03,4.999999888241E-03,0.));
#833 = VECTOR('',#834,1.);
#834 = DIRECTION('',(0.,1.,0.));
#835 = PLANE('',#836);
#836 = AXIS2_PLACEMENT_3D('',#837,#838,#839);
#837 = CARTESIAN_POINT('',(4.999999888241E-03,1.403380045667E-02,
    -4.999999888241E-03));
#838 = DIRECTION('',(1.,0.,0.));
#839 = DIRECTION('',(0.,0.,1.));
#840 = ADVANCED_FACE('',(#841),#859,.T.);
#841 = FACE_BOUND('',#842,.T.);
#842 = EDGE_LOOP('',(#843,#851,#857,#858));
#843 = ORIENTED_EDGE('',*,*,#844,.F.);
#844 = EDGE_CURVE('',#845,#821,#847,.T.);
#845 = VERTEX_POINT('',#846);
#846 = CARTESIAN_POINT('',(2.30676010251E-02,4.999999888241E-03,0.));
#847 = LINE('',#848,#849);
#848 = CARTESIAN_POINT('',(2.30676010251E-02,4.999999888241E-03,0.));
#849 = VECTOR('',#850,1.);
#850 = DIRECTION('',(-1.,0.,0.));
#851 = ORIENTED_EDGE('',*,*,#852,.T.);
#852 = EDGE_CURVE('',#845,#184,#853,.T.);
#853 = LINE('',#854,#855);
#854 = CARTESIAN_POINT('',(2.30676010251E-02,4.999999888241E-03,0.));
#855 = VECTOR('',#856,1.);
#856 = DIRECTION('',(0.,0.,-1.));
#857 = ORIENTED_EDGE('',*,*,#183,.T.);
#858 = ORIENTED_EDGE('',*,*,#820,.F.);
#859 = PLANE('',#860);
#860 = AXIS2_PLACEMENT_3D('',#861,#862,#863);
#861 = CARTESIAN_POINT('',(1.403380045667E-02,4.999999888241E-03,
    -4.999999888241E-03));
#862 = DIRECTION('',(0.,1.,0.));
#863 = DIRECTION('',(0.,0.,1.));
#864 = ADVANCED_FACE('',(#865),#883,.T.);
#865 = FACE_BOUND('',#866,.T.);
#866 = EDGE_LOOP('',(#867,#875,#876,#877));
#867 = ORIENTED_EDGE('',*,*,#868,.F.);
#868 = EDGE_CURVE('',#192,#869,#871,.T.);
#869 = VERTEX_POINT('',#870);
#870 = CARTESIAN_POINT('',(9.5274746418E-02,5.99999986589E-02,0.));
#871 = LINE('',#872,#873);
#872 = CARTESIAN_POINT('',(9.5274746418E-02,5.99999986589E-02,
    -9.999999776483E-03));
#873 = VECTOR('',#874,1.);
#874 = DIRECTION('',(0.,0.,1.));
#875 = ORIENTED_EDGE('',*,*,#191,.T.);
#876 = ORIENTED_EDGE('',*,*,#852,.F.);
#877 = ORIENTED_EDGE('',*,*,#878,.F.);
#878 = EDGE_CURVE('',#869,#845,#879,.T.);
#879 = LINE('',#880,#881);
#880 = CARTESIAN_POINT('',(9.5274746418E-02,5.99999986589E-02,0.));
#881 = VECTOR('',#882,1.);
#882 = DIRECTION('',(-0.79551121366,-0.60593886568,0.));
#883 = PLANE('',#884);
#884 = AXIS2_PLACEMENT_3D('',#885,#886,#887);
#885 = CARTESIAN_POINT('',(5.917117372155E-02,3.249999927357E-02,
    -4.999999888241E-03));
#886 = DIRECTION('',(-0.60593886568,0.79551121366,0.));
#887 = DIRECTION('',(0.79551121366,0.60593886568,0.));
#888 = ADVANCED_FACE('',(#889),#915,.T.);
#889 = FACE_BOUND('',#890,.T.);
#890 = EDGE_LOOP('',(#891,#892,#893,#901,#909));
#891 = ORIENTED_EDGE('',*,*,#199,.F.);
#892 = ORIENTED_EDGE('',*,*,#868,.T.);
#893 = ORIENTED_EDGE('',*,*,#894,.F.);
#894 = EDGE_CURVE('',#895,#869,#897,.T.);
#895 = VERTEX_POINT('',#896);
#896 = CARTESIAN_POINT('',(0.300000011921,5.99999986589E-02,0.));
#897 = LINE('',#898,#899);
#898 = CARTESIAN_POINT('',(0.300000011921,5.99999986589E-02,0.));
#899 = VECTOR('',#900,1.);
#900 = DIRECTION('',(-1.,0.,0.));
#901 = ORIENTED_EDGE('',*,*,#902,.T.);
#902 = EDGE_CURVE('',#895,#903,#905,.T.);
#903 = VERTEX_POINT('',#904);
#904 = CARTESIAN_POINT('',(0.300000011921,5.99999986589E-02,
    -9.999999776483E-03));
#905 = LINE('',#906,#907);
#906 = CARTESIAN_POINT('',(0.300000011921,5.99999986589E-02,0.));
#907 = VECTOR('',#908,1.);
#908 = DIRECTION('',(0.,0.,-1.));
#909 = ORIENTED_EDGE('',*,*,#910,.F.);
#910 = EDGE_CURVE('',#200,#903,#911,.T.);
#911 = LINE('',#912,#913);
#912 = CARTESIAN_POINT('',(9.5274746418E-02,5.99999986589E-02,
    -9.999999776483E-03));
#913 = VECTOR('',#914,1.);
#914 = DIRECTION('',(1.,0.,0.));
#915 = PLANE('',#916);
#916 = AXIS2_PLACEMENT_3D('',#917,#918,#919);
#917 = CARTESIAN_POINT('',(0.197637379169,5.99999986589E-02,
    -4.999999888241E-03));
#918 = DIRECTION('',(0.,1.,0.));
#919 = DIRECTION('',(0.,0.,1.));
#920 = ADVANCED_FACE('',(#921),#958,.T.);
#921 = FACE_BOUND('',#922,.T.);
#922 = EDGE_LOOP('',(#923,#929,#937,#945,#951,#957));
#923 = ORIENTED_EDGE('',*,*,#924,.F.);
#924 = EDGE_CURVE('',#728,#200,#925,.T.);
#925 = LINE('',#926,#927);
#926 = CARTESIAN_POINT('',(0.272000014782,0.272000014782,
    -9.999999776483E-03));
#927 = VECTOR('',#928,1.);
#928 = DIRECTION('',(0.,-1.,0.));
#929 = ORIENTED_EDGE('',*,*,#930,.T.);
#930 = EDGE_CURVE('',#728,#931,#933,.T.);
#931 = VERTEX_POINT('',#932);
#932 = CARTESIAN_POINT('',(0.272000014782,0.271999955177,
    -1.999999955297E-02));
#933 = LINE('',#934,#935);
#934 = CARTESIAN_POINT('',(0.272000014782,0.272000014782,
    -9.999999776483E-03));
#935 = VECTOR('',#936,1.);
#936 = DIRECTION('',(0.,-5.960464610662E-06,-0.999999999982));
#937 = ORIENTED_EDGE('',*,*,#938,.T.);
#938 = EDGE_CURVE('',#931,#939,#941,.T.);
#939 = VERTEX_POINT('',#940);
#940 = CARTESIAN_POINT('',(0.272000014782,-0.27199998498,
    -1.999999955297E-02));
#941 = LINE('',#942,#943);
#942 = CARTESIAN_POINT('',(0.272000014782,0.271999955177,
    -1.999999955297E-02));
#943 = VECTOR('',#944,1.);
#944 = DIRECTION('',(0.,-1.,0.));
#945 = ORIENTED_EDGE('',*,*,#946,.T.);
#946 = EDGE_CURVE('',#939,#317,#947,.T.);
#947 = LINE('',#948,#949);
#948 = CARTESIAN_POINT('',(0.272000014782,-0.27199998498,
    -1.999999955297E-02));
#949 = VECTOR('',#950,1.);
#950 = DIRECTION('',(0.,-2.980232305368E-06,0.999999999996));
#951 = ORIENTED_EDGE('',*,*,#952,.F.);
#952 = EDGE_CURVE('',#208,#317,#953,.T.);
#953 = LINE('',#954,#955);
#954 = CARTESIAN_POINT('',(0.272000014782,0.272000014782,
    -9.999999776483E-03));
#955 = VECTOR('',#956,1.);
#956 = DIRECTION('',(0.,-1.,0.));
#957 = ORIENTED_EDGE('',*,*,#207,.F.);
#958 = PLANE('',#959);
#959 = AXIS2_PLACEMENT_3D('',#960,#961,#962);
#960 = CARTESIAN_POINT('',(0.272000014782,-7.450547285299E-09,
    -1.499999926126E-02));
#961 = DIRECTION('',(-1.,-0.,-0.));
#962 = DIRECTION('',(0.,0.,-1.));
#963 = ADVANCED_FACE('',(#964),#997,.T.);
#964 = FACE_BOUND('',#965,.T.);
#965 = EDGE_LOOP('',(#966,#974,#982,#990,#996));
#966 = ORIENTED_EDGE('',*,*,#967,.F.);
#967 = EDGE_CURVE('',#968,#208,#970,.T.);
#968 = VERTEX_POINT('',#969);
#969 = CARTESIAN_POINT('',(0.300000011921,-5.99999986589E-02,
    -9.999999776483E-03));
#970 = LINE('',#971,#972);
#971 = CARTESIAN_POINT('',(0.300000011921,-5.99999986589E-02,
    -9.999999776483E-03));
#972 = VECTOR('',#973,1.);
#973 = DIRECTION('',(-1.,0.,0.));
#974 = ORIENTED_EDGE('',*,*,#975,.T.);
#975 = EDGE_CURVE('',#968,#976,#978,.T.);
#976 = VERTEX_POINT('',#977);
#977 = CARTESIAN_POINT('',(0.300000011921,-5.99999986589E-02,0.));
#978 = LINE('',#979,#980);
#979 = CARTESIAN_POINT('',(0.300000011921,-5.99999986589E-02,
    -9.999999776483E-03));
#980 = VECTOR('',#981,1.);
#981 = DIRECTION('',(0.,0.,1.));
#982 = ORIENTED_EDGE('',*,*,#983,.F.);
#983 = EDGE_CURVE('',#984,#976,#986,.T.);
#984 = VERTEX_POINT('',#985);
#985 = CARTESIAN_POINT('',(9.5274746418E-02,-5.99999986589E-02,0.));
#986 = LINE('',#987,#988);
#987 = CARTESIAN_POINT('',(9.5274746418E-02,-5.99999986589E-02,0.));
#988 = VECTOR('',#989,1.);
#989 = DIRECTION('',(1.,0.,0.));
#990 = ORIENTED_EDGE('',*,*,#991,.F.);
#991 = EDGE_CURVE('',#216,#984,#992,.T.);
#992 = LINE('',#993,#994);
#993 = CARTESIAN_POINT('',(9.5274746418E-02,-5.99999986589E-02,
    -9.999999776483E-03));
#994 = VECTOR('',#995,1.);
#995 = DIRECTION('',(0.,0.,1.));
#996 = ORIENTED_EDGE('',*,*,#215,.F.);
#997 = PLANE('',#998);
#998 = AXIS2_PLACEMENT_3D('',#999,#1000,#1001);
#999 = CARTESIAN_POINT('',(0.197637379169,-5.99999986589E-02,
    -4.999999888241E-03));
#1000 = DIRECTION('',(-0.,-1.,-0.));
#1001 = DIRECTION('',(0.,0.,-1.));
#1002 = ADVANCED_FACE('',(#1003),#1021,.T.);
#1003 = FACE_BOUND('',#1004,.T.);
#1004 = EDGE_LOOP('',(#1005,#1013,#1019,#1020));
#1005 = ORIENTED_EDGE('',*,*,#1006,.F.);
#1006 = EDGE_CURVE('',#1007,#984,#1009,.T.);
#1007 = VERTEX_POINT('',#1008);
#1008 = CARTESIAN_POINT('',(2.30676010251E-02,-4.999999888241E-03,0.));
#1009 = LINE('',#1010,#1011);
#1010 = CARTESIAN_POINT('',(2.30676010251E-02,-4.999999888241E-03,0.));
#1011 = VECTOR('',#1012,1.);
#1012 = DIRECTION('',(0.79551121366,-0.60593886568,0.));
#1013 = ORIENTED_EDGE('',*,*,#1014,.F.);
#1014 = EDGE_CURVE('',#224,#1007,#1015,.T.);
#1015 = LINE('',#1016,#1017);
#1016 = CARTESIAN_POINT('',(2.30676010251E-02,-4.999999888241E-03,
    -9.999999776483E-03));
#1017 = VECTOR('',#1018,1.);
#1018 = DIRECTION('',(0.,0.,1.));
#1019 = ORIENTED_EDGE('',*,*,#223,.T.);
#1020 = ORIENTED_EDGE('',*,*,#991,.T.);
#1021 = PLANE('',#1022);
#1022 = AXIS2_PLACEMENT_3D('',#1023,#1024,#1025);
#1023 = CARTESIAN_POINT('',(5.917117372155E-02,-3.249999927357E-02,
    -4.999999888241E-03));
#1024 = DIRECTION('',(-0.60593886568,-0.79551121366,-0.));
#1025 = DIRECTION('',(-0.79551121366,0.60593886568,0.));
#1026 = ADVANCED_FACE('',(#1027),#1045,.T.);
#1027 = FACE_BOUND('',#1028,.T.);
#1028 = EDGE_LOOP('',(#1029,#1037,#1038,#1039));
#1029 = ORIENTED_EDGE('',*,*,#1030,.T.);
#1030 = EDGE_CURVE('',#1031,#232,#1033,.T.);
#1031 = VERTEX_POINT('',#1032);
#1032 = CARTESIAN_POINT('',(4.999999888241E-03,-4.999999888241E-03,0.));
#1033 = LINE('',#1034,#1035);
#1034 = CARTESIAN_POINT('',(4.999999888241E-03,-4.999999888241E-03,0.));
#1035 = VECTOR('',#1036,1.);
#1036 = DIRECTION('',(0.,0.,-1.));
#1037 = ORIENTED_EDGE('',*,*,#231,.T.);
#1038 = ORIENTED_EDGE('',*,*,#1014,.T.);
#1039 = ORIENTED_EDGE('',*,*,#1040,.T.);
#1040 = EDGE_CURVE('',#1007,#1031,#1041,.T.);
#1041 = LINE('',#1042,#1043);
#1042 = CARTESIAN_POINT('',(2.30676010251E-02,-4.999999888241E-03,0.));
#1043 = VECTOR('',#1044,1.);
#1044 = DIRECTION('',(-1.,0.,0.));
#1045 = PLANE('',#1046);
#1046 = AXIS2_PLACEMENT_3D('',#1047,#1048,#1049);
#1047 = CARTESIAN_POINT('',(1.403380045667E-02,-4.999999888241E-03,
    -4.999999888241E-03));
#1048 = DIRECTION('',(-0.,-1.,-0.));
#1049 = DIRECTION('',(0.,0.,-1.));
#1050 = ADVANCED_FACE('',(#1051),#1062,.T.);
#1051 = FACE_BOUND('',#1052,.T.);
#1052 = EDGE_LOOP('',(#1053,#1054,#1055,#1056));
#1053 = ORIENTED_EDGE('',*,*,#262,.T.);
#1054 = ORIENTED_EDGE('',*,*,#239,.F.);
#1055 = ORIENTED_EDGE('',*,*,#1030,.F.);
#1056 = ORIENTED_EDGE('',*,*,#1057,.F.);
#1057 = EDGE_CURVE('',#263,#1031,#1058,.T.);
#1058 = LINE('',#1059,#1060);
#1059 = CARTESIAN_POINT('',(4.999999888241E-03,-2.30676010251E-02,0.));
#1060 = VECTOR('',#1061,1.);
#1061 = DIRECTION('',(0.,1.,0.));
#1062 = PLANE('',#1063);
#1063 = AXIS2_PLACEMENT_3D('',#1064,#1065,#1066);
#1064 = CARTESIAN_POINT('',(4.999999888241E-03,-1.403380045667E-02,
    -4.999999888241E-03));
#1065 = DIRECTION('',(1.,0.,0.));
#1066 = DIRECTION('',(0.,0.,1.));
#1067 = ADVANCED_FACE('',(#1068),#1118,.T.);
#1068 = FACE_BOUND('',#1069,.T.);
#1069 = EDGE_LOOP('',(#1070,#1071,#1072,#1078,#1079,#1080,#1081,#1082,
    #1083,#1084,#1090,#1091,#1092,#1093,#1094,#1095,#1096,#1102,#1103,
    #1104,#1105,#1106,#1107,#1108,#1114,#1115,#1116,#1117));
#1070 = ORIENTED_EDGE('',*,*,#609,.F.);
#1071 = ORIENTED_EDGE('',*,*,#577,.T.);
#1072 = ORIENTED_EDGE('',*,*,#1073,.T.);
#1073 = EDGE_CURVE('',#570,#493,#1074,.T.);
#1074 = LINE('',#1075,#1076);
#1075 = CARTESIAN_POINT('',(-0.300000011921,5.99999986589E-02,0.));
#1076 = VECTOR('',#1077,1.);
#1077 = DIRECTION('',(0.,-1.,0.));
#1078 = ORIENTED_EDGE('',*,*,#492,.T.);
#1079 = ORIENTED_EDGE('',*,*,#476,.T.);
#1080 = ORIENTED_EDGE('',*,*,#452,.T.);
#1081 = ORIENTED_EDGE('',*,*,#428,.F.);
#1082 = ORIENTED_EDGE('',*,*,#404,.T.);
#1083 = ORIENTED_EDGE('',*,*,#372,.F.);
#1084 = ORIENTED_EDGE('',*,*,#1085,.F.);
#1085 = EDGE_CURVE('',#287,#365,#1086,.T.);
#1086 = LINE('',#1087,#1088);
#1087 = CARTESIAN_POINT('',(5.99999986589E-02,-0.300000011921,0.));
#1088 = VECTOR('',#1089,1.);
#1089 = DIRECTION('',(-1.,0.,0.));
#1090 = ORIENTED_EDGE('',*,*,#286,.F.);
#1091 = ORIENTED_EDGE('',*,*,#270,.T.);
#1092 = ORIENTED_EDGE('',*,*,#1057,.T.);
#1093 = ORIENTED_EDGE('',*,*,#1040,.F.);
#1094 = ORIENTED_EDGE('',*,*,#1006,.T.);
#1095 = ORIENTED_EDGE('',*,*,#983,.T.);
#1096 = ORIENTED_EDGE('',*,*,#1097,.T.);
#1097 = EDGE_CURVE('',#976,#895,#1098,.T.);
#1098 = LINE('',#1099,#1100);
#1099 = CARTESIAN_POINT('',(0.300000011921,-5.99999986589E-02,0.));
#1100 = VECTOR('',#1101,1.);
#1101 = DIRECTION('',(0.,1.,0.));
#1102 = ORIENTED_EDGE('',*,*,#894,.T.);
#1103 = ORIENTED_EDGE('',*,*,#878,.T.);
#1104 = ORIENTED_EDGE('',*,*,#844,.T.);
#1105 = ORIENTED_EDGE('',*,*,#830,.T.);
#1106 = ORIENTED_EDGE('',*,*,#796,.T.);
#1107 = ORIENTED_EDGE('',*,*,#774,.T.);
#1108 = ORIENTED_EDGE('',*,*,#1109,.T.);
#1109 = EDGE_CURVE('',#767,#706,#1110,.T.);
#1110 = LINE('',#1111,#1112);
#1111 = CARTESIAN_POINT('',(5.99999986589E-02,0.300000011921,0.));
#1112 = VECTOR('',#1113,1.);
#1113 = DIRECTION('',(-1.,0.,0.));
#1114 = ORIENTED_EDGE('',*,*,#705,.T.);
#1115 = ORIENTED_EDGE('',*,*,#681,.T.);
#1116 = ORIENTED_EDGE('',*,*,#647,.T.);
#1117 = ORIENTED_EDGE('',*,*,#623,.T.);
#1118 = PLANE('',#1119);
#1119 = AXIS2_PLACEMENT_3D('',#1120,#1121,#1122);
#1120 = CARTESIAN_POINT('',(4.807004442514E-18,-3.990720669257E-18,0.));
#1121 = DIRECTION('',(0.,0.,1.));
#1122 = DIRECTION('',(1.,0.,0.));
#1123 = ADVANCED_FACE('',(#1124),#1135,.T.);
#1124 = FACE_BOUND('',#1125,.T.);
#1125 = EDGE_LOOP('',(#1126,#1127,#1133,#1134));
#1126 = ORIENTED_EDGE('',*,*,#364,.F.);
#1127 = ORIENTED_EDGE('',*,*,#1128,.T.);
#1128 = EDGE_CURVE('',#357,#295,#1129,.T.);
#1129 = LINE('',#1130,#1131);
#1130 = CARTESIAN_POINT('',(-5.99999986589E-02,-0.300000011921,
    -9.999999776483E-03));
#1131 = VECTOR('',#1132,1.);
#1132 = DIRECTION('',(1.,0.,0.));
#1133 = ORIENTED_EDGE('',*,*,#294,.F.);
#1134 = ORIENTED_EDGE('',*,*,#1085,.T.);
#1135 = PLANE('',#1136);
#1136 = AXIS2_PLACEMENT_3D('',#1137,#1138,#1139);
#1137 = CARTESIAN_POINT('',(0.,-0.300000011921,-4.999999888241E-03));
#1138 = DIRECTION('',(-0.,-1.,-0.));
#1139 = DIRECTION('',(0.,0.,-1.));
#1140 = ADVANCED_FACE('',(#1141),#1170,.T.);
#1141 = FACE_BOUND('',#1142,.T.);
#1142 = EDGE_LOOP('',(#1143,#1151,#1152,#1153,#1154,#1155,#1156,#1164));
#1143 = ORIENTED_EDGE('',*,*,#1144,.F.);
#1144 = EDGE_CURVE('',#317,#1145,#1147,.T.);
#1145 = VERTEX_POINT('',#1146);
#1146 = CARTESIAN_POINT('',(0.272000014782,-0.32800000906,
    -9.999999776483E-03));
#1147 = LINE('',#1148,#1149);
#1148 = CARTESIAN_POINT('',(0.272000014782,-0.272000014782,
    -9.999999776483E-03));
#1149 = VECTOR('',#1150,1.);
#1150 = DIRECTION('',(0.,-1.,0.));
#1151 = ORIENTED_EDGE('',*,*,#341,.T.);
#1152 = ORIENTED_EDGE('',*,*,#302,.T.);
#1153 = ORIENTED_EDGE('',*,*,#1128,.F.);
#1154 = ORIENTED_EDGE('',*,*,#356,.F.);
#1155 = ORIENTED_EDGE('',*,*,#334,.T.);
#1156 = ORIENTED_EDGE('',*,*,#1157,.F.);
#1157 = EDGE_CURVE('',#1158,#327,#1160,.T.);
#1158 = VERTEX_POINT('',#1159);
#1159 = CARTESIAN_POINT('',(-0.272000014782,-0.32800000906,
    -9.999999776483E-03));
#1160 = LINE('',#1161,#1162);
#1161 = CARTESIAN_POINT('',(-0.272000014782,-0.32800000906,
    -9.999999776483E-03));
#1162 = VECTOR('',#1163,1.);
#1163 = DIRECTION('',(0.,1.,0.));
#1164 = ORIENTED_EDGE('',*,*,#1165,.T.);
#1165 = EDGE_CURVE('',#1158,#1145,#1166,.T.);
#1166 = LINE('',#1167,#1168);
#1167 = CARTESIAN_POINT('',(-0.272000014782,-0.32800000906,
    -9.999999776483E-03));
#1168 = VECTOR('',#1169,1.);
#1169 = DIRECTION('',(1.,0.,0.));
#1170 = PLANE('',#1171);
#1171 = AXIS2_PLACEMENT_3D('',#1172,#1173,#1174);
#1172 = CARTESIAN_POINT('',(0.,-0.300000011921,-9.999999776483E-03));
#1173 = DIRECTION('',(0.,0.,1.));
#1174 = DIRECTION('',(1.,0.,0.));
#1175 = ADVANCED_FACE('',(#1176),#1186,.T.);
#1176 = FACE_BOUND('',#1177,.T.);
#1177 = EDGE_LOOP('',(#1178,#1184,#1185));
#1178 = ORIENTED_EDGE('',*,*,#1179,.F.);
#1179 = EDGE_CURVE('',#319,#939,#1180,.T.);
#1180 = LINE('',#1181,#1182);
#1181 = CARTESIAN_POINT('',(-0.271999955177,-0.272000163794,
    -1.999999955297E-02));
#1182 = VECTOR('',#1183,1.);
#1183 = DIRECTION('',(1.,3.2870210331E-07,0.));
#1184 = ORIENTED_EDGE('',*,*,#316,.F.);
#1185 = ORIENTED_EDGE('',*,*,#946,.F.);
#1186 = PLANE('',#1187);
#1187 = AXIS2_PLACEMENT_3D('',#1188,#1189,#1190);
#1188 = CARTESIAN_POINT('',(2.477053745832E-03,-0.272000081091,
    -1.747702360822E-02));
#1189 = DIRECTION('',(-3.287021033081E-07,0.999999999996,
    2.980232305368E-06));
#1190 = DIRECTION('',(3.139601382033E-28,-2.980232305368E-06,
    0.999999999996));
#1191 = ADVANCED_FACE('',(#1192),#1203,.T.);
#1192 = FACE_BOUND('',#1193,.T.);
#1193 = EDGE_LOOP('',(#1194,#1195,#1201,#1202));
#1194 = ORIENTED_EDGE('',*,*,#569,.F.);
#1195 = ORIENTED_EDGE('',*,*,#1196,.F.);
#1196 = EDGE_CURVE('',#501,#562,#1197,.T.);
#1197 = LINE('',#1198,#1199);
#1198 = CARTESIAN_POINT('',(-0.300000011921,-5.99999986589E-02,
    -9.999999776483E-03));
#1199 = VECTOR('',#1200,1.);
#1200 = DIRECTION('',(0.,1.,0.));
#1201 = ORIENTED_EDGE('',*,*,#500,.F.);
#1202 = ORIENTED_EDGE('',*,*,#1073,.F.);
#1203 = PLANE('',#1204);
#1204 = AXIS2_PLACEMENT_3D('',#1205,#1206,#1207);
#1205 = CARTESIAN_POINT('',(-0.300000011921,0.,-4.999999888241E-03));
#1206 = DIRECTION('',(-1.,-0.,-0.));
#1207 = DIRECTION('',(0.,0.,-1.));
#1208 = ADVANCED_FACE('',(#1209),#1238,.T.);
#1209 = FACE_BOUND('',#1210,.T.);
#1210 = EDGE_LOOP('',(#1211,#1219,#1220,#1221,#1222,#1223,#1224,#1232));
#1211 = ORIENTED_EDGE('',*,*,#1212,.F.);
#1212 = EDGE_CURVE('',#327,#1213,#1215,.T.);
#1213 = VERTEX_POINT('',#1214);
#1214 = CARTESIAN_POINT('',(-0.32800000906,-0.272000014782,
    -9.999999776483E-03));
#1215 = LINE('',#1216,#1217);
#1216 = CARTESIAN_POINT('',(-0.272000014782,-0.272000014782,
    -9.999999776483E-03));
#1217 = VECTOR('',#1218,1.);
#1218 = DIRECTION('',(-1.,0.,0.));
#1219 = ORIENTED_EDGE('',*,*,#522,.T.);
#1220 = ORIENTED_EDGE('',*,*,#508,.T.);
#1221 = ORIENTED_EDGE('',*,*,#1196,.T.);
#1222 = ORIENTED_EDGE('',*,*,#561,.F.);
#1223 = ORIENTED_EDGE('',*,*,#545,.T.);
#1224 = ORIENTED_EDGE('',*,*,#1225,.F.);
#1225 = EDGE_CURVE('',#1226,#538,#1228,.T.);
#1226 = VERTEX_POINT('',#1227);
#1227 = CARTESIAN_POINT('',(-0.32800000906,0.272000014782,
    -9.999999776483E-03));
#1228 = LINE('',#1229,#1230);
#1229 = CARTESIAN_POINT('',(-0.32800000906,0.272000014782,
    -9.999999776483E-03));
#1230 = VECTOR('',#1231,1.);
#1231 = DIRECTION('',(1.,0.,0.));
#1232 = ORIENTED_EDGE('',*,*,#1233,.T.);
#1233 = EDGE_CURVE('',#1226,#1213,#1234,.T.);
#1234 = LINE('',#1235,#1236);
#1235 = CARTESIAN_POINT('',(-0.32800000906,0.272000014782,
    -9.999999776483E-03));
#1236 = VECTOR('',#1237,1.);
#1237 = DIRECTION('',(0.,-1.,0.));
#1238 = PLANE('',#1239);
#1239 = AXIS2_PLACEMENT_3D('',#1240,#1241,#1242);
#1240 = CARTESIAN_POINT('',(-0.300000011921,0.,-9.999999776483E-03));
#1241 = DIRECTION('',(0.,0.,1.));
#1242 = DIRECTION('',(1.,0.,0.));
#1243 = ADVANCED_FACE('',(#1244,#1278),#1289,.T.);
#1244 = FACE_BOUND('',#1245,.T.);
#1245 = EDGE_LOOP('',(#1246,#1256,#1264,#1272));
#1246 = ORIENTED_EDGE('',*,*,#1247,.F.);
#1247 = EDGE_CURVE('',#1248,#1250,#1252,.T.);
#1248 = VERTEX_POINT('',#1249);
#1249 = CARTESIAN_POINT('',(-0.32800000906,0.32800000906,
    -1.999999955297E-02));
#1250 = VERTEX_POINT('',#1251);
#1251 = CARTESIAN_POINT('',(-0.32800000906,-0.32800000906,
    -1.999999955297E-02));
#1252 = LINE('',#1253,#1254);
#1253 = CARTESIAN_POINT('',(-0.32800000906,0.32800000906,
    -1.999999955297E-02));
#1254 = VECTOR('',#1255,1.);
#1255 = DIRECTION('',(0.,-1.,0.));
#1256 = ORIENTED_EDGE('',*,*,#1257,.F.);
#1257 = EDGE_CURVE('',#1258,#1248,#1260,.T.);
#1258 = VERTEX_POINT('',#1259);
#1259 = CARTESIAN_POINT('',(0.32800000906,0.32800000906,
    -1.999999955297E-02));
#1260 = LINE('',#1261,#1262);
#1261 = CARTESIAN_POINT('',(0.32800000906,0.32800000906,
    -1.999999955297E-02));
#1262 = VECTOR('',#1263,1.);
#1263 = DIRECTION('',(-1.,0.,0.));
#1264 = ORIENTED_EDGE('',*,*,#1265,.F.);
#1265 = EDGE_CURVE('',#1266,#1258,#1268,.T.);
#1266 = VERTEX_POINT('',#1267);
#1267 = CARTESIAN_POINT('',(0.32800000906,-0.32800000906,
    -1.999999955297E-02));
#1268 = LINE('',#1269,#1270);
#1269 = CARTESIAN_POINT('',(0.32800000906,-0.32800000906,
    -1.999999955297E-02));
#1270 = VECTOR('',#1271,1.);
#1271 = DIRECTION('',(0.,1.,0.));
#1272 = ORIENTED_EDGE('',*,*,#1273,.F.);
#1273 = EDGE_CURVE('',#1250,#1266,#1274,.T.);
#1274 = LINE('',#1275,#1276);
#1275 = CARTESIAN_POINT('',(-0.32800000906,-0.32800000906,
    -1.999999955297E-02));
#1276 = VECTOR('',#1277,1.);
#1277 = DIRECTION('',(1.,0.,0.));
#1278 = FACE_BOUND('',#1279,.T.);
#1279 = EDGE_LOOP('',(#1280,#1281,#1282,#1283));
#1280 = ORIENTED_EDGE('',*,*,#529,.T.);
#1281 = ORIENTED_EDGE('',*,*,#1179,.T.);
#1282 = ORIENTED_EDGE('',*,*,#938,.F.);
#1283 = ORIENTED_EDGE('',*,*,#1284,.F.);
#1284 = EDGE_CURVE('',#530,#931,#1285,.T.);
#1285 = LINE('',#1286,#1287);
#1286 = CARTESIAN_POINT('',(-0.271999955177,0.272000014782,
    -1.999999955297E-02));
#1287 = VECTOR('',#1288,1.);
#1288 = DIRECTION('',(1.,-1.0956736777E-07,0.));
#1289 = PLANE('',#1290);
#1290 = AXIS2_PLACEMENT_3D('',#1291,#1292,#1293);
#1291 = CARTESIAN_POINT('',(0.,0.,-1.999999955297E-02));
#1292 = DIRECTION('',(-0.,-0.,-1.));
#1293 = DIRECTION('',(-1.,0.,0.));
#1294 = ADVANCED_FACE('',(#1295),#1329,.T.);
#1295 = FACE_BOUND('',#1296,.T.);
#1296 = EDGE_LOOP('',(#1297,#1305,#1306,#1307,#1313,#1314,#1315,#1323));
#1297 = ORIENTED_EDGE('',*,*,#1298,.F.);
#1298 = EDGE_CURVE('',#538,#1299,#1301,.T.);
#1299 = VERTEX_POINT('',#1300);
#1300 = CARTESIAN_POINT('',(-0.272000014782,0.32800000906,
    -9.999999776483E-03));
#1301 = LINE('',#1302,#1303);
#1302 = CARTESIAN_POINT('',(-0.272000014782,0.272000014782,
    -9.999999776483E-03));
#1303 = VECTOR('',#1304,1.);
#1304 = DIRECTION('',(0.,1.,0.));
#1305 = ORIENTED_EDGE('',*,*,#742,.T.);
#1306 = ORIENTED_EDGE('',*,*,#695,.F.);
#1307 = ORIENTED_EDGE('',*,*,#1308,.F.);
#1308 = EDGE_CURVE('',#759,#696,#1309,.T.);
#1309 = LINE('',#1310,#1311);
#1310 = CARTESIAN_POINT('',(5.99999986589E-02,0.300000011921,
    -9.999999776483E-03));
#1311 = VECTOR('',#1312,1.);
#1312 = DIRECTION('',(-1.,0.,0.));
#1313 = ORIENTED_EDGE('',*,*,#758,.F.);
#1314 = ORIENTED_EDGE('',*,*,#735,.T.);
#1315 = ORIENTED_EDGE('',*,*,#1316,.F.);
#1316 = EDGE_CURVE('',#1317,#728,#1319,.T.);
#1317 = VERTEX_POINT('',#1318);
#1318 = CARTESIAN_POINT('',(0.272000014782,0.32800000906,
    -9.999999776483E-03));
#1319 = LINE('',#1320,#1321);
#1320 = CARTESIAN_POINT('',(0.272000014782,0.32800000906,
    -9.999999776483E-03));
#1321 = VECTOR('',#1322,1.);
#1322 = DIRECTION('',(0.,-1.,0.));
#1323 = ORIENTED_EDGE('',*,*,#1324,.T.);
#1324 = EDGE_CURVE('',#1317,#1299,#1325,.T.);
#1325 = LINE('',#1326,#1327);
#1326 = CARTESIAN_POINT('',(0.272000014782,0.32800000906,
    -9.999999776483E-03));
#1327 = VECTOR('',#1328,1.);
#1328 = DIRECTION('',(-1.,0.,0.));
#1329 = PLANE('',#1330);
#1330 = AXIS2_PLACEMENT_3D('',#1331,#1332,#1333);
#1331 = CARTESIAN_POINT('',(0.,0.300000011921,-9.999999776483E-03));
#1332 = DIRECTION('',(0.,0.,1.));
#1333 = DIRECTION('',(1.,0.,0.));
#1334 = ADVANCED_FACE('',(#1335),#1341,.T.);
#1335 = FACE_BOUND('',#1336,.T.);
#1336 = EDGE_LOOP('',(#1337,#1338,#1339,#1340));
#1337 = ORIENTED_EDGE('',*,*,#766,.F.);
#1338 = ORIENTED_EDGE('',*,*,#1308,.T.);
#1339 = ORIENTED_EDGE('',*,*,#713,.F.);
#1340 = ORIENTED_EDGE('',*,*,#1109,.F.);
#1341 = PLANE('',#1342);
#1342 = AXIS2_PLACEMENT_3D('',#1343,#1344,#1345);
#1343 = CARTESIAN_POINT('',(0.,0.300000011921,-4.999999888241E-03));
#1344 = DIRECTION('',(0.,1.,0.));
#1345 = DIRECTION('',(0.,0.,1.));
#1346 = ADVANCED_FACE('',(#1347),#1352,.T.);
#1347 = FACE_BOUND('',#1348,.T.);
#1348 = EDGE_LOOP('',(#1349,#1350,#1351));
#1349 = ORIENTED_EDGE('',*,*,#930,.F.);
#1350 = ORIENTED_EDGE('',*,*,#727,.F.);
#1351 = ORIENTED_EDGE('',*,*,#1284,.T.);
#1352 = PLANE('',#1353);
#1353 = AXIS2_PLACEMENT_3D('',#1354,#1355,#1356);
#1354 = CARTESIAN_POINT('',(2.477053745865E-03,0.271999999746,
    -1.747702360822E-02));
#1355 = DIRECTION('',(-1.09567367768E-07,-0.999999999982,
    5.960464610662E-06));
#1356 = DIRECTION('',(2.534382181077E-28,-5.960464610662E-06,
    -0.999999999982));
#1357 = ADVANCED_FACE('',(#1358),#1369,.T.);
#1358 = FACE_BOUND('',#1359,.T.);
#1359 = EDGE_LOOP('',(#1360,#1361,#1367,#1368));
#1360 = ORIENTED_EDGE('',*,*,#975,.F.);
#1361 = ORIENTED_EDGE('',*,*,#1362,.F.);
#1362 = EDGE_CURVE('',#903,#968,#1363,.T.);
#1363 = LINE('',#1364,#1365);
#1364 = CARTESIAN_POINT('',(0.300000011921,5.99999986589E-02,
    -9.999999776483E-03));
#1365 = VECTOR('',#1366,1.);
#1366 = DIRECTION('',(0.,-1.,0.));
#1367 = ORIENTED_EDGE('',*,*,#902,.F.);
#1368 = ORIENTED_EDGE('',*,*,#1097,.F.);
#1369 = PLANE('',#1370);
#1370 = AXIS2_PLACEMENT_3D('',#1371,#1372,#1373);
#1371 = CARTESIAN_POINT('',(0.300000011921,0.,-4.999999888241E-03));
#1372 = DIRECTION('',(1.,0.,0.));
#1373 = DIRECTION('',(0.,0.,1.));
#1374 = ADVANCED_FACE('',(#1375),#1404,.T.);
#1375 = FACE_BOUND('',#1376,.T.);
#1376 = EDGE_LOOP('',(#1377,#1385,#1393,#1399,#1400,#1401,#1402,#1403));
#1377 = ORIENTED_EDGE('',*,*,#1378,.F.);
#1378 = EDGE_CURVE('',#1379,#317,#1381,.T.);
#1379 = VERTEX_POINT('',#1380);
#1380 = CARTESIAN_POINT('',(0.32800000906,-0.272000014782,
    -9.999999776483E-03));
#1381 = LINE('',#1382,#1383);
#1382 = CARTESIAN_POINT('',(0.32800000906,-0.272000014782,
    -9.999999776483E-03));
#1383 = VECTOR('',#1384,1.);
#1384 = DIRECTION('',(-1.,0.,0.));
#1385 = ORIENTED_EDGE('',*,*,#1386,.T.);
#1386 = EDGE_CURVE('',#1379,#1387,#1389,.T.);
#1387 = VERTEX_POINT('',#1388);
#1388 = CARTESIAN_POINT('',(0.32800000906,0.272000014782,
    -9.999999776483E-03));
#1389 = LINE('',#1390,#1391);
#1390 = CARTESIAN_POINT('',(0.32800000906,-0.272000014782,
    -9.999999776483E-03));
#1391 = VECTOR('',#1392,1.);
#1392 = DIRECTION('',(0.,1.,0.));
#1393 = ORIENTED_EDGE('',*,*,#1394,.F.);
#1394 = EDGE_CURVE('',#728,#1387,#1395,.T.);
#1395 = LINE('',#1396,#1397);
#1396 = CARTESIAN_POINT('',(0.272000014782,0.272000014782,
    -9.999999776483E-03));
#1397 = VECTOR('',#1398,1.);
#1398 = DIRECTION('',(1.,0.,0.));
#1399 = ORIENTED_EDGE('',*,*,#924,.T.);
#1400 = ORIENTED_EDGE('',*,*,#910,.T.);
#1401 = ORIENTED_EDGE('',*,*,#1362,.T.);
#1402 = ORIENTED_EDGE('',*,*,#967,.T.);
#1403 = ORIENTED_EDGE('',*,*,#952,.T.);
#1404 = PLANE('',#1405);
#1405 = AXIS2_PLACEMENT_3D('',#1406,#1407,#1408);
#1406 = CARTESIAN_POINT('',(0.300000011921,0.,-9.999999776483E-03));
#1407 = DIRECTION('',(0.,0.,1.));
#1408 = DIRECTION('',(1.,0.,0.));
#1409 = ADVANCED_FACE('',(#1410),#1428,.T.);
#1410 = FACE_BOUND('',#1411,.T.);
#1411 = EDGE_LOOP('',(#1412,#1413,#1414,#1422));
#1412 = ORIENTED_EDGE('',*,*,#1378,.T.);
#1413 = ORIENTED_EDGE('',*,*,#1144,.T.);
#1414 = ORIENTED_EDGE('',*,*,#1415,.F.);
#1415 = EDGE_CURVE('',#1416,#1145,#1418,.T.);
#1416 = VERTEX_POINT('',#1417);
#1417 = CARTESIAN_POINT('',(0.32800000906,-0.32800000906,-1.E-02));
#1418 = LINE('',#1419,#1420);
#1419 = CARTESIAN_POINT('',(-0.3,-0.32800000906,-1.E-02));
#1420 = VECTOR('',#1421,1.);
#1421 = DIRECTION('',(-1.,0.,0.));
#1422 = ORIENTED_EDGE('',*,*,#1423,.F.);
#1423 = EDGE_CURVE('',#1379,#1416,#1424,.T.);
#1424 = LINE('',#1425,#1426);
#1425 = CARTESIAN_POINT('',(0.32800000906,-0.3,-1.E-02));
#1426 = VECTOR('',#1427,1.);
#1427 = DIRECTION('',(0.,-1.,0.));
#1428 = PLANE('',#1429);
#1429 = AXIS2_PLACEMENT_3D('',#1430,#1431,#1432);
#1430 = CARTESIAN_POINT('',(-0.6,-0.6,-1.E-02));
#1431 = DIRECTION('',(0.,0.,1.));
#1432 = DIRECTION('',(1.,0.,0.));
#1433 = ADVANCED_FACE('',(#1434),#1452,.T.);
#1434 = FACE_BOUND('',#1435,.T.);
#1435 = EDGE_LOOP('',(#1436,#1444,#1445,#1446));
#1436 = ORIENTED_EDGE('',*,*,#1437,.F.);
#1437 = EDGE_CURVE('',#1158,#1438,#1440,.T.);
#1438 = VERTEX_POINT('',#1439);
#1439 = CARTESIAN_POINT('',(-0.32800000906,-0.32800000906,-1.E-02));
#1440 = LINE('',#1441,#1442);
#1441 = CARTESIAN_POINT('',(-0.3,-0.32800000906,-1.E-02));
#1442 = VECTOR('',#1443,1.);
#1443 = DIRECTION('',(-1.,0.,0.));
#1444 = ORIENTED_EDGE('',*,*,#1157,.T.);
#1445 = ORIENTED_EDGE('',*,*,#1212,.T.);
#1446 = ORIENTED_EDGE('',*,*,#1447,.F.);
#1447 = EDGE_CURVE('',#1438,#1213,#1448,.T.);
#1448 = LINE('',#1449,#1450);
#1449 = CARTESIAN_POINT('',(-0.32800000906,-0.3,-1.E-02));
#1450 = VECTOR('',#1451,1.);
#1451 = DIRECTION('',(0.,1.,0.));
#1452 = PLANE('',#1453);
#1453 = AXIS2_PLACEMENT_3D('',#1454,#1455,#1456);
#1454 = CARTESIAN_POINT('',(-0.6,-0.6,-1.E-02));
#1455 = DIRECTION('',(0.,0.,1.));
#1456 = DIRECTION('',(1.,0.,0.));
#1457 = ADVANCED_FACE('',(#1458),#1476,.T.);
#1458 = FACE_BOUND('',#1459,.T.);
#1459 = EDGE_LOOP('',(#1460,#1466,#1467,#1468,#1469,#1475));
#1460 = ORIENTED_EDGE('',*,*,#1461,.F.);
#1461 = EDGE_CURVE('',#1416,#1266,#1462,.T.);
#1462 = LINE('',#1463,#1464);
#1463 = CARTESIAN_POINT('',(0.32800000906,-0.32800000906,0.287999987602)
  );
#1464 = VECTOR('',#1465,1.);
#1465 = DIRECTION('',(0.,0.,-1.));
#1466 = ORIENTED_EDGE('',*,*,#1415,.T.);
#1467 = ORIENTED_EDGE('',*,*,#1165,.F.);
#1468 = ORIENTED_EDGE('',*,*,#1437,.T.);
#1469 = ORIENTED_EDGE('',*,*,#1470,.F.);
#1470 = EDGE_CURVE('',#1250,#1438,#1471,.T.);
#1471 = LINE('',#1472,#1473);
#1472 = CARTESIAN_POINT('',(-0.32800000906,-0.32800000906,
    -1.999999955297E-02));
#1473 = VECTOR('',#1474,1.);
#1474 = DIRECTION('',(0.,0.,1.));
#1475 = ORIENTED_EDGE('',*,*,#1273,.T.);
#1476 = PLANE('',#1477);
#1477 = AXIS2_PLACEMENT_3D('',#1478,#1479,#1480);
#1478 = CARTESIAN_POINT('',(0.,-0.32800000906,7.095244922938E-02));
#1479 = DIRECTION('',(-0.,-1.,-0.));
#1480 = DIRECTION('',(0.,0.,-1.));
#1481 = ADVANCED_FACE('',(#1482),#1500,.T.);
#1482 = FACE_BOUND('',#1483,.T.);
#1483 = EDGE_LOOP('',(#1484,#1492,#1493,#1494));
#1484 = ORIENTED_EDGE('',*,*,#1485,.F.);
#1485 = EDGE_CURVE('',#1226,#1486,#1488,.T.);
#1486 = VERTEX_POINT('',#1487);
#1487 = CARTESIAN_POINT('',(-0.32800000906,0.32800000906,-1.E-02));
#1488 = LINE('',#1489,#1490);
#1489 = CARTESIAN_POINT('',(-0.32800000906,-0.3,-1.E-02));
#1490 = VECTOR('',#1491,1.);
#1491 = DIRECTION('',(0.,1.,0.));
#1492 = ORIENTED_EDGE('',*,*,#1225,.T.);
#1493 = ORIENTED_EDGE('',*,*,#1298,.T.);
#1494 = ORIENTED_EDGE('',*,*,#1495,.F.);
#1495 = EDGE_CURVE('',#1486,#1299,#1496,.T.);
#1496 = LINE('',#1497,#1498);
#1497 = CARTESIAN_POINT('',(-0.3,0.32800000906,-1.E-02));
#1498 = VECTOR('',#1499,1.);
#1499 = DIRECTION('',(1.,0.,0.));
#1500 = PLANE('',#1501);
#1501 = AXIS2_PLACEMENT_3D('',#1502,#1503,#1504);
#1502 = CARTESIAN_POINT('',(-0.6,-0.6,-1.E-02));
#1503 = DIRECTION('',(0.,0.,1.));
#1504 = DIRECTION('',(1.,0.,0.));
#1505 = ADVANCED_FACE('',(#1506),#1519,.T.);
#1506 = FACE_BOUND('',#1507,.T.);
#1507 = EDGE_LOOP('',(#1508,#1514,#1515,#1516,#1517,#1518));
#1508 = ORIENTED_EDGE('',*,*,#1509,.F.);
#1509 = EDGE_CURVE('',#1248,#1486,#1510,.T.);
#1510 = LINE('',#1511,#1512);
#1511 = CARTESIAN_POINT('',(-0.32800000906,0.32800000906,0.279360294342)
  );
#1512 = VECTOR('',#1513,1.);
#1513 = DIRECTION('',(0.,0.,1.));
#1514 = ORIENTED_EDGE('',*,*,#1247,.T.);
#1515 = ORIENTED_EDGE('',*,*,#1470,.T.);
#1516 = ORIENTED_EDGE('',*,*,#1447,.T.);
#1517 = ORIENTED_EDGE('',*,*,#1233,.F.);
#1518 = ORIENTED_EDGE('',*,*,#1485,.T.);
#1519 = PLANE('',#1520);
#1520 = AXIS2_PLACEMENT_3D('',#1521,#1522,#1523);
#1521 = CARTESIAN_POINT('',(-0.32800000906,0.,7.095244922938E-02));
#1522 = DIRECTION('',(-1.,-0.,-0.));
#1523 = DIRECTION('',(0.,0.,-1.));
#1524 = ADVANCED_FACE('',(#1525),#1545,.T.);
#1525 = FACE_BOUND('',#1526,.T.);
#1526 = EDGE_LOOP('',(#1527,#1535,#1536,#1537,#1538,#1539));
#1527 = ORIENTED_EDGE('',*,*,#1528,.T.);
#1528 = EDGE_CURVE('',#1529,#1258,#1531,.T.);
#1529 = VERTEX_POINT('',#1530);
#1530 = CARTESIAN_POINT('',(0.32800000906,0.32800000906,-1.E-02));
#1531 = LINE('',#1532,#1533);
#1532 = CARTESIAN_POINT('',(0.32800000906,0.32800000906,0.287999987602)
  );
#1533 = VECTOR('',#1534,1.);
#1534 = DIRECTION('',(0.,0.,-1.));
#1535 = ORIENTED_EDGE('',*,*,#1257,.T.);
#1536 = ORIENTED_EDGE('',*,*,#1509,.T.);
#1537 = ORIENTED_EDGE('',*,*,#1495,.T.);
#1538 = ORIENTED_EDGE('',*,*,#1324,.F.);
#1539 = ORIENTED_EDGE('',*,*,#1540,.T.);
#1540 = EDGE_CURVE('',#1317,#1529,#1541,.T.);
#1541 = LINE('',#1542,#1543);
#1542 = CARTESIAN_POINT('',(-0.3,0.32800000906,-1.E-02));
#1543 = VECTOR('',#1544,1.);
#1544 = DIRECTION('',(1.,0.,0.));
#1545 = PLANE('',#1546);
#1546 = AXIS2_PLACEMENT_3D('',#1547,#1548,#1549);
#1547 = CARTESIAN_POINT('',(0.,0.32800000906,7.095244922938E-02));
#1548 = DIRECTION('',(0.,1.,0.));
#1549 = DIRECTION('',(0.,0.,1.));
#1550 = ADVANCED_FACE('',(#1551),#1564,.T.);
#1551 = FACE_BOUND('',#1552,.T.);
#1552 = EDGE_LOOP('',(#1553,#1554,#1560,#1561,#1562,#1563));
#1553 = ORIENTED_EDGE('',*,*,#1528,.F.);
#1554 = ORIENTED_EDGE('',*,*,#1555,.T.);
#1555 = EDGE_CURVE('',#1529,#1387,#1556,.T.);
#1556 = LINE('',#1557,#1558);
#1557 = CARTESIAN_POINT('',(0.32800000906,-0.3,-1.E-02));
#1558 = VECTOR('',#1559,1.);
#1559 = DIRECTION('',(0.,-1.,0.));
#1560 = ORIENTED_EDGE('',*,*,#1386,.F.);
#1561 = ORIENTED_EDGE('',*,*,#1423,.T.);
#1562 = ORIENTED_EDGE('',*,*,#1461,.T.);
#1563 = ORIENTED_EDGE('',*,*,#1265,.T.);
#1564 = PLANE('',#1565);
#1565 = AXIS2_PLACEMENT_3D('',#1566,#1567,#1568);
#1566 = CARTESIAN_POINT('',(0.32800000906,0.,7.095244922938E-02));
#1567 = DIRECTION('',(1.,0.,0.));
#1568 = DIRECTION('',(0.,0.,1.));
#1569 = ADVANCED_FACE('',(#1570),#1576,.T.);
#1570 = FACE_BOUND('',#1571,.T.);
#1571 = EDGE_LOOP('',(#1572,#1573,#1574,#1575));
#1572 = ORIENTED_EDGE('',*,*,#1394,.T.);
#1573 = ORIENTED_EDGE('',*,*,#1555,.F.);
#1574 = ORIENTED_EDGE('',*,*,#1540,.F.);
#1575 = ORIENTED_EDGE('',*,*,#1316,.T.);
#1576 = PLANE('',#1577);
#1577 = AXIS2_PLACEMENT_3D('',#1578,#1579,#1580);
#1578 = CARTESIAN_POINT('',(-0.6,-0.6,-1.E-02));
#1579 = DIRECTION('',(0.,0.,1.));
#1580 = DIRECTION('',(1.,0.,0.));
#1581 = ( GEOMETRIC_REPRESENTATION_CONTEXT(3) 
GLOBAL_UNCERTAINTY_ASSIGNED_CONTEXT((#1585)) 
GLOBAL_UNIT_ASSIGNED_CONTEXT((#1582,#1583,#1584)) REPRESENTATION_CONTEXT
('Context #1','3D Context with UNIT and UNCERTAINTY') );
#1582 = ( LENGTH_UNIT() NAMED_UNIT(*) SI_UNIT(.MILLI.,.METRE.) );
#1583 = ( NAMED_UNIT(*) PLANE_ANGLE_UNIT() SI_UNIT($,.RADIAN.) );
#1584 = ( NAMED_UNIT(*) SI_UNIT($,.STERADIAN.) SOLID_ANGLE_UNIT() );
#1585 = UNCERTAINTY_MEASURE_WITH_UNIT(LENGTH_MEASURE(1.E-07),#1582,
  'distance_accuracy_value','confusion accuracy');
#1586 = PRODUCT_RELATED_PRODUCT_CATEGORY('part',$,(#7));
#1587 = MECHANICAL_DESIGN_GEOMETRIC_PRESENTATION_REPRESENTATION('',(
    #1588),#1581);
#1588 = STYLED_ITEM('color',(#1589),#15);
#1589 = PRESENTATION_STYLE_ASSIGNMENT((#1590,#1596));
#1590 = SURFACE_STYLE_USAGE(.BOTH.,#1591);
#1591 = SURFACE_SIDE_STYLE('',(#1592));
#1592 = SURFACE_STYLE_FILL_AREA(#1593);
#1593 = FILL_AREA_STYLE('',(#1594));
#1594 = FILL_AREA_STYLE_COLOUR('',#1595);
#1595 = COLOUR_RGB('',0.447059003357,0.474510015008,0.501960993452);
#1596 = CURVE_STYLE('',#1597,POSITIVE_LENGTH_MEASURE(0.1),#1598);
#1597 = DRAUGHTING_PRE_DEFINED_CURVE_FONT('continuous');
#1598 = COLOUR_RGB('',9.803921802644E-02,9.803921802644E-02,
  9.803921802644E-02);
ENDSEC;
END-ISO-10303-21;
