ISO-10303-21;
HEADER;
FILE_DESCRIPTION(('FreeCAD Model'),'2;1');
FILE_NAME('Open CASCADE Shape Model','2026-05-21T14:51:01',('Author'),(
    ''),'Open CASCADE STEP processor 7.8','FreeCAD','Unknown');
FILE_SCHEMA(('AUTOMOTIVE_DESIGN { 1 0 10303 214 1 1 1 1 }'));
ENDSEC;
DATA;
#1 = APPLICATION_PROTOCOL_DEFINITION('international standard',
  'automotive_design',2000,#2);
#2 = APPLICATION_CONTEXT(
  'core data for automotive mechanical design processes');
#3 = SHAPE_DEFINITION_REPRESENTATION(#4,#10);
#4 = PRODUCT_DEFINITION_SHAPE('','',#5);
#5 = PRODUCT_DEFINITION('design','',#6,#9);
#6 = PRODUCT_DEFINITION_FORMATION('','',#7);
#7 = PRODUCT('Y-junction v017','Y-junction v017','',(#8));
#8 = PRODUCT_CONTEXT('',#2,'mechanical');
#9 = PRODUCT_DEFINITION_CONTEXT('part definition',#2,'design');
#10 = ADVANCED_BREP_SHAPE_REPRESENTATION('',(#11,#15),#660);
#11 = AXIS2_PLACEMENT_3D('',#12,#13,#14);
#12 = CARTESIAN_POINT('',(0.,0.,0.));
#13 = DIRECTION('',(0.,0.,1.));
#14 = DIRECTION('',(1.,0.,-0.));
#15 = MANIFOLD_SOLID_BREP('',#16);
#16 = CLOSED_SHELL('',(#17,#57,#97,#128,#159,#190,#221,#252,#283,#314,
    #345,#376,#407,#438,#460,#500,#531,#562,#584,#606,#633));
#17 = ADVANCED_FACE('',(#18),#52,.T.);
#18 = FACE_BOUND('',#19,.T.);
#19 = EDGE_LOOP('',(#20,#30,#38,#46));
#20 = ORIENTED_EDGE('',*,*,#21,.T.);
#21 = EDGE_CURVE('',#22,#24,#26,.T.);
#22 = VERTEX_POINT('',#23);
#23 = CARTESIAN_POINT('',(2.505717967696,3.E-02,-2.503301270189));
#24 = VERTEX_POINT('',#25);
#25 = CARTESIAN_POINT('',(2.505717967696,4.E-02,-2.503301270189));
#26 = LINE('',#27,#28);
#27 = CARTESIAN_POINT('',(2.505717967696,3.E-02,-2.503301270189));
#28 = VECTOR('',#29,1.);
#29 = DIRECTION('',(0.,1.,0.));
#30 = ORIENTED_EDGE('',*,*,#31,.F.);
#31 = EDGE_CURVE('',#32,#24,#34,.T.);
#32 = VERTEX_POINT('',#33);
#33 = CARTESIAN_POINT('',(2.594301818168,4.E-02,-2.503289846813));
#34 = LINE('',#35,#36);
#35 = CARTESIAN_POINT('',(2.594301818168,4.E-02,-2.503289846813));
#36 = VECTOR('',#37,1.);
#37 = DIRECTION('',(-1.,0.,7.633330049129E-12));
#38 = ORIENTED_EDGE('',*,*,#39,.F.);
#39 = EDGE_CURVE('',#40,#32,#42,.T.);
#40 = VERTEX_POINT('',#41);
#41 = CARTESIAN_POINT('',(2.594301818168,3.E-02,-2.503289846813));
#42 = LINE('',#43,#44);
#43 = CARTESIAN_POINT('',(2.594301818168,3.E-02,-2.503289846813));
#44 = VECTOR('',#45,1.);
#45 = DIRECTION('',(0.,1.,0.));
#46 = ORIENTED_EDGE('',*,*,#47,.T.);
#47 = EDGE_CURVE('',#40,#22,#48,.T.);
#48 = LINE('',#49,#50);
#49 = CARTESIAN_POINT('',(2.594301818168,3.E-02,-2.503289846813));
#50 = VECTOR('',#51,1.);
#51 = DIRECTION('',(-1.,0.,7.633330049129E-12));
#52 = PLANE('',#53);
#53 = AXIS2_PLACEMENT_3D('',#54,#55,#56);
#54 = CARTESIAN_POINT('',(2.594301818168,3.E-02,-2.503289846813));
#55 = DIRECTION('',(-7.633330049129E-12,0.,-1.));
#56 = DIRECTION('',(-1.,0.,7.633330049129E-12));
#57 = ADVANCED_FACE('',(#58),#92,.T.);
#58 = FACE_BOUND('',#59,.T.);
#59 = EDGE_LOOP('',(#60,#70,#78,#86));
#60 = ORIENTED_EDGE('',*,*,#61,.T.);
#61 = EDGE_CURVE('',#62,#64,#66,.T.);
#62 = VERTEX_POINT('',#63);
#63 = CARTESIAN_POINT('',(2.455717967697,3.E-02,-2.416698729811));
#64 = VERTEX_POINT('',#65);
#65 = CARTESIAN_POINT('',(2.499942801317,3.E-02,-2.4932983886));
#66 = LINE('',#67,#68);
#67 = CARTESIAN_POINT('',(2.455717967697,3.E-02,-2.416698729811));
#68 = VECTOR('',#69,1.);
#69 = DIRECTION('',(0.499999999993,0.,-0.866025403788));
#70 = ORIENTED_EDGE('',*,*,#71,.T.);
#71 = EDGE_CURVE('',#64,#72,#74,.T.);
#72 = VERTEX_POINT('',#73);
#73 = CARTESIAN_POINT('',(2.499942801317,4.E-02,-2.4932983886));
#74 = LINE('',#75,#76);
#75 = CARTESIAN_POINT('',(2.499942801317,3.E-02,-2.4932983886));
#76 = VECTOR('',#77,1.);
#77 = DIRECTION('',(0.,1.,0.));
#78 = ORIENTED_EDGE('',*,*,#79,.F.);
#79 = EDGE_CURVE('',#80,#72,#82,.T.);
#80 = VERTEX_POINT('',#81);
#81 = CARTESIAN_POINT('',(2.455717967697,4.E-02,-2.416698729811));
#82 = LINE('',#83,#84);
#83 = CARTESIAN_POINT('',(2.455717967697,4.E-02,-2.416698729811));
#84 = VECTOR('',#85,1.);
#85 = DIRECTION('',(0.499999999993,0.,-0.866025403788));
#86 = ORIENTED_EDGE('',*,*,#87,.F.);
#87 = EDGE_CURVE('',#62,#80,#88,.T.);
#88 = LINE('',#89,#90);
#89 = CARTESIAN_POINT('',(2.455717967697,3.E-02,-2.416698729811));
#90 = VECTOR('',#91,1.);
#91 = DIRECTION('',(0.,1.,0.));
#92 = PLANE('',#93);
#93 = AXIS2_PLACEMENT_3D('',#94,#95,#96);
#94 = CARTESIAN_POINT('',(2.455717967697,3.E-02,-2.416698729811));
#95 = DIRECTION('',(0.866025403788,0.,0.499999999993));
#96 = DIRECTION('',(0.499999999993,0.,-0.866025403788));
#97 = ADVANCED_FACE('',(#98),#123,.T.);
#98 = FACE_BOUND('',#99,.T.);
#99 = EDGE_LOOP('',(#100,#108,#109,#117));
#100 = ORIENTED_EDGE('',*,*,#101,.F.);
#101 = EDGE_CURVE('',#62,#102,#104,.T.);
#102 = VERTEX_POINT('',#103);
#103 = CARTESIAN_POINT('',(2.195910346561,3.E-02,-2.266698729812));
#104 = LINE('',#105,#106);
#105 = CARTESIAN_POINT('',(2.455717967697,3.E-02,-2.416698729811));
#106 = VECTOR('',#107,1.);
#107 = DIRECTION('',(-0.866025403785,0.,0.499999999999));
#108 = ORIENTED_EDGE('',*,*,#87,.T.);
#109 = ORIENTED_EDGE('',*,*,#110,.F.);
#110 = EDGE_CURVE('',#111,#80,#113,.T.);
#111 = VERTEX_POINT('',#112);
#112 = CARTESIAN_POINT('',(2.195910346561,4.E-02,-2.266698729812));
#113 = LINE('',#114,#115);
#114 = CARTESIAN_POINT('',(2.455717967697,4.E-02,-2.416698729811));
#115 = VECTOR('',#116,1.);
#116 = DIRECTION('',(0.866025403785,0.,-0.499999999999));
#117 = ORIENTED_EDGE('',*,*,#118,.F.);
#118 = EDGE_CURVE('',#102,#111,#119,.T.);
#119 = LINE('',#120,#121);
#120 = CARTESIAN_POINT('',(2.195910346561,3.E-02,-2.266698729812));
#121 = VECTOR('',#122,1.);
#122 = DIRECTION('',(0.,1.,0.));
#123 = PLANE('',#124);
#124 = AXIS2_PLACEMENT_3D('',#125,#126,#127);
#125 = CARTESIAN_POINT('',(2.195910346561,3.E-02,-2.266698729812));
#126 = DIRECTION('',(0.499999999999,0.,0.866025403785));
#127 = DIRECTION('',(0.866025403785,0.,-0.499999999999));
#128 = ADVANCED_FACE('',(#129),#154,.T.);
#129 = FACE_BOUND('',#130,.T.);
#130 = EDGE_LOOP('',(#131,#139,#140,#148));
#131 = ORIENTED_EDGE('',*,*,#132,.F.);
#132 = EDGE_CURVE('',#102,#133,#135,.T.);
#133 = VERTEX_POINT('',#134);
#134 = CARTESIAN_POINT('',(2.145910346561,3.E-02,-2.35330127019));
#135 = LINE('',#136,#137);
#136 = CARTESIAN_POINT('',(2.195910346561,3.E-02,-2.266698729812));
#137 = VECTOR('',#138,1.);
#138 = DIRECTION('',(-0.5,0.,-0.866025403784));
#139 = ORIENTED_EDGE('',*,*,#118,.T.);
#140 = ORIENTED_EDGE('',*,*,#141,.F.);
#141 = EDGE_CURVE('',#142,#111,#144,.T.);
#142 = VERTEX_POINT('',#143);
#143 = CARTESIAN_POINT('',(2.145910346561,4.E-02,-2.35330127019));
#144 = LINE('',#145,#146);
#145 = CARTESIAN_POINT('',(2.195910346561,4.E-02,-2.266698729812));
#146 = VECTOR('',#147,1.);
#147 = DIRECTION('',(0.5,0.,0.866025403784));
#148 = ORIENTED_EDGE('',*,*,#149,.F.);
#149 = EDGE_CURVE('',#133,#142,#150,.T.);
#150 = LINE('',#151,#152);
#151 = CARTESIAN_POINT('',(2.145910346561,3.E-02,-2.35330127019));
#152 = VECTOR('',#153,1.);
#153 = DIRECTION('',(0.,1.,0.));
#154 = PLANE('',#155);
#155 = AXIS2_PLACEMENT_3D('',#156,#157,#158);
#156 = CARTESIAN_POINT('',(2.145910346561,3.E-02,-2.35330127019));
#157 = DIRECTION('',(-0.866025403784,0.,0.5));
#158 = DIRECTION('',(0.5,0.,0.866025403784));
#159 = ADVANCED_FACE('',(#160),#185,.T.);
#160 = FACE_BOUND('',#161,.T.);
#161 = EDGE_LOOP('',(#162,#170,#171,#179));
#162 = ORIENTED_EDGE('',*,*,#163,.F.);
#163 = EDGE_CURVE('',#133,#164,#166,.T.);
#164 = VERTEX_POINT('',#165);
#165 = CARTESIAN_POINT('',(2.405717967698,3.E-02,-2.50330127019));
#166 = LINE('',#167,#168);
#167 = CARTESIAN_POINT('',(2.145910346561,3.E-02,-2.35330127019));
#168 = VECTOR('',#169,1.);
#169 = DIRECTION('',(0.866025403786,0.,-0.499999999998));
#170 = ORIENTED_EDGE('',*,*,#149,.T.);
#171 = ORIENTED_EDGE('',*,*,#172,.F.);
#172 = EDGE_CURVE('',#173,#142,#175,.T.);
#173 = VERTEX_POINT('',#174);
#174 = CARTESIAN_POINT('',(2.405717967698,4.E-02,-2.50330127019));
#175 = LINE('',#176,#177);
#176 = CARTESIAN_POINT('',(2.145910346561,4.E-02,-2.35330127019));
#177 = VECTOR('',#178,1.);
#178 = DIRECTION('',(-0.866025403786,0.,0.499999999998));
#179 = ORIENTED_EDGE('',*,*,#180,.F.);
#180 = EDGE_CURVE('',#164,#173,#181,.T.);
#181 = LINE('',#182,#183);
#182 = CARTESIAN_POINT('',(2.405717967698,3.E-02,-2.50330127019));
#183 = VECTOR('',#184,1.);
#184 = DIRECTION('',(0.,1.,0.));
#185 = PLANE('',#186);
#186 = AXIS2_PLACEMENT_3D('',#187,#188,#189);
#187 = CARTESIAN_POINT('',(2.405717967698,3.E-02,-2.50330127019));
#188 = DIRECTION('',(-0.499999999998,0.,-0.866025403786));
#189 = DIRECTION('',(-0.866025403786,0.,0.499999999998));
#190 = ADVANCED_FACE('',(#191),#216,.T.);
#191 = FACE_BOUND('',#192,.T.);
#192 = EDGE_LOOP('',(#193,#201,#202,#210));
#193 = ORIENTED_EDGE('',*,*,#194,.F.);
#194 = EDGE_CURVE('',#164,#195,#197,.T.);
#195 = VERTEX_POINT('',#196);
#196 = CARTESIAN_POINT('',(2.494282032304,3.E-02,-2.503301270189));
#197 = LINE('',#198,#199);
#198 = CARTESIAN_POINT('',(2.405717967698,3.E-02,-2.50330127019));
#199 = VECTOR('',#200,1.);
#200 = DIRECTION('',(1.,0.,6.117328865821E-12));
#201 = ORIENTED_EDGE('',*,*,#180,.T.);
#202 = ORIENTED_EDGE('',*,*,#203,.F.);
#203 = EDGE_CURVE('',#204,#173,#206,.T.);
#204 = VERTEX_POINT('',#205);
#205 = CARTESIAN_POINT('',(2.494282032304,4.E-02,-2.503301270189));
#206 = LINE('',#207,#208);
#207 = CARTESIAN_POINT('',(2.405717967698,4.E-02,-2.50330127019));
#208 = VECTOR('',#209,1.);
#209 = DIRECTION('',(-1.,0.,-6.117328865821E-12));
#210 = ORIENTED_EDGE('',*,*,#211,.F.);
#211 = EDGE_CURVE('',#195,#204,#212,.T.);
#212 = LINE('',#213,#214);
#213 = CARTESIAN_POINT('',(2.494282032304,3.E-02,-2.503301270189));
#214 = VECTOR('',#215,1.);
#215 = DIRECTION('',(0.,1.,0.));
#216 = PLANE('',#217);
#217 = AXIS2_PLACEMENT_3D('',#218,#219,#220);
#218 = CARTESIAN_POINT('',(2.494282032304,3.E-02,-2.503301270189));
#219 = DIRECTION('',(6.117328865821E-12,0.,-1.));
#220 = DIRECTION('',(-1.,0.,-6.117328865821E-12));
#221 = ADVANCED_FACE('',(#222),#247,.T.);
#222 = FACE_BOUND('',#223,.T.);
#223 = EDGE_LOOP('',(#224,#232,#233,#241));
#224 = ORIENTED_EDGE('',*,*,#225,.F.);
#225 = EDGE_CURVE('',#40,#226,#228,.T.);
#226 = VERTEX_POINT('',#227);
#227 = CARTESIAN_POINT('',(2.862749907476,3.E-02,-2.348301270189));
#228 = LINE('',#229,#230);
#229 = CARTESIAN_POINT('',(2.594301818168,3.E-02,-2.503289846813));
#230 = VECTOR('',#231,1.);
#231 = DIRECTION('',(0.866025403785,0.,0.499999999999));
#232 = ORIENTED_EDGE('',*,*,#39,.T.);
#233 = ORIENTED_EDGE('',*,*,#234,.F.);
#234 = EDGE_CURVE('',#235,#32,#237,.T.);
#235 = VERTEX_POINT('',#236);
#236 = CARTESIAN_POINT('',(2.862749907476,4.E-02,-2.348301270189));
#237 = LINE('',#238,#239);
#238 = CARTESIAN_POINT('',(2.594301818168,4.E-02,-2.503289846813));
#239 = VECTOR('',#240,1.);
#240 = DIRECTION('',(-0.866025403785,0.,-0.499999999999));
#241 = ORIENTED_EDGE('',*,*,#242,.F.);
#242 = EDGE_CURVE('',#226,#235,#243,.T.);
#243 = LINE('',#244,#245);
#244 = CARTESIAN_POINT('',(2.862749907476,3.E-02,-2.348301270189));
#245 = VECTOR('',#246,1.);
#246 = DIRECTION('',(0.,1.,0.));
#247 = PLANE('',#248);
#248 = AXIS2_PLACEMENT_3D('',#249,#250,#251);
#249 = CARTESIAN_POINT('',(2.862749907476,3.E-02,-2.348301270189));
#250 = DIRECTION('',(0.499999999999,0.,-0.866025403785));
#251 = DIRECTION('',(-0.866025403785,0.,-0.499999999999));
#252 = ADVANCED_FACE('',(#253),#278,.T.);
#253 = FACE_BOUND('',#254,.T.);
#254 = EDGE_LOOP('',(#255,#263,#264,#272));
#255 = ORIENTED_EDGE('',*,*,#256,.F.);
#256 = EDGE_CURVE('',#226,#257,#259,.T.);
#257 = VERTEX_POINT('',#258);
#258 = CARTESIAN_POINT('',(2.919749907475,3.E-02,-2.447028166218));
#259 = LINE('',#260,#261);
#260 = CARTESIAN_POINT('',(2.862749907476,3.E-02,-2.348301270189));
#261 = VECTOR('',#262,1.);
#262 = DIRECTION('',(0.5,0.,-0.866025403784));
#263 = ORIENTED_EDGE('',*,*,#242,.T.);
#264 = ORIENTED_EDGE('',*,*,#265,.F.);
#265 = EDGE_CURVE('',#266,#235,#268,.T.);
#266 = VERTEX_POINT('',#267);
#267 = CARTESIAN_POINT('',(2.919749907475,4.E-02,-2.447028166218));
#268 = LINE('',#269,#270);
#269 = CARTESIAN_POINT('',(2.862749907476,4.E-02,-2.348301270189));
#270 = VECTOR('',#271,1.);
#271 = DIRECTION('',(-0.5,0.,0.866025403784));
#272 = ORIENTED_EDGE('',*,*,#273,.F.);
#273 = EDGE_CURVE('',#257,#266,#274,.T.);
#274 = LINE('',#275,#276);
#275 = CARTESIAN_POINT('',(2.919749907475,3.E-02,-2.447028166218));
#276 = VECTOR('',#277,1.);
#277 = DIRECTION('',(0.,1.,0.));
#278 = PLANE('',#279);
#279 = AXIS2_PLACEMENT_3D('',#280,#281,#282);
#280 = CARTESIAN_POINT('',(2.919749907475,3.E-02,-2.447028166218));
#281 = DIRECTION('',(-0.866025403784,0.,-0.5));
#282 = DIRECTION('',(-0.5,0.,0.866025403784));
#283 = ADVANCED_FACE('',(#284),#309,.T.);
#284 = FACE_BOUND('',#285,.T.);
#285 = EDGE_LOOP('',(#286,#294,#295,#303));
#286 = ORIENTED_EDGE('',*,*,#287,.F.);
#287 = EDGE_CURVE('',#257,#288,#290,.T.);
#288 = VERTEX_POINT('',#289);
#289 = CARTESIAN_POINT('',(3.092954988232,3.E-02,-2.347028166219));
#290 = LINE('',#291,#292);
#291 = CARTESIAN_POINT('',(2.919749907475,3.E-02,-2.447028166218));
#292 = VECTOR('',#293,1.);
#293 = DIRECTION('',(0.866025403787,0.,0.499999999996));
#294 = ORIENTED_EDGE('',*,*,#273,.T.);
#295 = ORIENTED_EDGE('',*,*,#296,.F.);
#296 = EDGE_CURVE('',#297,#266,#299,.T.);
#297 = VERTEX_POINT('',#298);
#298 = CARTESIAN_POINT('',(3.092954988232,4.E-02,-2.347028166219));
#299 = LINE('',#300,#301);
#300 = CARTESIAN_POINT('',(2.919749907475,4.E-02,-2.447028166218));
#301 = VECTOR('',#302,1.);
#302 = DIRECTION('',(-0.866025403787,0.,-0.499999999996));
#303 = ORIENTED_EDGE('',*,*,#304,.F.);
#304 = EDGE_CURVE('',#288,#297,#305,.T.);
#305 = LINE('',#306,#307);
#306 = CARTESIAN_POINT('',(3.092954988232,3.E-02,-2.347028166219));
#307 = VECTOR('',#308,1.);
#308 = DIRECTION('',(0.,1.,0.));
#309 = PLANE('',#310);
#310 = AXIS2_PLACEMENT_3D('',#311,#312,#313);
#311 = CARTESIAN_POINT('',(3.092954988232,3.E-02,-2.347028166219));
#312 = DIRECTION('',(0.499999999996,0.,-0.866025403787));
#313 = DIRECTION('',(-0.866025403787,0.,-0.499999999996));
#314 = ADVANCED_FACE('',(#315),#340,.T.);
#315 = FACE_BOUND('',#316,.T.);
#316 = EDGE_LOOP('',(#317,#325,#326,#334));
#317 = ORIENTED_EDGE('',*,*,#318,.F.);
#318 = EDGE_CURVE('',#288,#319,#321,.T.);
#319 = VERTEX_POINT('',#320);
#320 = CARTESIAN_POINT('',(2.928954988232,3.E-02,-2.062971833778));
#321 = LINE('',#322,#323);
#322 = CARTESIAN_POINT('',(3.092954988232,3.E-02,-2.347028166219));
#323 = VECTOR('',#324,1.);
#324 = DIRECTION('',(-0.5,0.,0.866025403784));
#325 = ORIENTED_EDGE('',*,*,#304,.T.);
#326 = ORIENTED_EDGE('',*,*,#327,.F.);
#327 = EDGE_CURVE('',#328,#297,#330,.T.);
#328 = VERTEX_POINT('',#329);
#329 = CARTESIAN_POINT('',(2.928954988232,4.E-02,-2.062971833778));
#330 = LINE('',#331,#332);
#331 = CARTESIAN_POINT('',(3.092954988232,4.E-02,-2.347028166219));
#332 = VECTOR('',#333,1.);
#333 = DIRECTION('',(0.5,0.,-0.866025403784));
#334 = ORIENTED_EDGE('',*,*,#335,.F.);
#335 = EDGE_CURVE('',#319,#328,#336,.T.);
#336 = LINE('',#337,#338);
#337 = CARTESIAN_POINT('',(2.928954988232,3.E-02,-2.062971833778));
#338 = VECTOR('',#339,1.);
#339 = DIRECTION('',(0.,1.,0.));
#340 = PLANE('',#341);
#341 = AXIS2_PLACEMENT_3D('',#342,#343,#344);
#342 = CARTESIAN_POINT('',(2.928954988232,3.E-02,-2.062971833778));
#343 = DIRECTION('',(0.866025403784,0.,0.5));
#344 = DIRECTION('',(0.5,0.,-0.866025403784));
#345 = ADVANCED_FACE('',(#346),#371,.T.);
#346 = FACE_BOUND('',#347,.T.);
#347 = EDGE_LOOP('',(#348,#356,#357,#365));
#348 = ORIENTED_EDGE('',*,*,#349,.F.);
#349 = EDGE_CURVE('',#319,#350,#352,.T.);
#350 = VERTEX_POINT('',#351);
#351 = CARTESIAN_POINT('',(2.755749907475,3.E-02,-2.162971833778));
#352 = LINE('',#353,#354);
#353 = CARTESIAN_POINT('',(2.928954988232,3.E-02,-2.062971833778));
#354 = VECTOR('',#355,1.);
#355 = DIRECTION('',(-0.866025403784,0.,-0.5));
#356 = ORIENTED_EDGE('',*,*,#335,.T.);
#357 = ORIENTED_EDGE('',*,*,#358,.F.);
#358 = EDGE_CURVE('',#359,#328,#361,.T.);
#359 = VERTEX_POINT('',#360);
#360 = CARTESIAN_POINT('',(2.755749907475,4.E-02,-2.162971833778));
#361 = LINE('',#362,#363);
#362 = CARTESIAN_POINT('',(2.928954988232,4.E-02,-2.062971833778));
#363 = VECTOR('',#364,1.);
#364 = DIRECTION('',(0.866025403784,0.,0.5));
#365 = ORIENTED_EDGE('',*,*,#366,.F.);
#366 = EDGE_CURVE('',#350,#359,#367,.T.);
#367 = LINE('',#368,#369);
#368 = CARTESIAN_POINT('',(2.755749907475,3.E-02,-2.162971833778));
#369 = VECTOR('',#370,1.);
#370 = DIRECTION('',(0.,1.,0.));
#371 = PLANE('',#372);
#372 = AXIS2_PLACEMENT_3D('',#373,#374,#375);
#373 = CARTESIAN_POINT('',(2.755749907475,3.E-02,-2.162971833778));
#374 = DIRECTION('',(-0.5,0.,0.866025403784));
#375 = DIRECTION('',(0.866025403784,0.,0.5));
#376 = ADVANCED_FACE('',(#377),#402,.T.);
#377 = FACE_BOUND('',#378,.T.);
#378 = EDGE_LOOP('',(#379,#387,#388,#396));
#379 = ORIENTED_EDGE('',*,*,#380,.F.);
#380 = EDGE_CURVE('',#350,#381,#383,.T.);
#381 = VERTEX_POINT('',#382);
#382 = CARTESIAN_POINT('',(2.812749907475,3.E-02,-2.26169872981));
#383 = LINE('',#384,#385);
#384 = CARTESIAN_POINT('',(2.755749907475,3.E-02,-2.162971833778));
#385 = VECTOR('',#386,1.);
#386 = DIRECTION('',(0.5,0.,-0.866025403784));
#387 = ORIENTED_EDGE('',*,*,#366,.T.);
#388 = ORIENTED_EDGE('',*,*,#389,.F.);
#389 = EDGE_CURVE('',#390,#359,#392,.T.);
#390 = VERTEX_POINT('',#391);
#391 = CARTESIAN_POINT('',(2.812749907475,4.E-02,-2.26169872981));
#392 = LINE('',#393,#394);
#393 = CARTESIAN_POINT('',(2.755749907475,4.E-02,-2.162971833778));
#394 = VECTOR('',#395,1.);
#395 = DIRECTION('',(-0.5,0.,0.866025403784));
#396 = ORIENTED_EDGE('',*,*,#397,.F.);
#397 = EDGE_CURVE('',#381,#390,#398,.T.);
#398 = LINE('',#399,#400);
#399 = CARTESIAN_POINT('',(2.812749907475,3.E-02,-2.26169872981));
#400 = VECTOR('',#401,1.);
#401 = DIRECTION('',(0.,1.,0.));
#402 = PLANE('',#403);
#403 = AXIS2_PLACEMENT_3D('',#404,#405,#406);
#404 = CARTESIAN_POINT('',(2.812749907475,3.E-02,-2.26169872981));
#405 = DIRECTION('',(-0.866025403784,0.,-0.5));
#406 = DIRECTION('',(-0.5,0.,0.866025403784));
#407 = ADVANCED_FACE('',(#408),#433,.T.);
#408 = FACE_BOUND('',#409,.T.);
#409 = EDGE_LOOP('',(#410,#418,#419,#427));
#410 = ORIENTED_EDGE('',*,*,#411,.F.);
#411 = EDGE_CURVE('',#381,#412,#414,.T.);
#412 = VERTEX_POINT('',#413);
#413 = CARTESIAN_POINT('',(2.544233363469,3.E-02,-2.416726828774));
#414 = LINE('',#415,#416);
#415 = CARTESIAN_POINT('',(2.812749907475,3.E-02,-2.26169872981));
#416 = VECTOR('',#417,1.);
#417 = DIRECTION('',(-0.866025403784,0.,-0.5));
#418 = ORIENTED_EDGE('',*,*,#397,.T.);
#419 = ORIENTED_EDGE('',*,*,#420,.F.);
#420 = EDGE_CURVE('',#421,#390,#423,.T.);
#421 = VERTEX_POINT('',#422);
#422 = CARTESIAN_POINT('',(2.544233363469,4.E-02,-2.416726828774));
#423 = LINE('',#424,#425);
#424 = CARTESIAN_POINT('',(2.812749907475,4.E-02,-2.26169872981));
#425 = VECTOR('',#426,1.);
#426 = DIRECTION('',(0.866025403784,0.,0.5));
#427 = ORIENTED_EDGE('',*,*,#428,.F.);
#428 = EDGE_CURVE('',#412,#421,#429,.T.);
#429 = LINE('',#430,#431);
#430 = CARTESIAN_POINT('',(2.544233363469,3.E-02,-2.416726828774));
#431 = VECTOR('',#432,1.);
#432 = DIRECTION('',(0.,1.,0.));
#433 = PLANE('',#434);
#434 = AXIS2_PLACEMENT_3D('',#435,#436,#437);
#435 = CARTESIAN_POINT('',(2.544233363469,3.E-02,-2.416726828774));
#436 = DIRECTION('',(-0.5,0.,0.866025403784));
#437 = DIRECTION('',(0.866025403784,0.,0.5));
#438 = ADVANCED_FACE('',(#439),#455,.T.);
#439 = FACE_BOUND('',#440,.T.);
#440 = EDGE_LOOP('',(#441,#447,#448,#454));
#441 = ORIENTED_EDGE('',*,*,#442,.F.);
#442 = EDGE_CURVE('',#412,#64,#443,.T.);
#443 = LINE('',#444,#445);
#444 = CARTESIAN_POINT('',(2.544233363469,3.E-02,-2.416726828774));
#445 = VECTOR('',#446,1.);
#446 = DIRECTION('',(-0.500694671069,0.,-0.865623963603));
#447 = ORIENTED_EDGE('',*,*,#428,.T.);
#448 = ORIENTED_EDGE('',*,*,#449,.F.);
#449 = EDGE_CURVE('',#72,#421,#450,.T.);
#450 = LINE('',#451,#452);
#451 = CARTESIAN_POINT('',(2.544233363469,4.E-02,-2.416726828774));
#452 = VECTOR('',#453,1.);
#453 = DIRECTION('',(0.500694671069,0.,0.865623963603));
#454 = ORIENTED_EDGE('',*,*,#71,.F.);
#455 = PLANE('',#456);
#456 = AXIS2_PLACEMENT_3D('',#457,#458,#459);
#457 = CARTESIAN_POINT('',(2.499942801317,3.E-02,-2.4932983886));
#458 = DIRECTION('',(-0.865623963603,0.,0.500694671069));
#459 = DIRECTION('',(0.500694671069,0.,0.865623963603));
#460 = ADVANCED_FACE('',(#461),#495,.T.);
#461 = FACE_BOUND('',#462,.T.);
#462 = EDGE_LOOP('',(#463,#473,#481,#489));
#463 = ORIENTED_EDGE('',*,*,#464,.F.);
#464 = EDGE_CURVE('',#465,#467,#469,.T.);
#465 = VERTEX_POINT('',#466);
#466 = CARTESIAN_POINT('',(2.450000000001,3.E-02,-2.58));
#467 = VERTEX_POINT('',#468);
#468 = CARTESIAN_POINT('',(2.450000000001,3.E-02,-2.88));
#469 = LINE('',#470,#471);
#470 = CARTESIAN_POINT('',(2.450000000001,3.E-02,-2.58));
#471 = VECTOR('',#472,1.);
#472 = DIRECTION('',(1.194414937326E-12,0.,-1.));
#473 = ORIENTED_EDGE('',*,*,#474,.T.);
#474 = EDGE_CURVE('',#465,#475,#477,.T.);
#475 = VERTEX_POINT('',#476);
#476 = CARTESIAN_POINT('',(2.450000000001,4.E-02,-2.58));
#477 = LINE('',#478,#479);
#478 = CARTESIAN_POINT('',(2.450000000001,3.E-02,-2.58));
#479 = VECTOR('',#480,1.);
#480 = DIRECTION('',(0.,1.,0.));
#481 = ORIENTED_EDGE('',*,*,#482,.F.);
#482 = EDGE_CURVE('',#483,#475,#485,.T.);
#483 = VERTEX_POINT('',#484);
#484 = CARTESIAN_POINT('',(2.450000000001,4.E-02,-2.88));
#485 = LINE('',#486,#487);
#486 = CARTESIAN_POINT('',(2.450000000001,4.E-02,-2.58));
#487 = VECTOR('',#488,1.);
#488 = DIRECTION('',(-1.194414937326E-12,0.,1.));
#489 = ORIENTED_EDGE('',*,*,#490,.F.);
#490 = EDGE_CURVE('',#467,#483,#491,.T.);
#491 = LINE('',#492,#493);
#492 = CARTESIAN_POINT('',(2.450000000001,3.E-02,-2.88));
#493 = VECTOR('',#494,1.);
#494 = DIRECTION('',(0.,1.,0.));
#495 = PLANE('',#496);
#496 = AXIS2_PLACEMENT_3D('',#497,#498,#499);
#497 = CARTESIAN_POINT('',(2.450000000001,3.E-02,-2.88));
#498 = DIRECTION('',(-1.,0.,-1.194414937326E-12));
#499 = DIRECTION('',(-1.194414937326E-12,0.,1.));
#500 = ADVANCED_FACE('',(#501),#526,.T.);
#501 = FACE_BOUND('',#502,.T.);
#502 = EDGE_LOOP('',(#503,#511,#512,#520));
#503 = ORIENTED_EDGE('',*,*,#504,.F.);
#504 = EDGE_CURVE('',#467,#505,#507,.T.);
#505 = VERTEX_POINT('',#506);
#506 = CARTESIAN_POINT('',(2.550000000001,3.E-02,-2.88));
#507 = LINE('',#508,#509);
#508 = CARTESIAN_POINT('',(2.450000000001,3.E-02,-2.88));
#509 = VECTOR('',#510,1.);
#510 = DIRECTION('',(1.,0.,-5.551115123122E-15));
#511 = ORIENTED_EDGE('',*,*,#490,.T.);
#512 = ORIENTED_EDGE('',*,*,#513,.F.);
#513 = EDGE_CURVE('',#514,#483,#516,.T.);
#514 = VERTEX_POINT('',#515);
#515 = CARTESIAN_POINT('',(2.550000000001,4.E-02,-2.88));
#516 = LINE('',#517,#518);
#517 = CARTESIAN_POINT('',(2.450000000001,4.E-02,-2.88));
#518 = VECTOR('',#519,1.);
#519 = DIRECTION('',(-1.,0.,5.551115123122E-15));
#520 = ORIENTED_EDGE('',*,*,#521,.F.);
#521 = EDGE_CURVE('',#505,#514,#522,.T.);
#522 = LINE('',#523,#524);
#523 = CARTESIAN_POINT('',(2.550000000001,3.E-02,-2.88));
#524 = VECTOR('',#525,1.);
#525 = DIRECTION('',(0.,1.,0.));
#526 = PLANE('',#527);
#527 = AXIS2_PLACEMENT_3D('',#528,#529,#530);
#528 = CARTESIAN_POINT('',(2.550000000001,3.E-02,-2.88));
#529 = DIRECTION('',(-5.551115123122E-15,0.,-1.));
#530 = DIRECTION('',(-1.,0.,5.551115123122E-15));
#531 = ADVANCED_FACE('',(#532),#557,.T.);
#532 = FACE_BOUND('',#533,.T.);
#533 = EDGE_LOOP('',(#534,#542,#543,#551));
#534 = ORIENTED_EDGE('',*,*,#535,.F.);
#535 = EDGE_CURVE('',#505,#536,#538,.T.);
#536 = VERTEX_POINT('',#537);
#537 = CARTESIAN_POINT('',(2.55,3.E-02,-2.579999999999));
#538 = LINE('',#539,#540);
#539 = CARTESIAN_POINT('',(2.550000000001,3.E-02,-2.88));
#540 = VECTOR('',#541,1.);
#541 = DIRECTION('',(-2.827367969369E-12,0.,1.));
#542 = ORIENTED_EDGE('',*,*,#521,.T.);
#543 = ORIENTED_EDGE('',*,*,#544,.F.);
#544 = EDGE_CURVE('',#545,#514,#547,.T.);
#545 = VERTEX_POINT('',#546);
#546 = CARTESIAN_POINT('',(2.55,4.E-02,-2.579999999999));
#547 = LINE('',#548,#549);
#548 = CARTESIAN_POINT('',(2.550000000001,4.E-02,-2.88));
#549 = VECTOR('',#550,1.);
#550 = DIRECTION('',(2.827367969369E-12,0.,-1.));
#551 = ORIENTED_EDGE('',*,*,#552,.F.);
#552 = EDGE_CURVE('',#536,#545,#553,.T.);
#553 = LINE('',#554,#555);
#554 = CARTESIAN_POINT('',(2.55,3.E-02,-2.579999999999));
#555 = VECTOR('',#556,1.);
#556 = DIRECTION('',(0.,1.,0.));
#557 = PLANE('',#558);
#558 = AXIS2_PLACEMENT_3D('',#559,#560,#561);
#559 = CARTESIAN_POINT('',(2.55,3.E-02,-2.579999999999));
#560 = DIRECTION('',(1.,0.,2.827367969369E-12));
#561 = DIRECTION('',(2.827367969369E-12,0.,-1.));
#562 = ADVANCED_FACE('',(#563),#579,.T.);
#563 = FACE_BOUND('',#564,.T.);
#564 = EDGE_LOOP('',(#565,#571,#572,#578));
#565 = ORIENTED_EDGE('',*,*,#566,.F.);
#566 = EDGE_CURVE('',#536,#22,#567,.T.);
#567 = LINE('',#568,#569);
#568 = CARTESIAN_POINT('',(2.55,3.E-02,-2.579999999999));
#569 = VECTOR('',#570,1.);
#570 = DIRECTION('',(-0.500000000005,0.,0.866025403781));
#571 = ORIENTED_EDGE('',*,*,#552,.T.);
#572 = ORIENTED_EDGE('',*,*,#573,.F.);
#573 = EDGE_CURVE('',#24,#545,#574,.T.);
#574 = LINE('',#575,#576);
#575 = CARTESIAN_POINT('',(2.55,4.E-02,-2.579999999999));
#576 = VECTOR('',#577,1.);
#577 = DIRECTION('',(0.500000000005,0.,-0.866025403781));
#578 = ORIENTED_EDGE('',*,*,#21,.F.);
#579 = PLANE('',#580);
#580 = AXIS2_PLACEMENT_3D('',#581,#582,#583);
#581 = CARTESIAN_POINT('',(2.505717967697,3.E-02,-2.503301270189));
#582 = DIRECTION('',(0.866025403781,0.,0.500000000005));
#583 = DIRECTION('',(0.500000000005,0.,-0.866025403781));
#584 = ADVANCED_FACE('',(#585),#601,.T.);
#585 = FACE_BOUND('',#586,.T.);
#586 = EDGE_LOOP('',(#587,#593,#594,#600));
#587 = ORIENTED_EDGE('',*,*,#588,.T.);
#588 = EDGE_CURVE('',#465,#195,#589,.T.);
#589 = LINE('',#590,#591);
#590 = CARTESIAN_POINT('',(2.450000000001,3.E-02,-2.58));
#591 = VECTOR('',#592,1.);
#592 = DIRECTION('',(0.500000000007,0.,0.866025403781));
#593 = ORIENTED_EDGE('',*,*,#211,.T.);
#594 = ORIENTED_EDGE('',*,*,#595,.F.);
#595 = EDGE_CURVE('',#475,#204,#596,.T.);
#596 = LINE('',#597,#598);
#597 = CARTESIAN_POINT('',(2.450000000001,4.E-02,-2.58));
#598 = VECTOR('',#599,1.);
#599 = DIRECTION('',(0.500000000007,0.,0.866025403781));
#600 = ORIENTED_EDGE('',*,*,#474,.F.);
#601 = PLANE('',#602);
#602 = AXIS2_PLACEMENT_3D('',#603,#604,#605);
#603 = CARTESIAN_POINT('',(2.450000000001,3.E-02,-2.58));
#604 = DIRECTION('',(-0.866025403781,0.,0.500000000007));
#605 = DIRECTION('',(0.500000000007,0.,0.866025403781));
#606 = ADVANCED_FACE('',(#607),#628,.T.);
#607 = FACE_BOUND('',#608,.T.);
#608 = EDGE_LOOP('',(#609,#610,#611,#612,#613,#614,#615,#616,#617,#618,
    #619,#620,#621,#622,#623,#624,#625,#626,#627));
#609 = ORIENTED_EDGE('',*,*,#595,.T.);
#610 = ORIENTED_EDGE('',*,*,#203,.T.);
#611 = ORIENTED_EDGE('',*,*,#172,.T.);
#612 = ORIENTED_EDGE('',*,*,#141,.T.);
#613 = ORIENTED_EDGE('',*,*,#110,.T.);
#614 = ORIENTED_EDGE('',*,*,#79,.T.);
#615 = ORIENTED_EDGE('',*,*,#449,.T.);
#616 = ORIENTED_EDGE('',*,*,#420,.T.);
#617 = ORIENTED_EDGE('',*,*,#389,.T.);
#618 = ORIENTED_EDGE('',*,*,#358,.T.);
#619 = ORIENTED_EDGE('',*,*,#327,.T.);
#620 = ORIENTED_EDGE('',*,*,#296,.T.);
#621 = ORIENTED_EDGE('',*,*,#265,.T.);
#622 = ORIENTED_EDGE('',*,*,#234,.T.);
#623 = ORIENTED_EDGE('',*,*,#31,.T.);
#624 = ORIENTED_EDGE('',*,*,#573,.T.);
#625 = ORIENTED_EDGE('',*,*,#544,.T.);
#626 = ORIENTED_EDGE('',*,*,#513,.T.);
#627 = ORIENTED_EDGE('',*,*,#482,.T.);
#628 = PLANE('',#629);
#629 = AXIS2_PLACEMENT_3D('',#630,#631,#632);
#630 = CARTESIAN_POINT('',(2.500000000001,4.E-02,-2.686698729812));
#631 = DIRECTION('',(0.,1.,0.));
#632 = DIRECTION('',(0.,-0.,1.));
#633 = ADVANCED_FACE('',(#634),#655,.F.);
#634 = FACE_BOUND('',#635,.T.);
#635 = EDGE_LOOP('',(#636,#637,#638,#639,#640,#641,#642,#643,#644,#645,
    #646,#647,#648,#649,#650,#651,#652,#653,#654));
#636 = ORIENTED_EDGE('',*,*,#588,.F.);
#637 = ORIENTED_EDGE('',*,*,#464,.T.);
#638 = ORIENTED_EDGE('',*,*,#504,.T.);
#639 = ORIENTED_EDGE('',*,*,#535,.T.);
#640 = ORIENTED_EDGE('',*,*,#566,.T.);
#641 = ORIENTED_EDGE('',*,*,#47,.F.);
#642 = ORIENTED_EDGE('',*,*,#225,.T.);
#643 = ORIENTED_EDGE('',*,*,#256,.T.);
#644 = ORIENTED_EDGE('',*,*,#287,.T.);
#645 = ORIENTED_EDGE('',*,*,#318,.T.);
#646 = ORIENTED_EDGE('',*,*,#349,.T.);
#647 = ORIENTED_EDGE('',*,*,#380,.T.);
#648 = ORIENTED_EDGE('',*,*,#411,.T.);
#649 = ORIENTED_EDGE('',*,*,#442,.T.);
#650 = ORIENTED_EDGE('',*,*,#61,.F.);
#651 = ORIENTED_EDGE('',*,*,#101,.T.);
#652 = ORIENTED_EDGE('',*,*,#132,.T.);
#653 = ORIENTED_EDGE('',*,*,#163,.T.);
#654 = ORIENTED_EDGE('',*,*,#194,.T.);
#655 = PLANE('',#656);
#656 = AXIS2_PLACEMENT_3D('',#657,#658,#659);
#657 = CARTESIAN_POINT('',(2.500000000001,3.E-02,-2.686698729812));
#658 = DIRECTION('',(0.,1.,0.));
#659 = DIRECTION('',(1.,0.,0.));
#660 = ( GEOMETRIC_REPRESENTATION_CONTEXT(3) 
GLOBAL_UNCERTAINTY_ASSIGNED_CONTEXT((#664)) GLOBAL_UNIT_ASSIGNED_CONTEXT
((#661,#662,#663)) REPRESENTATION_CONTEXT('Context #1',
  '3D Context with UNIT and UNCERTAINTY') );
#661 = ( LENGTH_UNIT() NAMED_UNIT(*) SI_UNIT(.MILLI.,.METRE.) );
#662 = ( NAMED_UNIT(*) PLANE_ANGLE_UNIT() SI_UNIT($,.RADIAN.) );
#663 = ( NAMED_UNIT(*) SI_UNIT($,.STERADIAN.) SOLID_ANGLE_UNIT() );
#664 = UNCERTAINTY_MEASURE_WITH_UNIT(LENGTH_MEASURE(5.E-07),#661,
  'distance_accuracy_value','confusion accuracy');
#665 = PRODUCT_RELATED_PRODUCT_CATEGORY('part',$,(#7));
#666 = MECHANICAL_DESIGN_GEOMETRIC_PRESENTATION_REPRESENTATION('',(#667)
  ,#660);
#667 = STYLED_ITEM('color',(#668),#15);
#668 = PRESENTATION_STYLE_ASSIGNMENT((#669,#675));
#669 = SURFACE_STYLE_USAGE(.BOTH.,#670);
#670 = SURFACE_SIDE_STYLE('',(#671));
#671 = SURFACE_STYLE_FILL_AREA(#672);
#672 = FILL_AREA_STYLE('',(#673));
#673 = FILL_AREA_STYLE_COLOUR('',#674);
#674 = COLOUR_RGB('',0.627451011593,0.627451011593,0.627451011593);
#675 = CURVE_STYLE('',#676,POSITIVE_LENGTH_MEASURE(0.1),#677);
#676 = DRAUGHTING_PRE_DEFINED_CURVE_FONT('continuous');
#677 = COLOUR_RGB('',9.803921802644E-02,9.803921802644E-02,
  9.803921802644E-02);
ENDSEC;
END-ISO-10303-21;
