DBRep_DrawableShape

CASCADE Topology V1, (c) Matra-Datavision
Locations 4
1
              1               0               0               0 
              0               1               0           0.656 
              0               0               1               0 
2  1 -1 0
1
              1               0               0           0.656 
              0               1               0               0 
              0               0               1               0 
2  3 -1 0
Curve2ds 0
Curves 212
8 0 0.28999999999999998
1 -0.32800000000000001 -0.32800000000000001 -0.02 0 0 1 
1 -0.32800000000000001 -0.32800000000000001 -0.02 -0 1 0 
1 -0.32800000000000001 -0.27200000000000002 -0.02 0 0 1 
1 -0.32800000000000001 -0.27200000000000002 -0.02 0 0 1 
8 0 0.055999999999999994
1 -0.32800000000000001 -0.32800000000000001 0.26999999999999996 0 1 0 
1 -0.27200000000000002 -0.32800000000000001 -0.02 0 0 1 
1 -0.32800000000000001 -0.32800000000000001 -0.02 1 0 -0 
8 0 0.055999999999999994
1 -0.27200000000000002 -0.32800000000000001 0.26999999999999996 -1 0 0 
1 -0.27200000000000002 -0.32800000000000001 -0.02 0 0 1 
1 -0.27200000000000002 -0.27200000000000002 -0.02 0 0 1 
1 -0.33888762677484785 -0.27200000000000002 0.13105740365111559 0.56396164615753241 0 0.82580098187353013 
1 -0.25601784989858006 -0.27200000000000002 0.123597565922921 0.56396164615753319 0 -0.82580098187352957 
1 -0.32800000000000001 -0.27200000000000002 -0.02 1 0 -0 
1 -0.27200000000000002 -0.32800000000000001 -0.02 -0 1 0 
1 -0.27200000000000002 -0.25601784989858006 0.123597565922921 -0 0.56396164615753319 -0.82580098187352957 
1 -0.27200000000000002 -0.33888762677484785 0.13105740365111559 0 0.56396164615753241 0.82580098187353013 
1 -0.29999999999999999 -0.32800000000000001 0.18800000000000003 0 1 0 
1 -0.25318251769775313 -0.046817482302246839 0.25655417051400436 -0.49122807017543835 0.49122807017543896 -0.7192982456140351 
1 -0.27200000000000002 -0.32800000000000001 0.22900000000000001 0 1 0 
1 -0.32800000000000001 -0.32800000000000001 0.22900000000000001 0 1 0 
1 -0.34295229301323493 -0.042952293013234819 0.2508944290550939 -0.49122807017543907 -0.49122807017543862 0.71929824561403477 
1 -0.32800000000000001 -0.32800000000000001 0.22900000000000001 1 0 0 
1 -0.042952293013234819 -0.34295229301323493 0.2508944290550939 -0.49122807017543862 -0.49122807017543907 0.71929824561403477 
1 -0.32800000000000001 -0.29999999999999999 0.18800000000000003 1 0 0 
1 -0.046817482302246839 -0.25318251769775313 0.25655417051400436 0.49122807017543896 -0.49122807017543835 -0.7192982456140351 
1 -0.32800000000000001 -0.27200000000000002 0.22900000000000001 1 0 0 
1 -0.32800000000000001 -0.028000000000000001 0.22900000000000001 1 0 0 
1 -0.079148045552477703 -0.079148045552477703 0.30389535241612808 -0.49122807017543868 -0.49122807017543868 0.71929824561403488 
1 -0.32800000000000001 0 0.18800000000000003 1 0 0 
1 -0.2369233265720081 -0.27200000000000002 0.17763772819472615 -0.56396164615753241 -0 0.82580098187353013 
1 -0.25318251769775313 -0.046817482302246839 0.20144582948599563 0.49122807017543835 -0.49122807017543896 -0.7192982456140351 
1 -0.29999999999999999 -0.32800000000000001 0.26999999999999996 0 1 0 
1 -0.3859821501014199 -0.27200000000000002 0.144097565922921 -0.56396164615753319 0 -0.82580098187352957 
1 -0.36419575253924291 -0.064195752539242812 0.17599907663896583 0.49122807017543907 0.49122807017543862 0.71929824561403477 
1 -0.32800000000000001 0 0.18800000000000003 0 -0.56396164615753275 0.82580098187352968 
1 -0.32800000000000001 0 0.18800000000000003 1 0 0 
1 -0.27200000000000002 -0.3859821501014199 0.144097565922921 0 -0.56396164615753319 -0.82580098187352957 
1 -0.32800000000000001 -0.29999999999999999 0.26999999999999996 1 0 0 
1 -0.064195752539242812 -0.36419575253924291 0.17599907663896583 0.49122807017543862 0.49122807017543907 0.71929824561403477 
1 0 -0.32800000000000001 0.18800000000000003 -0.56396164615753275 0 0.82580098187352968 
1 0 -0.32800000000000001 0.18800000000000003 0 1 0 
1 -0.028000000000000001 -0.32800000000000001 0.22900000000000001 0 1 0 
1 0 -0.32800000000000001 0.18800000000000003 0 1 0 
1 -0.27200000000000002 -0.2369233265720081 0.17763772819472615 0 -0.56396164615753241 0.82580098187353013 
1 -0.046817482302246839 -0.25318251769775313 0.20144582948599563 -0.49122807017543896 0.49122807017543835 -0.7192982456140351 
1 -0.27200000000000002 -0.32800000000000001 0.26999999999999996 -0 1 0 
1 -0.27200000000000002 -0.32800000000000001 0.26999999999999996 -0 1 0 
1 -0.32800000000000001 -0.27200000000000002 0.26999999999999996 1 0 -0 
1 -0.32800000000000001 -0.27200000000000002 0.26999999999999996 1 0 -0 
1 -0.32800000000000001 0 0.26999999999999996 1 0 0 
1 -0.10039150507848571 -0.10039150507848571 0.12299815327793163 0.49122807017543868 0.49122807017543868 0.71929824561403488 
1 -0.3217088334872269 -0.021708833487226815 0.15621206525084638 0.49122807017543835 0.49122807017543896 0.7192982456140351 
1 -0.010621729763003941 0.010621729763004066 0.20355324715297016 0.49122807017543868 -0.49122807017543868 -0.71929824561403488 
1 -0.32800000000000001 0.028000000000000001 0.22900000000000001 1 0 0 
1 -0.27200000000000002 -0.27200000000000002 -0.02 0 0 1 
1 -0.32800000000000001 -0.028000000000000001 0.22900000000000001 0 0.56396164615753275 0.82580098187352968 
1 -0.32800000000000001 0 0.26999999999999996 1 0 0 
1 -0.32800000000000001 0 0.26999999999999996 0 0.56396164615753275 -0.82580098187352968 
1 -0.32800000000000001 0.028000000000000001 0.22900000000000001 0 -0.56396164615753275 -0.82580098187352968 
1 -0.27442597722376105 -0.025574022776238776 0.15055232379193598 0.49122807017543907 -0.49122807017543862 -0.71929824561403477 
1 -0.028000000000000001 -0.32800000000000001 0.22900000000000001 0.56396164615753275 0 0.82580098187352968 
1 0 -0.32800000000000001 0.26999999999999996 0 1 0 
1 0 -0.32800000000000001 0.26999999999999996 0.56396164615753275 0 -0.82580098187352968 
1 0.028000000000000001 -0.32800000000000001 0.22900000000000001 -0.56396164615753275 0 -0.82580098187352968 
1 -0.025574022776238776 -0.27442597722376105 0.15055232379193598 -0.49122807017543862 0.49122807017543907 -0.71929824561403477 
1 0 -0.32800000000000001 0.26999999999999996 0 1 0 
1 -0.021708833487226815 -0.3217088334872269 0.15621206525084638 0.49122807017543896 0.49122807017543835 0.7192982456140351 
1 0.010621729763004066 -0.010621729763003941 0.20355324715297016 -0.49122807017543868 0.49122807017543868 -0.71929824561403488 
1 0.028000000000000001 -0.32800000000000001 0.22900000000000001 0 1 0 
1 -0.34295229301323482 -0.042952293013234839 0.33289442905509392 -0.49122807017543835 -0.49122807017543896 0.7192982456140351 
1 -0.010621729763003941 0.010621729763004059 0.25444675284702983 -0.49122807017543868 0.49122807017543868 -0.71929824561403488 
1 -0.29999999999999999 -0.32800000000000001 0.18800000000000003 0 1 0 
1 -0.33888762677484785 0.27200000000000013 0.13105740365111559 0.56396164615753241 0 0.82580098187353013 
1 -0.27200000000000002 -0.32800000000000001 0.22900000000000001 0 1 0 
1 -0.028000000000000001 -0.32800000000000001 0.22900000000000001 0 1 0 
1 -0.11534379809172056 0.18465620190827955 0.35689627577716226 -0.49122807017543896 -0.49122807017543835 0.7192982456140351 
1 0 -0.32800000000000001 0.18800000000000003 0 1 0 
1 -0.27442597722376105 -0.025574022776238783 0.30744767620806401 -0.49122807017543907 0.49122807017543862 -0.71929824561403477 
1 -0.32800000000000001 -0.32800000000000001 0.22900000000000001 0 1 0 
1 -0.25601784989858006 0.27200000000000013 0.123597565922921 0.56396164615753319 0 -0.82580098187352957 
1 -0.025574022776238783 -0.27442597722376105 0.30744767620806401 0.49122807017543862 -0.49122807017543907 -0.71929824561403477 
1 -0.32800000000000001 -0.32800000000000001 0.22900000000000001 1 0 0 
1 0.27200000000000013 -0.25601784989858006 0.123597565922921 -0 0.56396164615753319 -0.82580098187352957 
1 -0.32800000000000001 -0.29999999999999999 0.18800000000000003 1 0 0 
1 -0.042952293013234839 -0.34295229301323482 0.33289442905509392 -0.49122807017543896 -0.49122807017543835 0.7192982456140351 
1 0.010621729763004059 -0.010621729763003941 0.25444675284702983 0.49122807017543868 -0.49122807017543868 -0.71929824561403488 
1 0.27200000000000013 -0.33888762677484785 0.13105740365111559 0 0.56396164615753241 0.82580098187353013 
1 -0.32800000000000001 -0.27200000000000002 0.22900000000000001 1 0 0 
1 -0.32800000000000001 -0.028000000000000001 0.22900000000000001 1 0 0 
1 0.18465620190827955 -0.11534379809172056 0.35689627577716226 -0.49122807017543835 -0.49122807017543896 0.7192982456140351 
1 -0.32800000000000001 0 0.18800000000000003 1 0 0 
1 -0.2369233265720081 0.27200000000000013 0.17763772819472615 -0.56396164615753241 -0 0.82580098187353013 
1 -0.29999999999999999 -0.32800000000000001 0.26999999999999996 0 1 0 
1 0 -0.32800000000000001 0.26999999999999996 0 1 0 
1 -0.13658725761772855 0.1634127423822716 0.069997229916897455 0.49122807017543896 0.49122807017543835 0.7192982456140351 
1 -0.27200000000000002 0.27200000000000002 -0.02 0 0 1 
1 -0.32800000000000001 0.27200000000000002 -0.02 0 0 1 
1 -0.32800000000000001 0.27200000000000002 -0.02 1 0 -0 
1 -0.27200000000000002 0.34398215010141986 0.12359756592292089 -0 0.56396164615753241 -0.82580098187353013 
1 -0.32800000000000001 0.27200000000000002 0.22900000000000001 1 0 0 
1 -0.32800000000000001 0.29999999999999999 0.18800000000000003 1 0 0 
1 0.046817482302246916 0.25318251769775335 0.2565541705140042 -0.49122807017543896 0.49122807017543835 -0.7192982456140351 
1 0.028000000000000001 -0.32800000000000001 0.22900000000000001 0 1 0 
1 -0.057904586026469702 -0.057904586026469702 0.10321114188981219 0.49122807017543868 0.49122807017543868 0.71929824561403488 
1 -0.3859821501014199 0.27200000000000013 0.144097565922921 -0.56396164615753319 0 -0.82580098187352957 
1 -0.32800000000000001 -0.29999999999999999 0.26999999999999996 1 0 0 
1 0.27200000000000013 -0.3859821501014199 0.144097565922921 0 -0.56396164615753319 -0.82580098187352957 
1 0.27200000000000002 -0.32800000000000001 -0.02 0 0 1 
1 0.27200000000000002 -0.27200000000000002 -0.02 0 0 1 
1 0.27200000000000002 -0.32800000000000001 -0.02 -0 1 0 
1 0.27200000000000013 -0.2369233265720081 0.17763772819472615 0 -0.56396164615753241 0.82580098187353013 
1 -0.32800000000000001 0 0.26999999999999996 1 0 0 
1 0.1634127423822716 -0.13658725761772855 0.069997229916897455 0.49122807017543835 0.49122807017543896 0.7192982456140351 
1 0.34398215010141986 -0.27200000000000002 0.12359756592292089 0.56396164615753241 0 -0.82580098187353013 
1 0.27200000000000002 -0.32800000000000001 0.22900000000000001 0 1 0 
1 0.29999999999999999 -0.32800000000000001 0.18800000000000003 0 1 0 
1 0.25318251769775335 0.046817482302246916 0.2565541705140042 0.49122807017543835 -0.49122807017543896 -0.7192982456140351 
1 -0.32800000000000001 0.028000000000000001 0.22900000000000001 1 0 0 
1 -0.27200000000000002 0.27200000000000002 -0.02 0 0 1 
1 -0.32800000000000001 0.27200000000000002 0.26999999999999996 1 0 -0 
1 -0.079148045552477703 -0.079148045552477703 0.38589535241612805 -0.49122807017543868 -0.49122807017543868 0.71929824561403488 
1 0.046817482302246902 0.2531825176977533 0.20144582948599579 0.49122807017543896 -0.49122807017543835 -0.7192982456140351 
1 -0.27200000000000002 0.21401784989858014 0.14409756592292086 0 -0.56396164615753241 -0.82580098187353013 
1 -0.32800000000000001 0.29999999999999999 0.26999999999999996 1 0 0 
1 -0.27200000000000002 0.26111237322515213 0.13105740365111571 0 0.56396164615753319 0.82580098187352957 
1 -0.27200000000000002 0.32800000000000001 -0.02 0 0 1 
1 -0.27200000000000002 0.27200000000000002 -0.02 -0 1 0 
1 -0.32800000000000001 0.27200000000000002 -0.02 -0 1 0 
8 0 0.28999999999999998
1 -0.32800000000000001 0.32800000000000001 0.26999999999999996 0 0 -1 
8 0 0.055999999999999994
1 -0.32800000000000001 0.27200000000000002 0.26999999999999996 0 1 0 
1 -0.32800000000000001 0.27200000000000002 -0.02 0 0 1 
1 -0.32800000000000001 0.32800000000000001 -0.02 1 0 -0 
1 0.025574022776238992 0.27442597722376116 0.15055232379193592 0.49122807017543862 -0.49122807017543907 -0.71929824561403477 
1 -0.32800000000000001 0.32800000000000001 0.22900000000000001 1 0 0 
1 -0.32800000000000001 0.27200000000000002 0.22900000000000001 1 0 0 
1 0.27200000000000013 0.34398215010141986 0.12359756592292089 -0 0.56396164615753241 -0.82580098187353013 
1 -0.32800000000000001 0.29999999999999999 0.18800000000000003 1 0 0 
1 -0.32800000000000001 0.27200000000000002 0.26999999999999996 1 0 -0 
1 0.27200000000000002 -0.32800000000000001 -0.02 0 0 1 
1 0.27200000000000002 -0.32800000000000001 0.26999999999999996 -0 1 0 
8 0 0.28999999999999998
1 0.32800000000000001 -0.32800000000000001 -0.02 0 0 1 
1 0.27200000000000002 -0.32800000000000001 -0.02 1 0 -0 
8 0 0.055999999999999994
1 0.32800000000000001 -0.32800000000000001 0.26999999999999996 -1 0 0 
1 0.32800000000000001 -0.27200000000000002 -0.02 0 0 1 
1 0.26111237322515213 -0.27200000000000002 0.13105740365111571 0.56396164615753319 0 0.82580098187352957 
1 0.27200000000000002 -0.27200000000000002 -0.02 1 0 -0 
1 0.32800000000000001 -0.32800000000000001 -0.02 -0 1 0 
1 0.27200000000000002 -0.32800000000000001 0.26999999999999996 -0 1 0 
1 0.27200000000000002 -0.27200000000000002 -0.02 0 0 1 
1 0.2531825176977533 0.046817482302246902 0.20144582948599579 -0.49122807017543835 0.49122807017543896 -0.7192982456140351 
1 0.21401784989858014 -0.27200000000000002 0.14409756592292086 -0.56396164615753241 0 -0.82580098187353013 
1 0.29999999999999999 -0.32800000000000001 0.26999999999999996 0 1 0 
1 0.27442597722376116 0.025574022776238992 0.15055232379193592 -0.49122807017543907 0.49122807017543862 -0.71929824561403477 
1 0.32800000000000001 -0.32800000000000001 0.22900000000000001 0 1 0 
1 0.27200000000000002 -0.32800000000000001 0.22900000000000001 0 1 0 
1 0.34398215010141986 0.27200000000000013 0.12359756592292089 0.56396164615753241 0 -0.82580098187353013 
1 0.29999999999999999 -0.32800000000000001 0.18800000000000003 0 1 0 
1 -0.27200000000000002 0.27200000000000002 0.26999999999999996 -0 1 0 
1 -0.27200000000000002 0.27200000000000002 0.26999999999999996 -0 1 0 
8 0 0.055999999999999994
1 -0.27200000000000002 0.32800000000000001 0.26999999999999996 -1 0 0 
1 -0.32800000000000001 0.29999999999999999 0.26999999999999996 1 0 0 
1 0.27200000000000013 0.21401784989858014 0.14409756592292086 0 -0.56396164615753241 -0.82580098187353013 
1 -0.27200000000000002 0.36307667342799194 0.17763772819472626 0 -0.56396164615753319 0.82580098187352957 
1 0.025574022776239005 0.27442597722376116 0.30744767620806407 -0.49122807017543862 0.49122807017543907 -0.71929824561403477 
1 -0.27200000000000002 0.32800000000000001 -0.02 0 0 1 
1 0 -0.32800000000000001 0.18800000000000003 -0.56396164615753275 0 0.82580098187352968 
1 0 -0.32800000000000001 0.18800000000000003 0 1 0 
1 0.27200000000000002 0.27200000000000002 -0.02 0 0 1 
1 0.27200000000000013 0.26111237322515213 0.13105740365111571 0 0.56396164615753319 0.82580098187352957 
1 0.27200000000000002 0.32800000000000001 -0.02 0 0 1 
1 0.27200000000000002 0.27200000000000002 -0.02 -0 1 0 
1 -0.094100338565712607 0.20589966143428737 0.050210218528777967 0.49122807017543862 0.49122807017543907 0.71929824561403477 
1 -0.32800000000000001 0.32800000000000001 0.22900000000000001 1 0 0 
8 0 0.055999999999999994
1 0.32800000000000001 -0.32800000000000001 0.26999999999999996 0 1 0 
1 0.27200000000000002 -0.27200000000000002 0.26999999999999996 1 0 -0 
1 0.27200000000000002 -0.27200000000000002 0.26999999999999996 1 0 -0 
1 0.32800000000000001 -0.27200000000000002 -0.02 0 0 1 
1 0.29999999999999999 -0.32800000000000001 0.26999999999999996 0 1 0 
1 0.21401784989858014 0.27200000000000013 0.14409756592292086 -0.56396164615753241 0 -0.82580098187353013 
1 0.36307667342799194 -0.27200000000000002 0.17763772819472626 -0.56396164615753319 -0 0.82580098187352957 
1 0.27442597722376116 0.025574022776239005 0.30744767620806407 0.49122807017543907 -0.49122807017543862 -0.71929824561403477 
1 -0.32800000000000001 0 0.18800000000000003 0 -0.56396164615753275 0.82580098187352968 
1 -0.32800000000000001 0 0.18800000000000003 1 0 0 
1 0.32800000000000001 0.27200000000000002 -0.02 0 0 1 
1 0.26111237322515213 0.27200000000000013 0.13105740365111571 0.56396164615753319 0 0.82580098187352957 
1 0.27200000000000002 0.27200000000000002 -0.02 1 0 -0 
1 0.20589966143428737 -0.094100338565712607 0.050210218528777967 0.49122807017543907 0.49122807017543862 0.71929824561403477 
1 0.32800000000000001 -0.32800000000000001 0.22900000000000001 0 1 0 
1 -0.11534379809172061 0.18465620190827936 0.43889627577716228 -0.49122807017543862 -0.49122807017543907 0.71929824561403477 
1 0.27200000000000013 0.36307667342799194 0.17763772819472626 0 -0.56396164615753319 0.82580098187352957 
1 0.27200000000000002 0.27200000000000002 -0.02 0 0 1 
1 0.27200000000000002 0.27200000000000002 0.26999999999999996 -0 1 0 
1 0 -0.32800000000000001 0.26999999999999996 0 1 0 
1 -0.028000000000000001 -0.32800000000000001 0.22900000000000001 0.56396164615753275 0 0.82580098187352968 
1 0 -0.32800000000000001 0.26999999999999996 0.56396164615753275 0 -0.82580098187352968 
1 0.028000000000000001 -0.32800000000000001 0.22900000000000001 -0.56396164615753275 0 -0.82580098187352968 
1 0.27200000000000002 0.32800000000000001 -0.02 1 0 -0 
1 0.27200000000000002 0.32800000000000001 -0.02 0 0 1 
8 0 0.055999999999999994
1 0.27200000000000002 0.32800000000000001 0.26999999999999996 1 0 0 
8 0 0.28999999999999998
1 0.32800000000000001 0.32800000000000001 0.26999999999999996 0 0 -1 
1 0.32800000000000001 0.27200000000000002 -0.02 -0 1 0 
1 0.18465620190827936 -0.11534379809172061 0.43889627577716228 -0.49122807017543907 -0.49122807017543862 0.71929824561403477 
1 0.36307667342799194 0.27200000000000013 0.17763772819472626 -0.56396164615753319 -0 0.82580098187352957 
1 0.27200000000000002 0.27200000000000002 0.26999999999999996 1 0 -0 
1 -0.32800000000000001 0 0.26999999999999996 1 0 0 
1 -0.32800000000000001 -0.028000000000000001 0.22900000000000001 0 0.56396164615753275 0.82580098187352968 
1 -0.32800000000000001 0 0.26999999999999996 0 0.56396164615753275 -0.82580098187352968 
1 -0.32800000000000001 0.028000000000000001 0.22900000000000001 0 -0.56396164615753275 -0.82580098187352968 
8 0 0.055999999999999994
1 0.32800000000000001 0.32800000000000001 0.26999999999999996 0 -1 0 
1 0.32800000000000001 0.27200000000000002 -0.02 0 0 1 
1 0.27200000000000002 0.27200000000000002 0.26999999999999996 -0 1 0 
1 0.27200000000000002 0.27200000000000002 0.26999999999999996 1 0 -0 
Polygon3D 0
PolygonOnTriangulations 0
Surfaces 108
1 -0.32800000000000001 -0.32800000000000001 -0.02 1 0 -0 0 0 1 0 -1 0 
1 -0.32800000000000001 -0.32800000000000001 -0.02 -0 1 0 0 0 1 1 0 -0 
1 -0.32800000000000001 -0.27200000000000002 -0.02 -0 1 0 0 0 1 1 0 -0 
1 -0.32800000000000001 -0.32800000000000001 -0.02 0 0 1 1 0 -0 -0 1 0 
1 -0.27200000000000002 -0.32800000000000001 -0.02 1 0 -0 0 0 1 0 -1 0 
1 -0.27200000000000002 -0.32800000000000001 0.22900000000000001 -0.82580098187353013 0 0.56396164615753241 -0.56396164615753241 0 -0.82580098187353013 -0 -1 0 
1 -0.29999999999999999 -0.32800000000000001 0.18800000000000003 0.82580098187352957 -0 0.56396164615753319 -0.56396164615753319 0 0.82580098187352957 -0 -1 0 
1 -0.32800000000000001 -0.29999999999999999 0.18800000000000003 0 -0.82580098187352957 -0.56396164615753319 0 -0.56396164615753319 0.82580098187352957 -1 -0 0 
1 -0.32800000000000001 -0.27200000000000002 0.22900000000000001 0 0.82580098187353013 -0.56396164615753241 0 -0.56396164615753241 -0.82580098187353013 -1 0 -0 
1 -0.32800000000000001 0 0.18800000000000003 0 -0.82580098187352979 -0.56396164615753286 0 -0.56396164615753286 0.82580098187352979 -1 -0 0 
1 -0.29999999999999999 -0.32800000000000001 0.26999999999999996 -0.82580098187353013 0 -0.56396164615753241 0.56396164615753241 0 -0.82580098187353013 0 -1 -0 
1 -0.32800000000000001 -0.32800000000000001 0.22900000000000001 0.82580098187352957 0 -0.56396164615753319 0.56396164615753319 0 0.82580098187352957 0 -1 0 
1 -0.32800000000000001 0 0.18800000000000003 0 -0.82580098187352979 -0.56396164615753286 0 -0.56396164615753286 0.82580098187352979 -1 -0 0 
1 -0.32800000000000001 -0.32800000000000001 0.22900000000000001 0 -0.82580098187352957 0.56396164615753319 0 0.56396164615753319 0.82580098187352957 -1 0 0 
1 0 -0.32800000000000001 0.18800000000000003 0.82580098187352979 -0 0.56396164615753286 -0.56396164615753286 0 0.82580098187352979 -0 -1 0 
1 0 -0.32800000000000001 0.18800000000000003 0.82580098187352979 -0 0.56396164615753286 -0.56396164615753286 0 0.82580098187352979 -0 -1 0 
1 -0.32800000000000001 -0.29999999999999999 0.26999999999999996 -0 0.82580098187353013 0.56396164615753241 0 0.56396164615753241 -0.82580098187353013 -1 0 -0 
1 -0.32800000000000001 -0.32800000000000001 0.26999999999999996 0 0 1 1 0 -0 -0 1 0 
1 -0.32800000000000001 -0.27200000000000002 -0.02 -0 1 0 0 0 1 1 0 -0 
1 -0.32800000000000001 -0.028000000000000001 0.22900000000000001 0 -0.82580098187352979 0.56396164615753286 0 0.56396164615753286 0.82580098187352979 -1 0 0 
1 -0.32800000000000001 0.028000000000000001 0.22900000000000001 0 0.82580098187352979 -0.56396164615753286 0 -0.56396164615753286 -0.82580098187352979 -1 0 -0 
1 -0.32800000000000001 -0.27200000000000002 -0.02 -0 1 0 0 0 1 1 0 -0 
1 -0.32800000000000001 -0.028000000000000001 0.22900000000000001 0 -0.82580098187352979 0.56396164615753286 0 0.56396164615753286 0.82580098187352979 -1 0 0 
1 -0.32800000000000012 0 0.22900000000000004 -1 -0 -0 0 0 -1 0 -1 0 
1 -0.32800000000000001 0.028000000000000001 0.22900000000000001 0 0.82580098187352979 -0.56396164615753286 0 -0.56396164615753286 -0.82580098187352979 -1 0 -0 
1 -0.27200000000000002 -0.32800000000000001 -0.02 1 0 -0 0 0 1 0 -1 0 
1 -0.028000000000000001 -0.32800000000000001 0.22900000000000001 0.82580098187352979 0 -0.56396164615753286 0.56396164615753286 0 0.82580098187352979 0 -1 0 
1 0 -0.32800000000000012 0.22900000000000004 0 1 0 0 -0 1 1 0 -0 
1 0.028000000000000001 -0.32800000000000001 0.22900000000000001 -0.82580098187352979 0 0.56396164615753286 -0.56396164615753286 0 -0.82580098187352979 -0 -1 0 
1 -0.028000000000000001 -0.32800000000000001 0.22900000000000001 0.82580098187352979 0 -0.56396164615753286 0.56396164615753286 0 0.82580098187352979 0 -1 0 
1 0.028000000000000001 -0.32800000000000001 0.22900000000000001 -0.82580098187352979 0 0.56396164615753286 -0.56396164615753286 0 -0.82580098187352979 -0 -1 0 
1 -0.27200000000000002 -0.32800000000000001 -0.02 1 0 -0 0 0 1 0 -1 0 
1 -0.32800000000000001 0 0.26999999999999996 -0 0.82580098187352979 0.56396164615753286 0 0.56396164615753286 -0.82580098187352979 -1 0 -0 
1 -0.27200000000000002 -0.32800000000000001 0.22900000000000001 -0.82580098187353013 0 0.56396164615753241 -0.56396164615753241 0 -0.82580098187353013 -0 -1 0 
1 0 -0.32800000000000001 0.18800000000000003 0.82580098187352979 -0 0.56396164615753286 -0.56396164615753286 0 0.82580098187352979 -0 -1 0 
1 -0.32800000000000001 0 0.26999999999999996 -0 0.82580098187352979 0.56396164615753286 0 0.56396164615753286 -0.82580098187352979 -1 0 -0 
1 -0.29999999999999999 -0.32800000000000001 0.18800000000000003 0.82580098187352957 -0 0.56396164615753319 -0.56396164615753319 0 0.82580098187352957 -0 -1 0 
1 0 -0.32800000000000001 0.26999999999999996 -0.82580098187352979 0 -0.56396164615753286 0.56396164615753286 0 -0.82580098187352979 0 -1 -0 
1 -0.32800000000000001 -0.29999999999999999 0.18800000000000003 0 -0.82580098187352957 -0.56396164615753319 0 -0.56396164615753319 0.82580098187352957 -1 -0 0 
1 0 -0.32800000000000001 0.26999999999999996 -0.82580098187352979 0 -0.56396164615753286 0.56396164615753286 0 -0.82580098187352979 0 -1 -0 
1 -0.32800000000000001 -0.27200000000000002 0.22900000000000001 0 0.82580098187353013 -0.56396164615753241 0 -0.56396164615753241 -0.82580098187353013 -1 0 -0 
1 -0.32800000000000001 0 0.18800000000000003 0 -0.82580098187352979 -0.56396164615753286 0 -0.56396164615753286 0.82580098187352979 -1 -0 0 
1 -0.29999999999999999 -0.32800000000000001 0.26999999999999996 -0.82580098187353013 0 -0.56396164615753241 0.56396164615753241 0 -0.82580098187353013 0 -1 -0 
1 -0.028000000000000001 -0.32800000000000001 0.22900000000000001 0.82580098187352979 0 -0.56396164615753286 0.56396164615753286 0 0.82580098187352979 0 -1 0 
1 -0.32800000000000001 0.27200000000000002 -0.02 -0 1 0 0 0 1 1 0 -0 
1 -0.32800000000000001 0.29999999999999999 0.18800000000000003 0 -0.82580098187353013 -0.56396164615753241 0 -0.56396164615753241 0.82580098187353013 -1 -0 0 
1 0.028000000000000001 -0.32800000000000001 0.22900000000000001 -0.82580098187352979 0 0.56396164615753286 -0.56396164615753286 0 -0.82580098187352979 -0 -1 0 
1 -0.32800000000000001 -0.32800000000000001 0.22900000000000001 0.82580098187352957 0 -0.56396164615753319 0.56396164615753319 0 0.82580098187352957 0 -1 0 
1 -0.32800000000000001 -0.32800000000000001 0.22900000000000001 0 -0.82580098187352957 0.56396164615753319 0 0.56396164615753319 0.82580098187352957 -1 0 0 
1 0.27200000000000002 -0.32800000000000001 -0.02 1 0 -0 0 0 1 0 -1 0 
1 -0.32800000000000001 -0.29999999999999999 0.26999999999999996 -0 0.82580098187353013 0.56396164615753241 0 0.56396164615753241 -0.82580098187353013 -1 0 -0 
1 -0.32800000000000001 -0.028000000000000001 0.22900000000000001 0 -0.82580098187352979 0.56396164615753286 0 0.56396164615753286 0.82580098187352979 -1 0 0 
1 0.29999999999999999 -0.32800000000000001 0.18800000000000003 0.82580098187353013 -0 0.56396164615753241 -0.56396164615753241 0 0.82580098187353013 -0 -1 0 
1 -0.32800000000000001 0.028000000000000001 0.22900000000000001 0 0.82580098187352979 -0.56396164615753286 0 -0.56396164615753286 -0.82580098187352979 -1 0 -0 
1 -0.32800000000000001 0.27200000000000002 -0.02 -0 1 0 0 0 1 1 0 -0 
1 0 -0.32800000000000001 0.26999999999999996 -0.82580098187352979 0 -0.56396164615753286 0.56396164615753286 0 -0.82580098187352979 0 -1 -0 
1 -0.32800000000000001 0.27200000000000002 0.22900000000000001 0 -0.82580098187353013 0.56396164615753241 0 0.56396164615753241 0.82580098187353013 -1 0 0 
1 -0.27200000000000002 0.27200000000000002 -0.02 1 0 -0 0 0 1 0 -1 0 
1 -0.32800000000000001 0.27200000000000002 -0.02 1 0 -0 0 0 1 0 -1 0 
1 -0.32800000000000001 0.27200000000000002 -0.02 0 0 1 1 0 -0 -0 1 0 
1 -0.32800000000000001 0.32800000000000001 0.22900000000000001 0 0.82580098187352957 -0.56396164615753319 0 -0.56396164615753319 -0.82580098187352957 -1 0 -0 
1 -0.32800000000000001 0.29999999999999999 0.18800000000000003 0 -0.82580098187353013 -0.56396164615753241 0 -0.56396164615753241 0.82580098187353013 -1 -0 0 
1 -0.32800000000000001 0.27200000000000002 -0.02 -0 1 0 0 0 1 1 0 -0 
1 0.27200000000000002 -0.32800000000000001 -0.02 1 0 -0 0 0 1 0 -1 0 
1 0.27200000000000002 -0.32800000000000001 -0.02 -0 1 0 0 0 1 1 0 -0 
1 0.27200000000000002 -0.27200000000000002 -0.02 -0 1 0 0 0 1 1 0 -0 
1 0.27200000000000002 -0.32800000000000001 -0.02 0 0 1 1 0 -0 -0 1 0 
1 0.27200000000000002 -0.32800000000000001 -0.02 1 0 -0 0 0 1 0 -1 0 
1 -0.32800000000000001 0 0.26999999999999996 -0 0.82580098187352979 0.56396164615753286 0 0.56396164615753286 -0.82580098187352979 -1 0 -0 
1 0.27200000000000002 -0.32800000000000001 0.22900000000000001 0.82580098187353013 0 -0.56396164615753241 0.56396164615753241 0 0.82580098187353013 0 -1 0 
1 0.32800000000000001 -0.32800000000000001 0.22900000000000001 -0.82580098187352957 0 0.56396164615753319 -0.56396164615753319 0 -0.82580098187352957 -0 -1 0 
1 0.29999999999999999 -0.32800000000000001 0.18800000000000003 0.82580098187353013 -0 0.56396164615753241 -0.56396164615753241 0 0.82580098187353013 -0 -1 0 
1 -0.27200000000000002 0.27200000000000002 -0.02 1 0 -0 0 0 1 0 -1 0 
1 -0.32800000000000001 0.27200000000000002 0.26999999999999996 0 0 1 1 0 -0 -0 1 0 
1 -0.32800000000000001 0.27200000000000002 0.22900000000000001 0 -0.82580098187353013 0.56396164615753241 0 0.56396164615753241 0.82580098187353013 -1 0 0 
1 -0.32800000000000001 0.29999999999999999 0.26999999999999996 -0 0.82580098187352957 0.56396164615753319 0 0.56396164615753319 -0.82580098187352957 -1 0 -0 
1 -0.32800000000000001 0.32800000000000001 -0.02 -0 1 0 0 0 1 1 0 -0 
1 0 -0.32800000000000001 0.18800000000000003 0.82580098187352979 -0 0.56396164615753286 -0.56396164615753286 0 0.82580098187352979 -0 -1 0 
1 0.27200000000000002 0.27200000000000002 -0.02 1 0 -0 0 0 1 0 -1 0 
1 -0.32800000000000001 0.32800000000000001 0.22900000000000001 0 0.82580098187352957 -0.56396164615753319 0 -0.56396164615753319 -0.82580098187352957 -1 0 -0 
1 0.27200000000000002 -0.32800000000000001 0.26999999999999996 0 0 1 1 0 -0 -0 1 0 
1 0.32800000000000001 -0.32800000000000001 -0.02 1 0 -0 0 0 1 0 -1 0 
1 0.27200000000000002 -0.27200000000000002 -0.02 -0 1 0 0 0 1 1 0 -0 
1 0.27200000000000002 -0.32800000000000001 0.22900000000000001 0.82580098187353013 0 -0.56396164615753241 0.56396164615753241 0 0.82580098187353013 0 -1 0 
1 0.29999999999999999 -0.32800000000000001 0.26999999999999996 -0.82580098187352957 0 -0.56396164615753319 0.56396164615753319 0 -0.82580098187352957 0 -1 -0 
1 -0.32800000000000001 0 0.18800000000000003 0 -0.82580098187352979 -0.56396164615753286 0 -0.56396164615753286 0.82580098187352979 -1 -0 0 
1 0.27200000000000002 0.27200000000000002 -0.02 -0 1 0 0 0 1 1 0 -0 
1 0.32800000000000001 -0.32800000000000001 0.22900000000000001 -0.82580098187352957 0 0.56396164615753319 -0.56396164615753319 0 -0.82580098187352957 -0 -1 0 
1 -0.32800000000000001 0.29999999999999999 0.26999999999999996 -0 0.82580098187352957 0.56396164615753319 0 0.56396164615753319 -0.82580098187352957 -1 0 -0 
1 0.27200000000000002 0.27200000000000002 -0.02 1 0 -0 0 0 1 0 -1 0 
1 -0.27200000000000002 0.27200000000000002 -0.02 1 0 -0 0 0 1 0 -1 0 
1 -0.028000000000000001 -0.32800000000000001 0.22900000000000001 0.82580098187352979 0 -0.56396164615753286 0.56396164615753286 0 0.82580098187352979 0 -1 0 
1 0 0.3279999999999999 0.22900000000000004 0 1 0 0 -0 1 1 0 -0 
1 0.028000000000000001 -0.32800000000000001 0.22900000000000001 -0.82580098187352979 0 0.56396164615753286 -0.56396164615753286 0 -0.82580098187352979 -0 -1 0 
1 0.27200000000000002 0.32800000000000001 -0.02 -0 1 0 0 0 1 1 0 -0 
1 0.27200000000000002 0.27200000000000002 -0.02 0 0 1 1 0 -0 -0 1 0 
1 0.29999999999999999 -0.32800000000000001 0.26999999999999996 -0.82580098187352957 0 -0.56396164615753319 0.56396164615753319 0 -0.82580098187352957 0 -1 -0 
1 0.27200000000000002 0.27200000000000002 -0.02 -0 1 0 0 0 1 1 0 -0 
1 0.27200000000000002 -0.27200000000000002 -0.02 -0 1 0 0 0 1 1 0 -0 
1 -0.32800000000000001 -0.028000000000000001 0.22900000000000001 0 -0.82580098187352979 0.56396164615753286 0 0.56396164615753286 0.82580098187352979 -1 0 0 
1 0.3279999999999999 0 0.22900000000000004 -1 -0 -0 0 0 -1 0 -1 0 
1 -0.32800000000000001 0.028000000000000001 0.22900000000000001 0 0.82580098187352979 -0.56396164615753286 0 -0.56396164615753286 -0.82580098187352979 -1 0 -0 
1 0.32800000000000001 0.27200000000000002 -0.02 1 0 -0 0 0 1 0 -1 0 
1 0 -0.32800000000000001 0.26999999999999996 -0.82580098187352979 0 -0.56396164615753286 0.56396164615753286 0 -0.82580098187352979 0 -1 -0 
1 0.27200000000000002 0.27200000000000002 -0.02 1 0 -0 0 0 1 0 -1 0 
1 0.27200000000000002 0.27200000000000002 0.26999999999999996 0 0 1 1 0 -0 -0 1 0 
1 -0.32800000000000001 0 0.26999999999999996 -0 0.82580098187352979 0.56396164615753286 0 0.56396164615753286 -0.82580098187352979 -1 0 -0 
1 0.27200000000000002 0.27200000000000002 -0.02 -0 1 0 0 0 1 1 0 -0 
Triangulations 0

TShapes 529
Ve
1e-07
-0.328 -0.328 -0.02
0 0

0101101
*
Ve
1e-07
-0.328 -0.328 0.27
0 0

0101101
*
Ed
 1e-07 1 1 0
1  1 0 0 0.29
0

0101000
+529 0 -528 0 *
Ve
1e-07
-0.328 -0.272 -0.02
0 0

0101101
*
Ed
 1e-07 1 1 0
1  2 0 0 0.056
0

0101000
-526 0 +529 0 *
Ve
1.50000000062063e-07
-0.328 -0.272 0.229
0 0

0101101
*
Ed
 1e-07 1 1 0
1  3 0 0 0.249
0

0101000
+526 0 -524 0 *
Ve
1e-07
-0.328 -0.272 0.27
0 0

0101101
*
Ed
 1e-07 1 1 0
1  4 0 0.249 0.29
0

0101000
+524 0 -522 0 *
Ed
 1e-07 1 1 0
1  5 0 0 0.056
0

0101000
+528 0 -522 0 *
Wi

0101100
-527 0 +525 0 +523 0 +521 0 -520 0 *
Fa
0  1e-07 1 0

0111000
+519 0 *
Ve
1e-07
-0.272 -0.328 -0.02
0 0

0101101
*
Ve
1.50000000062063e-07
-0.272 -0.328 0.229
0 0

0101101
*
Ed
 1e-07 1 1 0
1  6 0 0 0.249
0

0101000
+517 0 -516 0 *
Ed
 1e-07 1 1 0
1  7 0 0 0.056
0

0101000
-517 0 +529 0 *
Ve
1e-07
-0.272 -0.328 0.27
0 0

0101101
*
Ed
 1e-07 1 1 0
1  8 0 0 0.056
0

0101000
+513 0 -528 0 *
Ed
 1e-07 1 1 0
1  9 0 0.249 0.29
0

0101000
+516 0 -513 0 *
Wi

0101100
-515 0 -514 0 +527 0 -512 0 -511 0 *
Fa
0  1e-07 2 0

0111000
+510 0 *
Ve
1e-07
-0.272 -0.272 -0.02
0 0

0101101
*
Ve
1.50000000083267e-07
-0.272 -0.272 0.229
0 0

0101101
*
Ed
 1e-07 1 1 0
1  10 0 0 0.249
0

0101000
+508 0 -507 0 *
Ve
1.50000000027756e-07
-0.3 -0.272 0.188
0 0

0101101
*
Ed
 1.5e-07 1 1 0
1  11 0 0.0689543819864398 0.118603148335665
0

0101000
+505 0 -507 0 *
Ed
 1.5e-07 1 1 0
1  12 0 -0.127636605417867 -0.0779878390686416
0

0101000
+524 0 -505 0 *
Ed
 1e-07 1 1 0
1  13 0 0 0.056
0

0101000
-508 0 +526 0 *
Wi

0101100
-506 0 +504 0 +503 0 +523 0 -502 0 *
Fa
0  1e-07 3 0

0101000
+501 0 *
Ed
 1e-07 1 1 0
1  14 0 0 0.056
0

0101000
-508 0 +517 0 *
Wi

0101100
-525 0 -502 0 +499 0 +514 0 *
Fa
0  1e-07 4 0

0111000
+498 0 *
Ve
1.50000000027756e-07
-0.272 -0.3 0.188
0 0

0101101
*
Ed
 1.5e-07 1 1 0
1  15 0 -0.127636605417867 -0.0779878390686416
0

0101000
+516 0 -496 0 *
Ed
 1.5e-07 1 1 0
1  16 0 0.0689543819864398 0.118603148335665
0

0101000
+496 0 -507 0 *
Wi

0101100
-515 0 -495 0 -494 0 +506 0 +499 0 *
Fa
0  1e-07 5 0

0101000
+493 0 *
Ve
1.50000000124127e-07
-0.3 0 0.188
0 0

0101101
*
Ed
 1e-07 1 1 0
1  17 0 0.056 0.328
0

0101000
+505 0 -491 0 *
Ve
1.50000000097701e-07
-0.272 -0.028 0.229
0 0

0101101
*
Ed
 1.5e-07 1 1 0
1  18 0 0.0383070175438598 0.0953070175438597
0

0101000
+489 0 -491 0 *
Ed
 1e-07 1 1 0
1  19 0 0.056 0.3
0

0101000
+507 0 -489 0 *
Wi

0101100
+504 0 -490 0 +488 0 +487 0 *
Fa
0  1e-07 6 0

0101000
+486 0 *
Ve
1.50000000108888e-07
-0.328 -0.028 0.229
0 0

0101101
*
Ed
 1e-07 1 1 0
1  20 0 0.056 0.3
0

0101000
+524 0 -484 0 *
Ed
 1.5e-07 1 1 0
1  21 0 -0.0874385964912281 -0.0304385964912282
0

0101000
+491 0 -484 0 *
Wi

0101100
+503 0 -483 0 +482 0 +490 0 *
Fa
0  1e-07 7 0

0101000
+481 0 *
Ve
1.50000000108888e-07
-0.028 -0.328 0.229
0 0

0101101
*
Ed
 1e-07 1 1 0
1  22 0 0.056 0.3
0

0101000
+516 0 -479 0 *
Ve
1.50000000124127e-07
0 -0.3 0.188
0 0

0101101
*
Ed
 1.5e-07 1 1 0
1  23 0 -0.0874385964912281 -0.0304385964912282
0

0101000
+477 0 -479 0 *
Ed
 1e-07 1 1 0
1  24 0 0.056 0.328
0

0101000
+496 0 -477 0 *
Wi

0101100
+495 0 -478 0 +476 0 +475 0 *
Fa
0  1e-07 8 0

0101000
+474 0 *
Ve
1.50000000097701e-07
-0.028 -0.272 0.229
0 0

0101101
*
Ed
 1.5e-07 1 1 0
1  25 0 0.0383070175438598 0.0953070175438597
0

0101000
+472 0 -477 0 *
Ed
 1e-07 1 1 0
1  26 0 0.056 0.3
0

0101000
+507 0 -472 0 *
Wi

0101100
+494 0 -475 0 +471 0 +470 0 *
Fa
0  1e-07 9 0

0101000
+469 0 *
Ve
1.50000000065093e-07
-0.028 -0.028 0.229
0 0

0101101
*
Ed
 1e-07 1 1 0
1  27 0 0.056 0.3
0

0101000
+489 0 -467 0 *
Ve
1.50000000091036e-07
0 0 0.188
0 0

0101101
*
Ed
 1.5e-07 1 1 0
1  28 0 -0.161122807017544 -0.104122807017544
0

0101000
+465 0 -467 0 *
Ed
 1e-07 1 1 0
1  29 0 0.028 0.328
0

0101000
+491 0 -465 0 *
Wi

0101100
+488 0 -466 0 +464 0 +463 0 *
Fa
0  1e-07 10 0

0101000
+462 0 *
Ve
1.50000000055511e-07
-0.3 -0.272 0.27
0 0

0101101
*
Ed
 1.5e-07 1 1 0
1  30 0 0.0621969129762309 0.111845679325456
0

0101000
+507 0 -460 0 *
Ve
1.50000000117961e-07
-0.3 0 0.27
0 0

0101101
*
Ed
 1.5e-07 1 1 0
1  31 0 -0.0953070175438597 -0.0383070175438597
0

0101000
+458 0 -489 0 *
Ed
 1e-07 1 1 0
1  32 0 0.056 0.328
0

0101000
+460 0 -458 0 *
Wi

0101100
+459 0 -487 0 +457 0 +456 0 *
Fa
0  1e-07 11 0

0101000
+455 0 *
Ed
 1.5e-07 1 1 0
1  33 0 -0.15246098859248 -0.102812222243254
0

0101000
+460 0 -524 0 *
Ed
 1.5e-07 1 1 0
1  34 0 0.0736842105263158 0.130684210526316
0

0101000
+484 0 -458 0 *
Wi

0101100
+453 0 -456 0 +452 0 +483 0 *
Fa
0  1e-07 12 0

0101000
+451 0 *
Ve
1e-07
-0.328 0 0.188
0 0

0101101
*
Ed
 1e-07 1 1 0
1  35 0 0 0.0496487663492256
0

0101000
+449 0 -484 0 *
Ed
 1e-07 1 1 0
1  36 0 0 0.028
0

0101000
+449 0 -491 0 *
Wi

0101100
-448 0 +482 0 +447 0 *
Fa
0  1e-07 13 0

0101000
+446 0 *
Ve
1.50000000055511e-07
-0.272 -0.3 0.27
0 0

0101101
*
Ed
 1.5e-07 1 1 0
1  37 0 -0.15246098859248 -0.102812222243254
0

0101000
+444 0 -516 0 *
Ve
1.50000000117961e-07
0 -0.3 0.27
0 0

0101101
*
Ed
 1e-07 1 1 0
1  38 0 0.056 0.328
0

0101000
+444 0 -442 0 *
Ed
 1.5e-07 1 1 0
1  39 0 0.0736842105263158 0.130684210526316
0

0101000
+479 0 -442 0 *
Wi

0101100
+443 0 -441 0 +440 0 +478 0 *
Fa
0  1e-07 14 0

0101000
+439 0 *
Ve
1e-07
0 -0.328 0.188
0 0

0101101
*
Ed
 1e-07 1 1 0
1  40 0 0 0.0496487663492256
0

0101000
+437 0 -479 0 *
Ed
 1e-07 1 1 0
1  41 0 0 0.028
0

0101000
+437 0 -477 0 *
Wi

0101100
-436 0 +476 0 +435 0 *
Fa
0  1e-07 15 0

0101000
+434 0 *
Ed
 1e-07 1 1 0
1  42 0 0.056 0.3
0

0101000
+472 0 -467 0 *
Ed
 1e-07 1 1 0
1  43 0 0.028 0.328
0

0101000
+477 0 -465 0 *
Wi

0101100
+471 0 -432 0 +464 0 +431 0 *
Fa
0  1e-07 16 0

0101000
+430 0 *
Ed
 1.5e-07 1 1 0
1  44 0 0.0621969129762309 0.111845679325456
0

0101000
+507 0 -444 0 *
Ed
 1.5e-07 1 1 0
1  45 0 -0.0953070175438597 -0.0383070175438597
0

0101000
+442 0 -472 0 *
Wi

0101100
+428 0 -470 0 +427 0 +441 0 *
Fa
0  1e-07 17 0

0101000
+426 0 *
Ed
 1e-07 1 1 0
1  46 0 0 0.028
0

0101000
+513 0 -444 0 *
Ve
1e-07
-0.272 -0.272 0.27
0 0

0101101
*
Ed
 1e-07 1 1 0
1  47 0 0.028 0.056
0

0101000
+444 0 -423 0 *
Ed
 1e-07 1 1 0
1  48 0 0.028 0.056
0

0101000
+460 0 -423 0 *
Ed
 1e-07 1 1 0
1  49 0 0 0.028
0

0101000
+522 0 -460 0 *
Wi

0101100
-520 0 -512 0 +424 0 +422 0 -421 0 -420 0 *
Fa
0  1e-07 18 0

0111000
+419 0 *
Wi

0101100
+453 0 +420 0 +521 0 *
Fa
0  1e-07 19 0

0101000
+417 0 *
Ve
1.50000000084308e-07
0 0 0.27
0 0

0101101
*
Ed
 1e-07 1 1 0
1  50 0 0.028 0.328
0

0101000
+458 0 -415 0 *
Ed
 1.5e-07 1 1 0
1  51 0 0.147368421052632 0.204368421052632
0

0101000
+467 0 -415 0 *
Wi

0101100
+457 0 -414 0 +413 0 +466 0 *
Fa
0  1e-07 20 0

0101000
+412 0 *
Ve
1.50000000080995e-07
-0.272 0.028 0.229
0 0

0101101
*
Ed
 1.5e-07 1 1 0
1  52 0 0.0441929824561404 0.10119298245614
0

0101000
+491 0 -410 0 *
Ve
1.50000000095772e-07
-0.028 0.028 0.229
0 0

0101101
*
Ed
 1.5e-07 1 1 0
1  53 0 -0.0353771929824561 0.0216228070175438
0

0101000
+408 0 -465 0 *
Ed
 1e-07 1 1 0
1  54 0 0.056 0.3
0

0101000
+410 0 -408 0 *
Wi

0101100
+409 0 -463 0 +407 0 +406 0 *
Fa
0  1e-07 21 0

0101000
+405 0 *
Ed
 1e-07 1 1 0
1  55 0 0.249 0.29
0

0101000
+507 0 -423 0 *
Wi

0101100
-403 0 +421 0 +459 0 *
Fa
0  1e-07 22 0

0101000
+402 0 *
Ve
1e-07
-0.328 0 0.27
0 0

0101101
*
Ed
 1e-07 1 1 0
1  56 0 0 0.0496487663492256
0

0101000
+484 0 -400 0 *
Ed
 1e-07 1 1 0
1  57 0 0 0.028
0

0101000
+400 0 -458 0 *
Wi

0101100
-399 0 -398 0 +452 0 *
Fa
0  1e-07 23 0

0101000
+397 0 *
Ve
1.50000000101567e-07
-0.328 0.028 0.229
0 0

0101101
*
Ed
 1e-07 1 1 0
1  58 0 0 0.0496487663492256
0

0101000
+400 0 -395 0 *
Ed
 1e-07 1 1 0
1  59 0 0 0.0496487663492256
0

0101000
+395 0 -449 0 *
Wi

0101100
+448 0 +399 0 +394 0 +393 0 *
Fa
0  1e-07 24 0

0101000
+392 0 *
Ed
 1.5e-07 1 1 0
1  60 0 -0.109061403508772 -0.052061403508772
0

0101000
+395 0 -491 0 *
Wi

0101100
-393 0 -447 0 +390 0 *
Fa
0  1e-07 25 0

0101000
+389 0 *
Wi

0101100
-511 0 -424 0 -443 0 *
Fa
0  1e-07 26 0

0101000
+387 0 *
Ve
1e-07
0 -0.328 0.27
0 0

0101101
*
Ed
 1e-07 1 1 0
1  61 0 0 0.0496487663492256
0

0101000
+479 0 -385 0 *
Ed
 1e-07 1 1 0
1  62 0 0 0.028
0

0101000
+385 0 -442 0 *
Wi

0101100
-384 0 -383 0 +440 0 *
Fa
0  1e-07 27 0

0101000
+382 0 *
Ve
1.50000000101567e-07
0.028 -0.328 0.229
0 0

0101101
*
Ed
 1e-07 1 1 0
1  63 0 0 0.0496487663492256
0

0101000
+385 0 -380 0 *
Ed
 1e-07 1 1 0
1  64 0 0 0.0496487663492256
0

0101000
+380 0 -437 0 *
Wi

0101100
+436 0 +384 0 +379 0 +378 0 *
Fa
0  1e-07 28 0

0101000
+377 0 *
Ed
 1.5e-07 1 1 0
1  65 0 -0.109061403508772 -0.052061403508772
0

0101000
+380 0 -477 0 *
Wi

0101100
-378 0 -435 0 +375 0 *
Fa
0  1e-07 29 0

0101000
+374 0 *
Ed
 1e-07 1 1 0
1  66 0 0.028 0.328
0

0101000
+442 0 -415 0 *
Wi

0101100
+427 0 -372 0 +413 0 +432 0 *
Fa
0  1e-07 30 0

0101000
+371 0 *
Ve
1.50000000080995e-07
0.028 -0.272 0.229
0 0

0101101
*
Ed
 1.5e-07 1 1 0
1  67 0 0.0441929824561404 0.10119298245614
0

0101000
+477 0 -369 0 *
Ve
1.50000000095772e-07
0.028 -0.028 0.229
0 0

0101101
*
Ed
 1.5e-07 1 1 0
1  68 0 -0.0353771929824561 0.0216228070175438
0

0101000
+367 0 -465 0 *
Ed
 1e-07 1 1 0
1  69 0 0.056 0.3
0

0101000
+369 0 -367 0 *
Wi

0101100
+368 0 -431 0 +366 0 +365 0 *
Fa
0  1e-07 31 0

0101000
+364 0 *
Wi

0101100
-428 0 -422 0 +403 0 *
Fa
0  1e-07 32 0

0101000
+362 0 *
Ed
 1.5e-07 1 1 0
1  70 0 -0.144438596491228 -0.0874385964912282
0

0101000
+410 0 -458 0 *
Ed
 1.5e-07 1 1 0
1  71 0 -0.0216228070175438 0.0353771929824562
0

0101000
+415 0 -408 0 *
Wi

0101100
+360 0 -406 0 +359 0 +414 0 *
Fa
0  1e-07 33 0

0101000
+358 0 *
Ve
1.50000000062063e-07
-0.3 0.272 0.188
0 0

0101101
*
Ed
 1e-07 1 1 0
1  72 0 0.328 0.6
0

0101000
+491 0 -356 0 *
Ve
1.50000000228878e-07
-0.272 0.272 0.229
0 0

0101101
*
Ed
 1.5e-07 1 1 0
1  73 0 0.0689543819864398 0.118603148335665
0

0101000
+356 0 -354 0 *
Ed
 1e-07 1 1 0
1  74 0 0.356 0.6
0

0101000
+410 0 -354 0 *
Wi

0101100
+409 0 -355 0 -353 0 +352 0 *
Fa
0  1e-07 34 0

0101000
+351 0 *
Ve
1.500000001694e-07
-0.028 0.272 0.229
0 0

0101101
*
Ed
 1e-07 1 1 0
1  75 0 0.356 0.6
0

0101000
+408 0 -349 0 *
Ve
1.50000000180411e-07
0 0.3 0.188
0 0

0101101
*
Ed
 1.5e-07 1 1 0
1  76 0 -0.23480701754386 -0.17780701754386
0

0101000
+347 0 -349 0 *
Ed
 1e-07 1 1 0
1  77 0 0.328 0.628
0

0101000
+465 0 -347 0 *
Wi

0101100
+407 0 -348 0 +346 0 +345 0 *
Fa
0  1e-07 35 0

0101000
+344 0 *
Ed
 1.5e-07 1 1 0
1  78 0 0.052061403508772 0.109061403508772
0

0101000
+458 0 -395 0 *
Wi

0101100
-394 0 +342 0 +398 0 *
Fa
0  1e-07 36 0

0101000
+341 0 *
Ve
1.50000000230555e-07
-0.328 0.272 0.229
0 0

0101101
*
Ed
 1e-07 1 1 0
1  79 0 0.356 0.6
0

0101000
+395 0 -339 0 *
Ed
 1.5e-07 1 1 0
1  80 0 -0.127636605417867 -0.0779878390686416
0

0101000
+339 0 -356 0 *
Wi

0101100
+390 0 -338 0 -337 0 +355 0 *
Fa
0  1e-07 37 0

0101000
+336 0 *
Ed
 1.5e-07 1 1 0
1  81 0 0.052061403508772 0.109061403508772
0

0101000
+442 0 -380 0 *
Wi

0101100
-379 0 +334 0 +383 0 *
Fa
0  1e-07 38 0

0101000
+333 0 *
Ve
1.50000000230555e-07
0.272 -0.328 0.229
0 0

0101101
*
Ed
 1e-07 1 1 0
1  82 0 0.356 0.6
0

0101000
+380 0 -331 0 *
Ve
1.50000000062063e-07
0.272 -0.3 0.188
0 0

0101101
*
Ed
 1.5e-07 1 1 0
1  83 0 -0.127636605417867 -0.0779878390686416
0

0101000
+331 0 -329 0 *
Ed
 1e-07 1 1 0
1  84 0 0.328 0.6
0

0101000
+477 0 -329 0 *
Wi

0101100
+375 0 -330 0 -328 0 +327 0 *
Fa
0  1e-07 39 0

0101000
+326 0 *
Ed
 1.5e-07 1 1 0
1  85 0 -0.144438596491228 -0.0874385964912282
0

0101000
+369 0 -442 0 *
Ed
 1.5e-07 1 1 0
1  86 0 -0.0216228070175438 0.0353771929824562
0

0101000
+415 0 -367 0 *
Wi

0101100
+324 0 -365 0 +323 0 +372 0 *
Fa
0  1e-07 40 0

0101000
+322 0 *
Ve
1.50000000228878e-07
0.272 -0.272 0.229
0 0

0101101
*
Ed
 1.5e-07 1 1 0
1  87 0 0.0689543819864398 0.118603148335665
0

0101000
+329 0 -320 0 *
Ed
 1e-07 1 1 0
1  88 0 0.356 0.6
0

0101000
+369 0 -320 0 *
Wi

0101100
+368 0 -327 0 -319 0 +318 0 *
Fa
0  1e-07 41 0

0101000
+317 0 *
Ve
1.500000001694e-07
0.272 -0.028 0.229
0 0

0101101
*
Ed
 1e-07 1 1 0
1  89 0 0.356 0.6
0

0101000
+367 0 -315 0 *
Ve
1.50000000180411e-07
0.3 0 0.188
0 0

0101101
*
Ed
 1.5e-07 1 1 0
1  90 0 -0.23480701754386 -0.17780701754386
0

0101000
+313 0 -315 0 *
Ed
 1e-07 1 1 0
1  91 0 0.328 0.628
0

0101000
+465 0 -313 0 *
Wi

0101100
+366 0 -314 0 +312 0 +311 0 *
Fa
0  1e-07 42 0

0101000
+310 0 *
Ve
1.50000000124127e-07
-0.3 0.272 0.27
0 0

0101101
*
Ed
 1.5e-07 1 1 0
1  92 0 0.0621969129762309 0.111845679325456
0

0101000
+354 0 -308 0 *
Ed
 1e-07 1 1 0
1  93 0 0.328 0.6
0

0101000
+458 0 -308 0 *
Wi

0101100
+360 0 -352 0 -307 0 +306 0 *
Fa
0  1e-07 43 0

0101000
+305 0 *
Ve
1.50000000188758e-07
0 0.3 0.27
0 0

0101101
*
Ed
 1e-07 1 1 0
1  94 0 0.328 0.628
0

0101000
+415 0 -303 0 *
Ed
 1.5e-07 1 1 0
1  95 0 0.221052631578947 0.278052631578947
0

0101000
+349 0 -303 0 *
Wi

0101100
-302 0 +301 0 +348 0 +359 0 *
Fa
0  1e-07 44 0

0101000
+300 0 *
Ve
1e-07
-0.272 0.272 -0.02
0 0

0101101
*
Ed
 1e-07 1 1 0
1  96 0 0 0.249
0

0101000
+298 0 -354 0 *
Ve
1e-07
-0.328 0.272 -0.02
0 0

0101101
*
Ed
 1e-07 1 1 0
1  97 0 0 0.249
0

0101000
+296 0 -339 0 *
Ed
 1e-07 1 1 0
1  98 0 0 0.056
0

0101000
-298 0 +296 0 *
Wi

0101100
-297 0 +353 0 +337 0 +295 0 -294 0 *
Fa
0  1e-07 45 0

0101000
+293 0 *
Ve
1.5e-07
-0.272 0.3 0.188
0 0

0101101
*
Ed
 1.5e-07 1 1 0
1  99 0 -0.127636605417867 -0.0779878390686417
0

0101000
+354 0 -291 0 *
Ed
 1e-07 1 1 0
1  100 0 0.056 0.3
0

0101000
+354 0 -349 0 *
Ed
 1e-07 1 1 0
1  101 0 0.056 0.328
0

0101000
+291 0 -347 0 *
Wi

0101100
+290 0 -289 0 +346 0 +288 0 *
Fa
0  1e-07 46 0

0101000
+287 0 *
Ve
1.50000000192421e-07
0.028 0.272 0.229
0 0

0101101
*
Ed
 1.5e-07 1 1 0
1  102 0 0.0383070175438596 0.0953070175438594
0

0101000
+285 0 -347 0 *
Ve
1.50000000056372e-07
0.028 0.028 0.229
0 0

0101101
*
Ed
 1e-07 1 1 0
1  103 0 0.356 0.6
0

0101000
+283 0 -285 0 *
Ed
 1.5e-07 1 1 0
1  104 0 0.117877192982456 0.174877192982456
0

0101000
+465 0 -283 0 *
Wi

0101100
-345 0 +284 0 +282 0 +281 0 *
Fa
0  1e-07 47 0

0101000
+280 0 *
Ed
 1.5e-07 1 1 0
1  105 0 -0.15246098859248 -0.102812222243254
0

0101000
+308 0 -339 0 *
Wi

0101100
+342 0 -306 0 -278 0 +338 0 *
Fa
0  1e-07 48 0

0101000
+277 0 *
Ve
1.50000000124127e-07
0.272 -0.3 0.27
0 0

0101101
*
Ed
 1e-07 1 1 0
1  106 0 0.328 0.6
0

0101000
+442 0 -275 0 *
Ed
 1.5e-07 1 1 0
1  107 0 -0.15246098859248 -0.102812222243254
0

0101000
+275 0 -331 0 *
Wi

0101100
+334 0 -274 0 -273 0 +330 0 *
Fa
0  1e-07 49 0

0101000
+272 0 *
Ve
1e-07
0.272 -0.328 -0.02
0 0

0101101
*
Ed
 1e-07 1 1 0
1  108 0 0 0.249
0

0101000
+270 0 -331 0 *
Ve
1e-07
0.272 -0.272 -0.02
0 0

0101101
*
Ed
 1e-07 1 1 0
1  109 0 0 0.249
0

0101000
+268 0 -320 0 *
Ed
 1e-07 1 1 0
1  110 0 0 0.056
0

0101000
-268 0 +270 0 *
Wi

0101100
-269 0 -328 0 -319 0 +267 0 +266 0 *
Fa
0  1e-07 50 0

0101000
+265 0 *
Ed
 1.5e-07 1 1 0
1  111 0 0.0621969129762309 0.111845679325456
0

0101000
+320 0 -275 0 *
Wi

0101100
+324 0 -318 0 -263 0 +274 0 *
Fa
0  1e-07 51 0

0101000
+262 0 *
Ve
1.50000000188758e-07
0.3 0 0.27
0 0

0101101
*
Ed
 1e-07 1 1 0
1  112 0 0.328 0.628
0

0101000
+415 0 -260 0 *
Ed
 1.5e-07 1 1 0
1  113 0 0.221052631578947 0.278052631578947
0

0101000
+315 0 -260 0 *
Wi

0101100
-259 0 +258 0 +314 0 +323 0 *
Fa
0  1e-07 52 0

0101000
+257 0 *
Ve
1.5e-07
0.3 -0.272 0.188
0 0

0101101
*
Ed
 1.5e-07 1 1 0
1  114 0 -0.127636605417867 -0.0779878390686417
0

0101000
+320 0 -255 0 *
Ed
 1e-07 1 1 0
1  115 0 0.056 0.3
0

0101000
+320 0 -315 0 *
Ed
 1e-07 1 1 0
1  116 0 0.056 0.328
0

0101000
+255 0 -313 0 *
Wi

0101100
+254 0 -253 0 +312 0 +252 0 *
Fa
0  1e-07 53 0

0101000
+251 0 *
Ve
1.50000000192421e-07
0.272 0.028 0.229
0 0

0101101
*
Ed
 1.5e-07 1 1 0
1  117 0 0.0383070175438596 0.0953070175438594
0

0101000
+249 0 -313 0 *
Ed
 1e-07 1 1 0
1  118 0 0.356 0.6
0

0101000
+283 0 -249 0 *
Wi

0101100
-311 0 +248 0 +247 0 +281 0 *
Fa
0  1e-07 54 0

0101000
+246 0 *
Ve
1e-07
-0.272 0.272 0.27
0 0

0101101
*
Ed
 1e-07 1 1 0
1  119 0 0.249 0.29
0

0101000
+354 0 -244 0 *
Ed
 1e-07 1 1 0
1  120 0 0.028 0.056
0

0101000
+308 0 -244 0 *
Wi

0101100
-243 0 +242 0 +307 0 *
Fa
0  1e-07 55 0

0101000
+241 0 *
Ed
 1.5e-07 1 1 0
1  121 0 -0.218122807017544 -0.161122807017544
0

0101000
+283 0 -415 0 *
Ed
 1.5e-07 1 1 0
1  122 0 -0.0953070175438595 -0.0383070175438596
0

0101000
+303 0 -285 0 *
Wi

0101100
+239 0 -282 0 +238 0 +302 0 *
Fa
0  1e-07 56 0

0101000
+237 0 *
Ve
1.50000000055511e-07
-0.272 0.3 0.27
0 0

0101101
*
Ed
 1.5e-07 1 1 0
1  123 0 -0.15246098859248 -0.102812222243255
0

0101000
+235 0 -354 0 *
Ed
 1e-07 1 1 0
1  124 0 0.056 0.328
0

0101000
+235 0 -303 0 *
Wi

0101100
+234 0 -233 0 +301 0 +289 0 *
Fa
0  1e-07 57 0

0101000
+232 0 *
Ve
1.50000000062063e-07
-0.272 0.328 0.229
0 0

0101101
*
Ed
 1.5e-07 1 1 0
1  125 0 0.0689543819864397 0.118603148335665
0

0101000
+291 0 -230 0 *
Ve
1e-07
-0.272 0.328 -0.02
0 0

0101101
*
Ed
 1e-07 1 1 0
1  126 0 0 0.249
0

0101000
+228 0 -230 0 *
Ed
 1e-07 1 1 0
1  127 0 0 0.056
0

0101000
-228 0 +298 0 *
Wi

0101100
-297 0 -290 0 -229 0 +227 0 +226 0 *
Fa
0  1e-07 58 0

0101000
+225 0 *
Ve
1e-07
-0.328 0.328 -0.02
0 0

0101101
*
Ed
 1e-07 1 1 0
1  128 0 0 0.056
0

0101000
-223 0 +296 0 *
Ve
1e-07
-0.328 0.328 0.27
0 0

0101101
*
Ed
 1e-07 1 1 0
1  129 0 0 0.29
0

0101000
+221 0 -223 0 *
Ve
1e-07
-0.328 0.272 0.27
0 0

0101101
*
Ed
 1e-07 1 1 0
1  130 0 0 0.056
0

0101000
+219 0 -221 0 *
Ed
 1e-07 1 1 0
1  131 0 0.249 0.29
0

0101000
+339 0 -219 0 *
Wi

0101100
-295 0 +222 0 -220 0 -218 0 -217 0 *
Fa
0  1e-07 59 0

0111000
+216 0 *
Ed
 1e-07 1 1 0
1  132 0 0 0.056
0

0101000
-228 0 +223 0 *
Wi

0101100
-222 0 -214 0 +226 0 +294 0 *
Fa
0  1e-07 60 0

0111000
+213 0 *
Ve
1.50000000108888e-07
-0.028 0.328 0.229
0 0

0101101
*
Ed
 1.5e-07 1 1 0
1  133 0 -0.109061403508772 -0.0520614035087721
0

0101000
+211 0 -347 0 *
Ed
 1e-07 1 1 0
1  134 0 0.056 0.3
0

0101000
+230 0 -211 0 *
Wi

0101100
+229 0 -288 0 +210 0 +209 0 *
Fa
0  1e-07 61 0

0101000
+208 0 *
Ve
1.50000000159444e-07
0.272 0.272 0.229
0 0

0101101
*
Ed
 1e-07 1 1 0
1  135 0 0.356 0.6
0

0101000
+285 0 -206 0 *
Ve
1.50000000055511e-07
0.272 0.3 0.188
0 0

0101101
*
Ed
 1.5e-07 1 1 0
1  136 0 -0.127636605417867 -0.0779878390686417
0

0101000
+206 0 -204 0 *
Ed
 1e-07 1 1 0
1  137 0 0.328 0.6
0

0101000
+347 0 -204 0 *
Wi

0101100
+284 0 -205 0 -203 0 +202 0 *
Fa
0  1e-07 62 0

0101000
+201 0 *
Ed
 1e-07 1 1 0
1  138 0 0 0.028
0

0101000
+219 0 -308 0 *
Wi

0101100
+278 0 +199 0 +217 0 *
Fa
0  1e-07 63 0

0101000
+198 0 *
Ve
1e-07
0.272 -0.328 0.27
0 0

0101101
*
Ed
 1e-07 1 1 0
1  139 0 0.249 0.29
0

0101000
+331 0 -196 0 *
Ed
 1e-07 1 1 0
1  140 0 0 0.028
0

0101000
+196 0 -275 0 *
Wi

0101100
-195 0 -194 0 -273 0 *
Fa
0  1e-07 64 0

0101000
+193 0 *
Ve
1e-07
0.328 -0.328 -0.02
0 0

0101101
*
Ve
1e-07
0.328 -0.328 0.27
0 0

0101101
*
Ed
 1e-07 1 1 0
1  141 0 0 0.29
0

0101000
+191 0 -190 0 *
Ed
 1e-07 1 1 0
1  142 0 0 0.056
0

0101000
-191 0 +270 0 *
Ed
 1e-07 1 1 0
1  143 0 0 0.056
0

0101000
+190 0 -196 0 *
Wi

0101100
-189 0 -188 0 +269 0 +195 0 -187 0 *
Fa
0  1e-07 65 0

0111000
+186 0 *
Ve
1e-07
0.328 -0.272 -0.02
0 0

0101101
*
Ve
1.50000000062063e-07
0.328 -0.272 0.229
0 0

0101101
*
Ed
 1e-07 1 1 0
1  144 0 0 0.249
0

0101000
+184 0 -183 0 *
Ed
 1.5e-07 1 1 0
1  145 0 0.0689543819864397 0.118603148335665
0

0101000
+255 0 -183 0 *
Ed
 1e-07 1 1 0
1  146 0 0 0.056
0

0101000
-184 0 +268 0 *
Wi

0101100
-182 0 +181 0 +254 0 +267 0 -180 0 *
Fa
0  1e-07 66 0

0101000
+179 0 *
Ed
 1e-07 1 1 0
1  147 0 0 0.056
0

0101000
-184 0 +191 0 *
Wi

0101100
-266 0 -180 0 +177 0 +188 0 *
Fa
0  1e-07 67 0

0111000
+176 0 *
Ve
1e-07
0.272 -0.272 0.27
0 0

0101101
*
Ed
 1e-07 1 1 0
1  148 0 0.028 0.056
0

0101000
+275 0 -174 0 *
Ed
 1e-07 1 1 0
1  149 0 0.249 0.29
0

0101000
+320 0 -174 0 *
Wi

0101100
-263 0 -173 0 +172 0 *
Fa
0  1e-07 68 0

0101000
+171 0 *
Ed
 1.5e-07 1 1 0
1  150 0 -0.0953070175438595 -0.0383070175438596
0

0101000
+260 0 -249 0 *
Wi

0101100
+239 0 -247 0 +169 0 +259 0 *
Fa
0  1e-07 69 0

0101000
+168 0 *
Ve
1.50000000055511e-07
0.3 -0.272 0.27
0 0

0101101
*
Ed
 1.5e-07 1 1 0
1  151 0 -0.15246098859248 -0.102812222243255
0

0101000
+166 0 -320 0 *
Ed
 1e-07 1 1 0
1  152 0 0.056 0.328
0

0101000
+166 0 -260 0 *
Wi

0101100
+165 0 -164 0 +258 0 +253 0 *
Fa
0  1e-07 70 0

0101000
+163 0 *
Ve
1.50000000108888e-07
0.328 -0.028 0.229
0 0

0101101
*
Ed
 1.5e-07 1 1 0
1  153 0 -0.109061403508772 -0.0520614035087721
0

0101000
+161 0 -313 0 *
Ed
 1e-07 1 1 0
1  154 0 0.056 0.3
0

0101000
+183 0 -161 0 *
Wi

0101100
+181 0 -252 0 +160 0 +159 0 *
Fa
0  1e-07 71 0

0101000
+158 0 *
Ed
 1e-07 1 1 0
1  155 0 0.356 0.6
0

0101000
+249 0 -206 0 *
Ve
1.50000000055511e-07
0.3 0.272 0.188
0 0

0101101
*
Ed
 1.5e-07 1 1 0
1  156 0 -0.127636605417867 -0.0779878390686417
0

0101000
+206 0 -155 0 *
Ed
 1e-07 1 1 0
1  157 0 0.328 0.6
0

0101000
+313 0 -155 0 *
Wi

0101100
+248 0 -156 0 -154 0 +153 0 *
Fa
0  1e-07 72 0

0101000
+152 0 *
Ed
 1e-07 1 1 0
1  158 0 0 0.028
0

0101000
+244 0 -235 0 *
Wi

0101100
-243 0 -150 0 -234 0 *
Fa
0  1e-07 73 0

0101000
+149 0 *
Ve
1e-07
-0.272 0.328 0.27
0 0

0101101
*
Ed
 1e-07 1 1 0
1  159 0 0.028 0.056
0

0101000
+235 0 -147 0 *
Ed
 1e-07 1 1 0
1  160 0 0 0.056
0

0101000
+147 0 -221 0 *
Wi

0101100
+150 0 +146 0 +145 0 -218 0 +199 0 +242 0 *
Fa
0  1e-07 74 0

0111000
+144 0 *
Ve
1.50000000124127e-07
0.272 0.3 0.27
0 0

0101101
*
Ed
 1e-07 1 1 0
1  161 0 0.328 0.6
0

0101000
+303 0 -142 0 *
Ed
 1.5e-07 1 1 0
1  162 0 -0.15246098859248 -0.102812222243255
0

0101000
+142 0 -206 0 *
Wi

0101100
+238 0 -141 0 -140 0 +205 0 *
Fa
0  1e-07 75 0

0101000
+139 0 *
Ed
 1.5e-07 1 1 0
1  163 0 0.0621969129762308 0.111845679325456
0

0101000
+230 0 -235 0 *
Ed
 1.5e-07 1 1 0
1  164 0 0.0520614035087721 0.109061403508772
0

0101000
+303 0 -211 0 *
Wi

0101100
+137 0 -209 0 +136 0 +233 0 *
Fa
0  1e-07 76 0

0101000
+135 0 *
Ed
 1e-07 1 1 0
1  165 0 0.249 0.29
0

0101000
+230 0 -147 0 *
Wi

0101100
-227 0 -214 0 -220 0 -145 0 -133 0 *
Fa
0  1e-07 77 0

0111000
+132 0 *
Ve
1e-07
0 0.328 0.188
0 0

0101101
*
Ed
 1e-07 1 1 0
1  166 0 0 0.0496487663492256
0

0101000
+130 2 -211 2 *
Ed
 1e-07 1 1 0
1  167 0 0.628 0.656
0

0101000
+347 0 -130 0 *
Wi

0101100
+210 0 +129 1 +128 0 *
Fa
0  1e-07 78 0

0101000
+127 0 *
Ve
1e-07
0.272 0.272 -0.02
0 0

0101101
*
Ed
 1e-07 1 1 0
1  168 0 0 0.249
0

0101000
+125 0 -206 0 *
Ve
1.50000000230555e-07
0.272 0.328 0.229
0 0

0101101
*
Ed
 1.5e-07 1 1 0
1  169 0 0.0689543819864397 0.118603148335665
0

0101000
+204 0 -123 0 *
Ve
1e-07
0.272 0.328 -0.02
0 0

0101101
*
Ed
 1e-07 1 1 0
1  170 0 0 0.249
0

0101000
+121 0 -123 0 *
Ed
 1e-07 1 1 0
1  171 0 0 0.056
0

0101000
-121 0 +125 0 *
Wi

0101100
-124 0 -203 0 -122 0 +120 0 +119 0 *
Fa
0  1e-07 79 0

0101000
+118 0 *
Ve
1.50000000101567e-07
0.028 0.328 0.229
0 0

0101101
*
Ed
 1.5e-07 1 1 0
1  172 0 0.191561403508772 0.248561403508772
0

0101000
+347 0 -116 0 *
Ed
 1e-07 1 1 0
1  173 0 0.356 0.6
0

0101000
+116 0 -123 0 *
Wi

0101100
+115 0 -202 0 -122 0 +114 0 *
Fa
0  1e-07 80 0

0101000
+113 0 *
Ve
1e-07
0.328 -0.272 0.27
0 0

0101101
*
Ed
 1e-07 1 1 0
1  174 0 0 0.056
0

0101000
+190 0 -111 0 *
Ed
 1e-07 1 1 0
1  175 0 0.028 0.056
0

0101000
+166 0 -111 0 *
Ed
 1e-07 1 1 0
1  176 0 0 0.028
0

0101000
+174 0 -166 0 *
Wi

0101100
-194 0 -187 0 +110 0 -109 0 -108 0 -173 0 *
Fa
0  1e-07 81 0

0111000
+107 0 *
Ed
 1e-07 1 1 0
1  177 0 0.249 0.29
0

0101000
+183 0 -111 0 *
Wi

0101100
-189 0 +177 0 +182 0 +105 0 -110 0 *
Fa
0  1e-07 82 0

0111000
+104 0 *
Wi

0101100
+165 0 +108 0 +172 0 *
Fa
0  1e-07 83 0

0101000
+102 0 *
Ve
1.50000000124127e-07
0.3 0.272 0.27
0 0

0101101
*
Ed
 1e-07 1 1 0
1  178 0 0.328 0.6
0

0101000
+260 0 -100 0 *
Ed
 1.5e-07 1 1 0
1  179 0 -0.15246098859248 -0.102812222243255
0

0101000
+100 0 -206 0 *
Wi

0101100
+169 0 -99 0 -98 0 +156 0 *
Fa
0  1e-07 84 0

0101000
+97 0 *
Ed
 1.5e-07 1 1 0
1  180 0 0.0621969129762308 0.111845679325456
0

0101000
+183 0 -166 0 *
Ed
 1.5e-07 1 1 0
1  181 0 0.0520614035087721 0.109061403508772
0

0101000
+260 0 -161 0 *
Wi

0101100
+95 0 -159 0 +94 0 +164 0 *
Fa
0  1e-07 85 0

0101000
+93 0 *
Ve
1e-07
0.328 0 0.188
0 0

0101101
*
Ed
 1e-07 1 1 0
1  182 0 0 0.0496487663492256
0

0101000
+91 4 -161 4 *
Ed
 1e-07 1 1 0
1  183 0 0.628 0.656
0

0101000
+313 0 -91 0 *
Wi

0101100
+160 0 +90 3 +89 0 *
Fa
0  1e-07 86 0

0101000
+88 0 *
Ve
1e-07
0.328 0.272 -0.02
0 0

0101101
*
Ve
1.50000000230555e-07
0.328 0.272 0.229
0 0

0101101
*
Ed
 1e-07 1 1 0
1  184 0 0 0.249
0

0101000
+86 0 -85 0 *
Ed
 1.5e-07 1 1 0
1  185 0 0.0689543819864397 0.118603148335665
0

0101000
+155 0 -85 0 *
Ed
 1e-07 1 1 0
1  186 0 0 0.056
0

0101000
-86 0 +125 0 *
Wi

0101100
-84 0 +83 0 +154 0 +124 0 -82 0 *
Fa
0  1e-07 87 0

0101000
+81 0 *
Ve
1.50000000101567e-07
0.328 0.028 0.229
0 0

0101101
*
Ed
 1.5e-07 1 1 0
1  187 0 0.191561403508772 0.248561403508772
0

0101000
+313 0 -79 0 *
Ed
 1e-07 1 1 0
1  188 0 0.356 0.6
0

0101000
+79 0 -85 0 *
Wi

0101100
+78 0 -153 0 -83 0 +77 0 *
Fa
0  1e-07 88 0

0101000
+76 0 *
Ed
 1.5e-07 1 1 0
1  189 0 -0.29180701754386 -0.23480701754386
0

0101000
+116 0 -303 0 *
Ed
 1.5e-07 1 1 0
1  190 0 0.0621969129762308 0.111845679325456
0

0101000
+123 0 -142 0 *
Wi

0101100
+74 0 -114 0 -73 0 +141 0 *
Fa
0  1e-07 89 0

0101000
+72 0 *
Ve
1e-07
0.272 0.272 0.27
0 0

0101101
*
Ed
 1e-07 1 1 0
1  191 0 0.249 0.29
0

0101000
+206 0 -70 0 *
Ed
 1e-07 1 1 0
1  192 0 0 0.028
0

0101000
+70 0 -142 0 *
Wi

0101100
-69 0 -68 0 -140 0 *
Fa
0  1e-07 90 0

0101000
+67 0 *
Wi

0101100
-137 0 -146 0 +133 0 *
Fa
0  1e-07 91 0

0101000
+65 0 *
Ve
1e-07
0 0.328 0.27
0 0

0101101
*
Ed
 1e-07 1 1 0
1  193 0 0.628 0.656
0

0101000
+303 0 -63 0 *
Ed
 1e-07 1 1 0
1  194 0 0 0.0496487663492256
0

0101000
+211 2 -63 2 *
Wi

0101100
-62 0 +61 1 +136 0 *
Fa
0  1e-07 92 0

0101000
+60 0 *
Ed
 1e-07 1 1 0
1  195 0 0 0.0496487663492256
0

0101000
+63 2 -116 2 *
Ed
 1e-07 1 1 0
1  196 0 0 0.0496487663492256
0

0101000
+116 2 -130 2 *
Wi

0101100
+129 1 +61 1 +58 1 +57 1 *
Fa
0  1e-07 93 0

0101000
+56 0 *
Wi

0101100
-128 0 +57 1 +115 0 *
Fa
0  1e-07 94 0

0101000
+54 0 *
Ve
1e-07
0.328 0.328 -0.02
0 0

0101101
*
Ed
 1e-07 1 1 0
1  197 0 0 0.056
0

0101000
-52 0 +121 0 *
Ve
1e-07
0.272 0.328 0.27
0 0

0101101
*
Ed
 1e-07 1 1 0
1  198 0 0.249 0.29
0

0101000
+123 0 -50 0 *
Ve
1e-07
0.328 0.328 0.27
0 0

0101101
*
Ed
 1e-07 1 1 0
1  199 0 0 0.056
0

0101000
+50 0 -48 0 *
Ed
 1e-07 1 1 0
1  200 0 0 0.29
0

0101000
+48 0 -52 0 *
Wi

0101100
-51 0 +120 0 +49 0 +47 0 +46 0 *
Fa
0  1e-07 95 0

0111000
+45 0 *
Ed
 1e-07 1 1 0
1  201 0 0 0.056
0

0101000
-52 0 +86 0 *
Wi

0101100
-119 0 -51 0 +43 0 +82 0 *
Fa
0  1e-07 96 0

0111000
+42 0 *
Ed
 1.5e-07 1 1 0
1  202 0 -0.29180701754386 -0.23480701754386
0

0101000
+79 0 -260 0 *
Ed
 1.5e-07 1 1 0
1  203 0 0.0621969129762308 0.111845679325456
0

0101000
+85 0 -100 0 *
Wi

0101100
+40 0 -77 0 -39 0 +99 0 *
Fa
0  1e-07 97 0

0101000
+38 0 *
Ed
 1e-07 1 1 0
1  204 0 0 0.028
0

0101000
+70 0 -100 0 *
Wi

0101100
+98 0 +36 0 +69 0 *
Fa
0  1e-07 98 0

0101000
+35 0 *
Wi

0101100
-105 0 +109 0 +95 0 *
Fa
0  1e-07 99 0

0101000
+33 0 *
Ve
1e-07
0.328 0 0.27
0 0

0101101
*
Ed
 1e-07 1 1 0
1  205 0 0.628 0.656
0

0101000
+260 0 -31 0 *
Ed
 1e-07 1 1 0
1  206 0 0 0.0496487663492256
0

0101000
+161 4 -31 4 *
Wi

0101100
-30 0 +29 3 +94 0 *
Fa
0  1e-07 100 0

0101000
+28 0 *
Ed
 1e-07 1 1 0
1  207 0 0 0.0496487663492256
0

0101000
+31 4 -79 4 *
Ed
 1e-07 1 1 0
1  208 0 0 0.0496487663492256
0

0101000
+79 4 -91 4 *
Wi

0101100
+90 3 +29 3 +26 3 +25 3 *
Fa
0  1e-07 101 0

0101000
+24 0 *
Wi

0101100
-89 0 +25 3 +78 0 *
Fa
0  1e-07 102 0

0101000
+22 0 *
Ve
1e-07
0.328 0.272 0.27
0 0

0101101
*
Ed
 1e-07 1 1 0
1  209 0 0 0.056
0

0101000
+48 0 -20 0 *
Ed
 1e-07 1 1 0
1  210 0 0.249 0.29
0

0101000
+85 0 -20 0 *
Wi

0101100
-84 0 +43 0 -46 0 +19 0 -18 0 *
Fa
0  1e-07 103 0

0111000
+17 0 *
Wi

0101100
+74 0 +58 1 +62 0 *
Fa
0  1e-07 104 0

0101000
+15 0 *
Ed
 1e-07 1 1 0
1  211 0 0.028 0.056
0

0101000
+142 0 -50 0 *
Wi

0101100
-73 0 -13 0 +49 0 *
Fa
0  1e-07 105 0

0101000
+12 0 *
Ed
 1e-07 1 1 0
1  212 0 0.028 0.056
0

0101000
+100 0 -20 0 *
Wi

0101100
-68 0 +36 0 +10 0 -19 0 -47 0 -13 0 *
Fa
0  1e-07 106 0

0111000
+9 0 *
Wi

0101100
+40 0 +26 3 +30 0 *
Fa
0  1e-07 107 0

0101000
+7 0 *
Wi

0101100
-18 0 +10 0 +39 0 *
Fa
0  1e-07 108 0

0101000
+5 0 *
Sh

0101100
-518 0 -509 0 +500 0 -497 0 +492 0 -485 0 -480 0 +473 0 +468 0 +461 0 
-454 0 -450 0 +445 0 +438 0 -433 0 -429 0 +425 0 +418 0 +416 0 +411 0 
+404 0 +401 0 +396 0 +391 0 +388 0 +386 0 -381 0 -376 0 -373 0 -370 0 
-363 0 +361 0 +357 0 -350 0 -343 0 +340 0 -335 0 -332 0 +325 0 -321 0 
+316 0 +309 0 -304 0 -299 0 -292 0 +286 0 -279 0 -276 0 +271 0 -264 0 
+261 0 +256 0 -250 0 +245 0 -240 0 -236 0 +231 0 +224 0 -215 0 -212 0 
+207 0 +200 0 -197 0 -192 0 -185 0 +178 0 -175 0 -170 0 +167 0 -162 0 
-157 0 -151 0 +148 0 +143 0 +138 0 +134 0 +131 0 -126 0 -117 0 +112 0 
+106 0 +103 0 +101 0 -96 0 -92 0 +87 0 -80 0 -75 0 +71 0 -66 0 
+64 0 -59 0 +55 0 -53 0 +44 0 -41 0 -37 0 -34 0 +32 0 +27 0 
-23 0 +21 0 +16 0 -14 0 -11 0 +8 0 +6 0 -4 0 *
So

0100000
+3 0 *
Co

1100000
+2 0 *

+1 0 